<mxfile host="www.draw.io" modified="2019-10-31T07:27:10.014Z" agent="Mozilla/5.0 (Macintosh; Intel Mac OS X 10_15_0) AppleWebKit/537.36 (KHTML, like Gecko) Chrome/78.0.3904.70 Safari/537.36" etag="YMleY41x5PcQUPDh8ebn" version="12.1.9" type="github" pages="1">
  <diagram id="uL9-Y5VqIDvguBPdp217" name="Page-1">
    <mxGraphModel dx="1172" dy="678" grid="1" gridSize="10" guides="1" tooltips="1" connect="1" arrows="1" fold="1" page="1" pageScale="1" pageWidth="1169" pageHeight="1654" math="0" shadow="0">
      <root>
        <mxCell id="0"/>
        <mxCell id="1" parent="0"/>
        <mxCell id="YulKvY3epux6njUKUD7t-2" value="Bank" style="rounded=1;whiteSpace=wrap;html=1;" vertex="1" parent="1">
          <mxGeometry x="820" y="205" width="160" height="260" as="geometry"/>
        </mxCell>
        <mxCell id="YulKvY3epux6njUKUD7t-16" style="edgeStyle=orthogonalEdgeStyle;rounded=0;orthogonalLoop=1;jettySize=auto;html=1;" edge="1" parent="1" source="YulKvY3epux6njUKUD7t-3">
          <mxGeometry relative="1" as="geometry">
            <mxPoint x="810" y="335" as="targetPoint"/>
          </mxGeometry>
        </mxCell>
        <mxCell id="YulKvY3epux6njUKUD7t-3" value="Agent Backend" style="rounded=1;whiteSpace=wrap;html=1;strokeColor=#66FF66;" vertex="1" parent="1">
          <mxGeometry x="480.5" y="205" width="120" height="260" as="geometry"/>
        </mxCell>
        <mxCell id="YulKvY3epux6njUKUD7t-8" value="" style="shape=image;html=1;verticalAlign=top;verticalLabelPosition=bottom;labelBackgroundColor=#ffffff;imageAspect=0;aspect=fixed;image=https://cdn4.iconfinder.com/data/icons/google-i-o-2016/512/google_home-128.png" vertex="1" parent="1">
          <mxGeometry x="30" y="272" width="128" height="128" as="geometry"/>
        </mxCell>
        <mxCell id="YulKvY3epux6njUKUD7t-10" value="" style="shape=image;verticalLabelPosition=bottom;labelBackgroundColor=#ffffff;verticalAlign=top;aspect=fixed;imageAspect=0;image=data:image/png,iVBORw0KGgoAAAANSUhEUgAABQAAAAFTCAYAAABmsaG9AACAAElEQVR42uzdCZhcVZk//u97qnpP0mGRQIAkbDKyiCioICgo6BBAUQjuM4IaiBhCUnWrk4xDWShJd1V1OiEsSWSc+TPiFsFREJdBBBdUUJYfBJDsQBITSNJrdW33vP+nmsIJkK27b+3fz/PUA+l0zr33Peeee89b955jQERERERERERERFWLCUAiIiIiIiIiIqIqxgQgERERERERERFRFfMzBPQaXY5WCI6Ai/EwGA9FGgbdUOzAZmyUCLKMEhERERERERFRZRGGoHbp7TgQWXwcgvOgeBeAY/fSJpIAngTwFwh+is14gAlBIiIiIiIiIqLyxwRgDdLl+DAsrhtK/AF1IyzmFQi+D4tOmYENjCoRERERERERUXliArCG6HKcC8WNAM7wsNgMgDuQxTfkq9jIKBMRERERERERlRcmAGuA3ooj4cONUHy+gC0pDYtlqMfX5IvoY9SJiIiIiIiIiMoDE4BVTO9ACwbgQNAGoLFIm90MQQSbcbtEYFkLRERERERERESlxQRgFVKFYAUugyIOYFKJduMvMJgl0/Ewa4SIiIiIiIiIqHSYAKwyugKnw2IxgDPLYXcA/AiCoFyFF1g7RERERERERETFxwRgldClmIg6hAF8CYAps91LQBFDI9rlCiRZW0RERERERERExcMEYIXTRWhCM64F8G8Axpb57r4I4GtyNe5gzRERERERERERFQcTgBVMl+FiAEsAHFVhu/4ggOvkajzJWiQiIiIiIiIiKiwmACuQ3oZTIUPz/L2/gg/DQnAnLIIyA9tYq0REREREREREhcEEYAXRm3EQfLgegmsA+KqkBXZD0Y4D0SWXI81aJiIiIiIiIiLyFhOAFUCXow6KrwCIAGit0sN8HoqAzMC9rHEiIiIiIiIiIu8wAVjmdAXOgx2a5++E2jhg3A8frpPpWMXaJyIiIiIiIiIaPSYAy5TeiuNh0Angwho8/AwUt6ERYbkC3WwNREREREREREQjxwRgmdFbcQAM2iCYDUV9jYdjB4AbcCBulsvhsnUQEREREREREQ0fE4BlQsMwOAyfAxADcAgj8jpPwAy9FvwQQ0FERERERERENDxMAJYBXY5zASyG4u2Mxl5b670wuFa+jPUMBhERERERERHR/mECsIR0OSYB+CYUn2c09rvFpmGxDPX4mnwRfQwIEREREREREdHeMQFYAnoHWjAAB4I2AI2MyIhshiCCzbhdIrAMBxERERERERHR7jEBWESqECwfetqvA8ChjIgn/gKDWTIdDzMURERERERERERvxgRgkegKnA6LJQDOYDS8Dy+AH0EQlKvwAsNBRERERERERPR/mAAsML0Nh8NgIXRohV/Gu7ASUMTQiHa5AkmGg4iIiIiIiIiICamC0UVoQjOuBfA1AGMYkaJ6MRd3uRp3MBREREREREREVOuYACwAXYaLAdwEYAqjUVIPArhOrsaTDAURERERERER1SomAD2ky/FOAIuhOJvRKBsWgjthEZQZ2MZwEBEREREREVGtYQLQA3ozDoIP10NwDQAfI1KWLb0binaksViuRYoBISIiIiIiIqJawQTgKOhy1EHxFQARAK2MSEV4HoqAzMC9DAURERERERER1QImAEdIV+A8KG6C4m2MRiVWIO6HD9fJdKxiMIiIiIiIiIiomjEBOEx6K46HwSIAUxmNipeB4jY0IixXoJvhICIiIiIiIqJqxATgftJbcQAEX4cMvfLrZ0Sqyg4AN+BA3CyXw2U4iIiIiIiIiKiaMAG4DxqGHxNxJRTfBPAWRqSqz4ZnYTFbZuCXDAYRERERERERVQsmAPdCb8MHIVgM4GRGo6bOinthcK18GesZDCIiIiIiIiKqdEwA7obegmPhwwIA0xiNmj0z0rBYhnp8Tb6IPgaEiIiIiIiIiCoVE4C70DvQggE4EMwF0MCIEIDNEESwGbdLBJbhICIiIiIiIqJKwwTgq/P8GRyGzwHoAHAoI0K78RcYzJLpeJihICIiIiIiIqJKUvMJQL0N74bBEijey+ZA+2ouAH4EQVCuwgsMBxERERERERFVgppNAOq3cAQsFkCHnvzjk5A0HAkoYmhEu1yBJMNBREREREREROWs5hJfuhzNUMwE8DUAY9gEaBRezLUjuRp3MBREREREREREVK5qKgGoy3AxBEuhmMyqJw89COA6uRpPMhREREREREREVG5qIgGot+JdMFgM4CxWORWIheBOWARlBrYxHERERERERERULqo6AajLcRgUXwfwRQA+VjcV4YzqhqIdaSyWa5FiQIiIiIiIiIio1KoyAajLUQfFVwDcAGAcq5lK4HkoAjID9zIURERERERERFRKVZcAHJrnD+gCcAyrl0rfIHE/fLhOpmMVg0FEREREREREpVA1CUBdjn+CDiX+/pnVSmUmA8VtaERYrkA3w0FERERERERExVTxCUC9HQcigzBk6JVfP6uUytiOodfSD8TNcjlchoOIiIiIiIiIiqFiE4Aahh8TcSUUNwI4mFVJFXTWPQuL2TIDv2QwiIiIiIiIiKjQKjIBqMvwIQCLAZzEKqQKPvvuhcG18mWsZzCIiIiIiIiIqFAqKgGoy3AcMPTE3zRWHVXJGZiGxTLU42vyRfQxIERERERERETktYpIAOotGAODIARzATSw2qgKbYYggs24XSKwDAcREREREREReaWsE4AahsFh+ByAKIAJrC6qAX+BwSyZjocZCiIiIiIiIiLyQtkmAHUFPgA7NM/fO1hNVGMUwI8gCMpVeIHhICIiIiIiIqLRKLsEoH4LR8BiAXToyT9hFVENS0ARQyPa5QokGQ4iIiIiIiIiGomySbDpcjTDIgRBCEATq4boH14E8DW5GncwFEREREREREQ0XCVPAKpCsAKXAYhBMZlVQrRHDwK4Tq7GkwwFEREREREREe2vkiYAdRlOA4bm+Xsfq4Jov1gI7oRFUGZgG8NBRERERERERPtSkgSgLsVE1CEM4EsADKuBaNhnbjcU7UhjsVyLFANCRERERERERHtS1ASg/hD12IEZAG4AMI7hJxq156EIyAzcy1AQERERERER0e4ULQGoy3Bx/nXfoxl2Iq9PMNwPH66T6VjFYBARERERERHRrgqeANRb8Db40QXFRxhuooLKQHEbGhGWK9DNcBARERERERERCpkA1NtxIDIIQ3ANAB9DTVQ0O4Zesz8QN8vlcBkOIiIiIiIiotrmeQJQl6MOwBVQ3AjgYIaYqGRn97OwmC0z8EsGg4iIiIiIiKh2eZoA1BU4D3Zonr8TGVqisjnL74WLWfIVrGMwiIiIiIiIiGqPJwlAXYG3QtEJxUUMKVFZnulpWCxDPb4mX0QfA0JERERERERUO0aVANT/xHikMBfAdQAaGE6isrcZggg243aJwDIcRERERERERNVvRAlAVQiW40sAFnCeP6KKPPP/BOAauQqPMRhERERERERE1Z4GGCa9GZNRh29D8UGGj6iiZSHowAG4QS5HmuEgIiIiIiIiqk7DSgDqbXj30IICwFsYOqKq8TAEH5Or8ApDQURERERERFR9zP7+oi7DxyD4DZN/RFXnTCge1OWYxFAQERERERERVZ/9egJQb8M5MPglFPUMGVHVWgvFmTID2xgKIiIiIiIiouqxzwSgLsMJEPwBivEMF1HVewSCc+UqJBgKIiIiIiIiourg39tf6h1oQQI/ZfKPqGa8GxaPAjiRoSAqrXA4XJ9Op8fW19f3RSIRLtRDREREREQjttcnAHUZbgZwDcNEVGMU/yYzsICBICoex3GOAfBZAO8HcDqAcbv89d8B/D8A91lr/6ezs3MjI0ZERLVq2rRpviOOOOLQhoaGBtd1x1lrfT6fb7zrut3/GOiK7GhpadnEL9GIiPL94p7+Ir0IX6xrxnIAPoaJqMYotm95HJMmruCrwCMVDAbPEJGTK7YJqKqIdIuIWmu7jTHdqtqT+8Tjcc4T6aFAIHCCMWYBgIv3c3GuLIDv+ny+b7S3t69hBGu2j/myiIgXZaXT6R8uWbKkm1ElonIze/bsJp/P9w4ROU1VTwVwnIgcCeDwfb3NlmcBbFbVDSLyDIA/isgfo9Ho3xhdIqo1e7xxTHwNTzROwEnwoV98GAeFMFxEVU/tANb1bcQUuAiNvwWLGJKRcRwnF7vZVXp4GQBbAbykqptFZA2A1bmPqj7LBOH+mTZtmm/y5MnzReTfADSMoIhBVZ0dj8eXM5o12ce4+5kw3vfNoMg/cTBMRGXUvx0H4KP5L8bet5+JvuF62Vr7C2PMD5ubm381mqcEHcd5EsCRHu3Xx2Ox2ENsBURUCLvtTHdcizNT3Tgl3Qs0HIzWhgOQET8yEDQzZETVSbPY1L8OY900jnl1QIjQ5ulYxqcAaTfqAByR+7zxAaTcnx3H2QLgcQBPqOojdXV1v1+4cOF2hu3/hMPh+sHBwf9W1ctHUUyTiCxzHOe05ubmqyKRiGVkiYioQq+LYwYGBj6rqjMAnFKETb7FGPN5AJ9PJBLdoVBoXjQaXTbCsloBHODJ/bhqHVsDERXKbhOA4iIIAdQCyW1Auht1TRNQ52/GgNQNPaXgZ+iIqoSiL7EJvenuoVcpdvkxJjTX4TMAbmeQaJgOy3+miggymYw6jvOMqj5kjPnfpqam+yORSH8Nx0cSicQPAFziUXlfSiQSLoCr2fSIiKiSBIPBQ0RkfiKRuEJExnk0s8FwjQewlrVBRNXuTYm87TOHXve9YNef2TQw8CLgb0FL02FQ40eP+DHWq1dPiKgkMqnt2DC4BccBQ+fzm6jg00wA0mjl5yk7UUROVNWvJBKJVDAY/K2I3ANgZSwW+3stxSMUCs1V1Us8LvaqYDD4aDwe/w+2OCIiKnfhcHhMX19fQFWDIjKmlPuiqmtisdj9rBUiqnZvSuAZHXoioXF3v5wdAPrWQAa3oVUzULXoZQiJKo5qEuv6noHNJ//2SIBzXvkqJjJk5LEGETkfwE0AXnIc538dx7kyFAqNrfYDDwQCJ6jqNwpRtoh0BQKByWxeRERUzkKh0EcSicSzPp/v68aYMSUfEBuz4tWXX4iIqpv/zQMInKf76P7SO4BMD3yNB2Nc/XikpG6ow2xkOInKnGJb7xr4bQpH79+vw/gE5wK4k8GjAvEBOC/3UdXFwWDwThFZHovFnqjGgxWRSAFX1x8rInMBzGCzIiKicpOf5y9mrb1KSvSu726kfD7ff7F2iKgWvOkJQLE4bb8SAy4wuBXoW4+GTD8aNYsBAC5DSlSGFP2Dm7CxexUOsSkcOMx/ezoDSEUyVkSuBvB4MBj8neM4F+1ttfpK4zjOMQAuLeQ2ROQLwWDwEDYlIiIqJ21tbZMSicQfctf5Mkr+5dy1cOHCl1lDRFQLXvcE4N+DaNEk3jqcAobmB9wA+MegpflQWKlDr/iG5hMThpeoxARutgcv9L+AowCMGVkR+/elAJGnTVfkLABnOY7zlKq2t7S0fL/SV7kVkU8U4drYKCIXAfg2WxEREZWDWbNmnW6t/SmAQ8tt36y1y1lDRFQrXvcEoD+JI3WEryZl+4HetTDJbRinmaEnAfsYXqLS0RQ29j2LTD75NxpHMZpUQieLyJ2JROJxx3GmVvixXFSk7ZzHZkNEROXAcZwP1NfXP1iOyT8Az3R2dv6WtUREteJ1CUCRoSXQR06B1Hagdw38qe0Yq1kkIUgzzETFoxY7BtbjlZ7VmOxmPZmbs5VRpTLwdgA/cxznwWAw+PZKPABr7fFF2tSpbC5ERFRqwWDwDAD3AGguy3tmVT79R0Q15fUJQMUBnnSmLjC4BejfgMZsP+o0O7RaMOcHJCqs5OBWbOh5BgdmBnCwh+XydX4qJx8Qkb+GQqHOSlo1OBwO5wY/xZqbbwKbCRERlVIwGHy7iNwHoFyv1YlMJnMHa4qIaol5wyi/wcvC3STQvx6S2IRxNgVRF70QLrFO5CmFdRNY3fM06lMvYwoDQjXAr6pzVPVZx3H+uRJ2OJlM1hVx0vNWJu6JiKhU2tractehu4BRvl1WyNtn1R8sWbKkm7VFRLXEFGMjmT6gbw1M8hWM0zRcKPoZeqL9vUPZ8881i009z2Owbx2O0yKdz0Rl5HAAPw8EAneEw+Ex5byjjY2NA0Xc3I699BxEb5LNZtleiMgr4rrut0Xk2LIeBBuzrEz3i/0xERWujynWhlSB1MtA3zr40z0YoxkMcn5Aov25jdrtz7oHXsCWnudwuGbQwiBRTV/IjPn8wMDA4zNnzizbue8ikUhWVbcWaXPb2CpoOPx+P58YJSJPBIPB6flV78v31lrk8Wg0+kg57pu1lv0xERVu3FT0Ti0DJF4C+l9EUzaBOnXRB+H8gET7Q4FM6hWs7n4K4zN9OIwRIfrHzfyxjY2NDzuO86Uy3s1iDTaeYosgIqJimzdv3ltEZEG576e1lot/EFFNKtkrg24C6F8HSWzGWE0NLRzSy1eWiPZI7QDW9j4DM/h3HMdwEO1WI4BvOY7zH+FwuL4M9+/BYmxERH7GpkBERMWWzWajAA4s893sM8Z8l7VFRLWotHOGKZDpAXrXwJfajnGaQRaCAVYL0S6nSRab+p5HX+96HKMWPkaEaJ+uHBgY+OXs2bPLbRDyHaDgU1+kXNf9OZsAEREVUyAQOEFV/7VIm8uNF+9V1etV9ZPGmPdZa0977WOMOVtVP++67tcB3Aeg7x/31ap3RqPRPtYYEdUifznshFoguQ1I70Rd4wTU1Y1BQvyoL5f9IyrJeaHoS27GztROTGI0al6vqr5SjA2JyDgAPlUdX8RVawtxHOf4/f6H586dO7W9vX1dOexTPB7f5jjOSgCfLeBmbu3s7HyFpwwRERWTMcYpwgr0vxGRWzOZzM+6uroG9/G7v3/tf6ZNm+abMmXK+SLyr+W6+AcRUTGUVYLttfkB/S1obpoINT70SB3GQrm6KdWUTGo7NgxuGXrVdyzDQar6nXg8fk2xtxsOh00qlWoVEb/rugdaaw83xhyZzWan+P3+I621k/Kr/B1VpqE73nXd3wUCgfM7OzufKYcdymazbX6//6MFOrd7rLULeMbQCNolp2AhohELhUJHqOpnCriJxwDMicViD43kH69cudIF8Iv8p6xxFWAiKqSyfMIuOwD0rYbUj0dr0wS48KFXDMaxuqjKqSaxvn8dDnct5/mj0otEIhbAzvwfXwbwt939XiAQONgYc5qqni4ipwE4HSibRWomGmMechznI7FY7LFS70xXV9emUCgUUtXbPC7aisiVfPqPiIiKzVp7hYgUYu5d67ruDWPHjr0xEolkGWkiotEp61ds091Apg++xoMxrv4ApMUPm5/knai6KLb1roHfpnA0g0GVJp90et03621tbSdbaz8G4GOq+q4Sv058MIBfBwKB8zo7O/9a6nhFo9FloVDoOFWd41kXonp9LBa7m62RiIiKTUQ+WYBiE6r6qUWLFt3DCBMReaPsX61VFxjcCvStR32mD42aHZr01WXVUVVQ9A9uwsbuVTjEpsp+1TSi/dbR0fFULBb7ZiwWO9113SNFZIaq/r6EuzTeGPOLQCBwQjnEp6mpyQHQ5UFRFsC8eDx+I1sdEREVWzAYPAnAiR4XmxaRT8TjcSb/iIg8VDFz69kUMLARGHgJLTYFURc9+YEPUSVys31Y3b0KY1I7MZnhoGrW1dW1KRqNLovH42cDOBXA7QASJdiVg40x/+s4zjGljkkkErGxWGyOqn4WQPcIi9kiIh+PxWLtbGVERFQKIvLRAhQbjEajv2R0iYi8VXGLa2T7gd41MMltaNXMUAKQy7hTRdEUNvY9h0z/Rs7zR7UnFos9EYvFvpzNZo9UVQfApiLvwkQA982bN++gcohHPB7/rt/vPzb/NOD+JkV3AmgXkeOj0ehP2aqIiKhURORMj4v8dSwWW8rIEhF5rzJX11UgtX0oEehPbcdYzSAFQZLVSWXNYnv/emztWY3JbpZzWVJt6+rq2hGPx+PNzc1vVdXrrbX9Rdz8W7PZ7F3hcLi+HGKxcOHC7fmnAQ9R1U+r6v8H4JH8wis7AWwH8GcAywFclkwmD4vFYvOi0Si/ACMiolISVT3DsyGeqhpjZjOsRESF4a/knR+aH3DL0GIhDU2HQX316Bc/mgD4WLVUNu1UkUxtw6bkyziG0SB6vUgkkgDwDcdxvgXg6wC+WKRr0wcGBgZWAPhCucQiHo8PAPh+/kNERFTWQqHQW1XVszmsjTG/6OjoeIqRJSIqDFMNB+EOAv3rIIlNGGPTEM2iBwJl9VJJKaybwOreVahn8o9o72Kx2N9jsdjVqnqqiDxejG2KyL86jjOD0SciIhqR4z29dVb9D4aUiKhwTDUdTKYP6F0Nk3wZrZqGC0U/q5gKRvf8c81iU8/zGOxbh+O0ys4zokKKx+NPNzU1vVdVY0Va6KkrFAqdxsgTEREN81ZY9SgPi0uq6i8YVSKiwqm+xER+fsC+tfCnd2KMZjAIQZpVTZ6T3f6se+AFbOl5DodrBi0MEtHwRSKRdDweD4nIeQBeLPDmGlR1ZVtbWysjT0RENCyeJQCttY/lp8IgIqICqdonk2wWSGwG+l9AU3YAdeoOrRbsssqpEFSRSr6Mtd1PYXymD4cxIkSjF41Gf+Pz+U4B8OsCb2qKtfYmRpyIiGhYJno2KDXmrwwnEVFhVf2riUPzA66HJDZjrKaHFg7p3cvLm0TDI1A7gLW9z8Kf3Mp5/oi81t7evrO5uXkqgO8UeFP/4jjONEaciIhoP2+DRcZ4VZaqrmNEiYgKqzbmJlMg0wP0roEvtR3jNIssFHzEnEbXrLLY1Pc39PeuxzFqufI0UaFEIpF0LBb7F1XtKPCmbpk3b95BjDgREdG+WWubPCxuMyNKRFRYNbU4gVoguW1ofsC6dA9aNIsEgCybAQ2rHSn6BjfhhZ7ncLibxlhGhKg4p148Hp8L4KuqWqinuN/ium4HQ01ERLRvIuLlfNd8OIOIqMBqcnVSmwESLwEDL6LZTcKnWfRAirLaJFW2TGo7VveswtjUTkxiOIiKLxaL3QIgWLDrg7VXOo7zPkaaiIhon+o8G5Qak2Q4iYgKy9TywWcHgL41kMG/o1XTULVDiUDOD0hvpJrEut5noYNbcBzDQVRa8Xh8karGClG2iIi19pZwOGwYaSIiouKw1nIMRkRUYBzgAEh3vzo/YHo7WjWDDAB+A0WvUmzrXY2dPWtwtHVRz4AQlYd4PN6mqv9ZkAujMackEonPMcpERERERFQtmADMUxcY3Ar0rUN9pgeNmsEAlPMD1m6DQP/gJmzsXoVDbAoHMiBE5XeW9vb2XgXgFwUq/4ZwONzIMBMRERERUTVgAvANbHpobkAMbEKLTcGoi57cjxmZmuFm+7C6exXGpHZiMsNBVL5WrFiRyWaznwWwoQDFT04kEjMYZSIiIiIiqgZMAO5Bth/oXQszuHVofkALoI9RqWIKaAob+55Dpn8j5/kjqhRdXV070un05QDSBSg+OHPmzAZGmYiIiIiIKh0TgHujQHrHUCLQn9qOsZpBivMDViGL7f0bsLVnNSa7WfCVP6IKs2TJkkdV9YYCFD2xoaHhC4wwVTufz8fJ94mIymFYwsVQiKiAmADcD0PzA24B+jegIdOHRs2iH+D8gBVfr4pkcivWdj+Dg7IDmMCIEFWulpaWDgCPFqDo0LRp03yMMFUz13WFUSAiKoPBuTHsj4mocH0MQzCMG+QUMLARSGzCmKH5AbPogYDf0lQahXUTWN27CvXJl3EMA0JU+SKRSDaZTF7l9ZytInL05MmTL2KEqZrxCUAiovLAJwCJqJCYAByBTB/QuwYm+fLQ/IAudOiJQCp3CmgWm3qex2DfOhynbP9EVWXp0qWPW2vvLEDRXAyEiIiIiIgqmp8hGCEFUtuBTA/8jYdgTN1YDEo9DBScML4cCboHNmIw04fDGQyiKu6aVf8NwKUAmj3rPkTOnzt37rHt7e1rGOHiCgQCk40xx4vIYQAmAjgUwCHW2noRGZf/IrNVVftEJKuq3caYrLV2h4hsAfCCtfYFY8yLGzZs2LBy5UqXUX2zWnoFOBwON/b39x8tIscAOMYYc6SqjgEwRlUbc+3KWtssIlZEkgB2AkNzQCcAdIvIRlVdB2Btc3PzxkgkkmYLKln/cLAx5m0Ajs99VDX337EiMhbAuPx14LVrQTZXfwBeUdVXRGQDgNUA/pbNZv/S1dW1gxGlclCLrwDPnz9/grW2JZPJHOD3+xtc1831wa35a/yAiKRc1+32+/1J13UTqVRq89KlS1NsLUTDxwTgKNkskNgM+BrR1DQR8DWgT3xDNxucM6o8JFPb8NLgNhwLYDzDQVTdFi1a9KLjOIsAfM3L+3Fr7Rc8LpPePJif7PP53q+qZwE4FcA/5QbzeDWx+7rfFZHd/jn339zv7vr3xrz6sPeUKVMSjuM8DuAvqvoXEfljLBZby8hXr5kzZzY0Nzefbq09S0TOUtV3DAwMTNx1gL1r23qt3bzWZnZn199PJBKu4zgvAvgrgN/lPhs2bHiSiebCJQnS6fSHAJwnIucDOGJv/cJuvAXAcW/8Pb/fD8dxVufr8FfW2l93dna+wogTeWfatGm+KVOmnKyq7xGRY1X1aFUd+iImk8mMea3vtda+6VzO9bu7/l1jY6N1HOclVV1njMldx3OfVT6f7w8LFy7czmgT7RkTgB5xk0D/eqBuHMY2T4ALH3rEN/TtIydyLQWB2n6s69uIKWqHkn9EVCOam5s7EonE1QAO9qpMVf0MgH9/9flv8mowMGnSpLNF5FIRuRjA5Dcm+rxuGgDel/u8NrhwHOdZAPcYY+5Zt27dH5m4qXxtbW1TVPXTqnoBgNOttY3YJXG3H0mi4fABmJL/XIpXE819wWDwYWPMvdbaH8bj8W2slZELBAIHi8i/iMjn0+n0KeJxBe7iuPznSmOMGwwGHzDGfG9wcPCupUuX9rImiIZ/jZ8yZcqZAM7OfwGTu/6O2/ULu1GczgbAJBGZpKrnvPbDTCaj+ev671T198aYB6LR6GbWBtGuaZJd7PwqLgHwY4ZllEE1QMPBQMMByEg90lC0MCrFo1ls6l+HcW761SdHaNSdRGL8zWzDw5V/Cm22J21a9dZ4PH4Nozqs+N8IYL6XZRpj3tfR0fGwF2WFw2EzODjoeLVvTU1NSyKRSLJC6uYYALn2/FkAh5TNtUN1q4j8p6quiMfj6ysgjq5Xczm7rnv8okWLnq/U8z0YDB5ijLncdd1Pi8gZBUwSDTu0qnp/PpH0YyaS9v/WIxgMfkhEvgQMjU1KNr2OtbZfRL4D4JZ4PP70KPt9fyKRuMWTAIksjkajz47wfJljjKnzqN+cBeAwj47p+9bajYWuU2NMTzQaXehxf7wBwGSP4nBeNBr9daWevKFQ6L0APq2ql+en7SglC+AhVf2e3+//UXt7+052r1Tr+ARgIQYRFkhuA9I7Udc4AXV1Y5CQOvihqGd0Cjl4Q19yM3amdmISo0FU46NHkdtUNeTldc5a+ykAniQAt2zZ4mttbW33at96e3u/BaCsE4CO45ydGxsAmFqOi5CJyAQAc0UkFAqFfqmqN8disft4NpWvYDD4dhGZC2Caqvr39upuifhE5COq+pHGxsbbHMf5tjEm3tHRsYG1t8d+YqqIfFNVTy2H/THGjAFwtape5TjOT5LJ5A1Lly59fCRl7dixw9fY2Djdo+vRSgDPjrCv+4aqNpfffbx+qhi5e1V9CcBCnm3emT9//oRMJvMVVf2cqh5dRruWuyicKyLnuq57s+M4v8h/yXdfqd/ocBxnJoCbPCyyPRaLzavgvv9BAB/w8J5uWjQa/VElxmLWrFnj6+vrX/ZqDKOq18fj8W+89mcmAAvIZoDES4CvGc1Nh0J99egVP8Zw9WXPZVI7sWFw09CrG3zqj4gQjUZfchznxwCmeVjsxQCuZXSHp62t7WRVXaiqF1bILpv866MXOI7zRxH5t2g0+hvWZFm1qTOttfPybapSplppAnCNtXZ6IBD4fm6w1tnZ+Qxr81WBQOD9InIjgLMKPBXASAeTuXZ2SUNDw8ccx/luJpNxFi9evIU1RzXeF0+x1gYzmcyVuT6ufB6+3q16AB8VkY8GAoEnRaR948aNK0s19YeI/Nhau8TDJ9YvAlCRCcB8AvksL8tU1csAVGQCsL6+/iNe5ulU9a7X3eSy6yo8NwH0r4MM/h3jNANVix7OI+VRe05iXe+z0Hzyj4hoV0s9Lm9KMBg8iWHdP8FgsMVxnJuttU9UUPLvjc5Q1QeCweCv2traTmGtllYoFHqb4zj3W2v/kBvsSJmPNvegzhjzeWPMU6FQ6HuhUGhijfcThziO8yNjzEMicla572++zX22rq7uuWAwOGf69Ol1PDOp1sydO/fYQCBwh7X2+fyUHk2VtP/GmFNE5HuTJ0/OncdfnDZtWtEX74xGoy+JyJ89LPKkQCAwuRLbUzab/bjXC6haay+cPXt2U4WeYlM9LOvZN37ZyARgEaW7gd7V8KVeQatmkYFikFEZIcW23tXY2bMGR1uXr1YT0ZvFYrHfAXja45vGixnZfXMc52wReTI/MKj4ew0ROd9a+2goFLohHA7zmlNk4XC4ORgMLlDVJwB8qEoOy6jqp1T12WAweG0pBqClFgwGLxeRVa8toFJhxolIZ2tr6+OhUOg0nqVUI31x45w5c8Ku6z5ljPk8gLoKv7YfKyK3T5ky5U+BQOBdJdj+3V6W5/P5KvLLVlX1/BpgjBlTV1f3kQo8x3L3zBcUso0xAVjsBp6fH7BvHeozvWjSDAagyDIy+xtA9A9uwsbuVTjEpnAgA0JE+3C3xzcp5zGke7/XCAaD/w7gQQDHVNmx1anqvycSib+GQqF3s6qLIxgMXphIJJ4WkXn5V7iqzTgRWTJlypRHaqVdBQKBg4PB4EoR+YGXq7WXyImq+rtgMPhlnq1UzUKh0PmJROL/+Xy+rwNorLLDO80Y8+dgMLi0ra2ttWjDWlWv71EvrMTrAYBzChTfivtyaWBg4D0A3lLINsYEYInYNDDwIjCwCS02BaPu0GvBlpHZIzfbh9XdqzAmtROTGQ4i2k8/8bi8M/gE2O7NnTv3gFAodI+I3FDl9xcnqervQ6HQV1nrhZM7zxzHuUlE7gVwVA0c8jtV9Q+hUMipoHkNh62tre1kY8yjInJZFR1Wo4iscBznP8LhcCPPXqqyvnhMIBC4Q1V/BVT1lEs+EfmqtfbZUChUlCfHYrHYWgBPeFjkueFwuLmSgi4iHyvguhQXz5w5s6HC4uHl67/rY7HYY2/8IROAJZbtB3rXwAxuRaumhxKAfZwdcBcKaAob+55Dpn8j5/kjomHfXD0O4EUPi2xKJpN8+usNgsHgUa7rPlzBc/0NV52qLg0Gg9+utJvLSjBnzpwjE4nEQwBm1tih+1U16jjOXcV8CqVYQqHQJdls9mEAU6q0/q5MJBK/DwaDh/Aspio5Z9+WSCT+nH/dt1Ycpqr3OY5zff51zMIOdb19CrBpYGCgoqbJKPCXQa0NDQ3nVVg8vLyP3m3bYgKwTKR3AL1r4U9tx1jNIgVFsuaDYrG9fwO29qzGZDcLfqNKRCO6twLwU49v1s5mWF83QDgNwB8B/FOtHbuIXNHY2PgQB/yetqfzfT7fXwG8t4bD8HFr7aPBYPDt1XKqOI4zX1XvMsaMqfK6e5eI/Jp9AlU6x3E+6bruIwBOqMHDNwAig4OD986bN++gQm7I5/Pd7fF9ScV8ETt37twDAHywwPdpFfO0+ezZsw+31r7Dw/HKXXtq3FQuo1QXGNwC9G9AQ2YAjeqiD6jB+QEVg8mtWNv9DA7KDmACWwYRjZKnCUBrLSd8z2traztLVR8QkVruq98jIr+ZP39+xcbA5/NpmQw4r1TVn3s5/00FO05EHg4Gg5U+76gEg8GbANxYQ+OOk0TkASYBqVLP2VAo1Ang+zWQsN/7kFT1gmw2+9e2traTC7WNjo6OVQCe87DICytlGglr7UeLMLfvRytltXafzzc1v9K8Fza1tLTsdpVpJgDLkJsCBjYAiZcwdmh+wCx6IDXwYrDCugms7lmFhuTLVTd5PBGV7gbuD7mu1bM7Y5F3MqpDEze/P5vN/hzAWEYDJ2QymQccxzmUoRgZx3FmqurtuXtgRuMfWkTknmAwWKmrjw8l/0SkFufLPFFEHpg3bx6T2TQs1tqSjfmmTZvmcxzn26o6hzXxD5Ottb+ZNWvW6QXchpdPAR7R1tb29gpp68VYpOPA8ePHf7AiLpgezv+nqj+ORCK7XV+CCcAylul7dX7A5Mto1RRcKHqrdoCewYs9z2Owbx2OU7ZLIvJQPB4fAPCMh0VOKfQrIeVu5syZpxpj7q31pwPe4AQAHPCPgOM4cwHc5OE339WkUUTuCgaDn6qw/a7l5N9rTsxkMj8Mh8N+NmMqd9OnT6876qijvgvgC4zGmxxUX19/v+M4BZkCxlrr6WvAruteVAH3keNE5MNF2tylFRCPBgDne1Xenl7/BROAFUCB1Hagbx386Z0YpxkMQpCqmuMTdA9sxJaev+FIzaCFFU5EBfKol4Wl0+mTazWQgUBgcmNj47188m+33pbNZn/AAf/+C4VCNwBYyEjsVZ2IfCcUCl1RQfW6uMaTf6/e5oqck0gk2tmEqZyFw+HG1tbWu1X1ckZjj8YB+EUhVgju7Ox8DMAGz9IHqlPLPZgNDQ0X5f5TjG2p6iXlfl/W1NR0DuBZLuTlF1544Xd7+ksmACuEzQKJzUD/C2jK9qMhPz+gW8GHlExtw5rupzA+04fDWMNEVOBB2KMel3d8jQ4SmgH8BMBEtqo9OndwcLCDYdi3UCj0FVX9d0Ziv/hU9VuO45T9wC4YDF6nqteyyv4x+JzjOM40RoLK0bRp03wDAwM/BHARo7FPzar6E8dxPuB1NyEinj0FaIx5TyAQOLjM78uLuTjHWwYGBt5f5m3Ly2v7T1auXLnHPBETgBXGHQT61786P6CmhhYO6cmvclkho3CoHcDanmdQN7gNx7JGiagofafrep0APK4W45hIJG4xxpxS4t3oBfCUtfZhAL8CsHKXz/8AeATAFlXVUg74A4HAp3nm7ZnjOFNV9aZy6SIArAXwVwC/BvBTVb0HwAP5n20sZXvahc9a+4OZM2eeWs71KiLxMtmdlKquyddhri7vA3A/gL/kp4VIFGmgK9babzc2NrbxzKdyM3ny5JtE5GJGYr81ALg7EAj8k8f3DV6+Buzz+XwXlGsAw+HwGAD/XNQURJmvBqyqXq7efNfe/pKvqFSoofkBB+CrPwitjQcgIw1IQ8v7FVrNYlP/Ooxz01zgg4iKa8yYMU8lEokMgDqPLtRvrbUYhkKhz6pqKeYGegLALwA85vP5Hm9vb1+7P198tbW1tarqO1X1PSJygaq+r5gLTBhjbrvuuuseXLx48Raega83c+bMU621PzDGlGrBj2fyq1f/1hjzTGNj4+pIJJLe2z+YPXt2k9/vP15ETgTwAVX9IFD8+xljzJjGxsZ758yZ895Fixa9WE712tbWdqK19nslWsjFzfURqnq/MeZPuXpdu3bt+r09BZEbEwYCgUk+n++tuX5CVT8kImcU4rW0/HypEZ79VE4cxwkA+EqJd+M5Efl/qvqctTb3/1tVtccY0+vz+VxVbcl9XNc9wBhzNIC3ATgewLvzr+WWwoEi8rNgMHhGPB7f5kWBzc3Nf0wkErn7hcM8uk+9EMB/l2O7GxgYmCoiTUXe7MfD4fBX97QwRinlk8le3U90Nzc3P7C3X2ACsIKpBVIvA5lu1DVOQF3dGCSkDn5owZfTHmYHhL7kZuxM7cQk1hoRlUJucO84ziYAU7woT0Sm1FL8gsHgIaq6uIibfBrA9wCsjMViq0dSQEdHRw+A3+Q/7YFA4GBjzCcBXA3gpCIcQ2tdXV0XgE/xDPw/oVBoYv7puqIuIGOtfVJE/ssY88NoNLp5uP++q6trMJ+Mzn3uzJ8XRwH4jIj8C4Bifikw0efz/SwcDp8ZiUT6y6Fe582bd1A2m72nmAPy/FOZfzDGfDuTyfykq6trx3CL6Ozs3Agg9/lfAN+cPXt2U11d3QXW2i+IyAUcK1EV98WXqWq02Nu11vYbY/5HVX9pjHlgJP0xXn2KzD84OHiatfZDIvJxAO8q5nGIyNEAfjp79uxz89eH0d6n2mAw+GMR8Soh+5FcjCKRSLbc2p4x5tISPFR/aH9//1kAfluG8bjQw/Prnn19ocmLWhWwmaFXguFrQnPTRKivDr3iH7qxLvUr3pnUTmwY3ITjOFk8EZWaiLygql4l7g6vpdipalxEijGfzCMAvhGLxX7m9fQWnZ2drwC4JfcJBoMfFJEbALyvwMfzyVAo9J/RaPSXPAOHBmwmkUjcUcTzxwXwfQDxzs7OJ7wuPB6PrwdwY+7jOE6uLYVU9eIirWZ8ciKRWALgi+VQt67r3grgqCJtLqWq/2GtXbJo0aLnvSw4P5C/O/eZP3/+hEwmMwPALADjeQYXeDzzamIoU4RN9dR6rAOBwAmqekcxx4qq+ntjzO1jxoy5y4svLvKJrT/lPzcGg8GTROQL+VWMDyrSYb3H7/fn+j6vFmi6y8MnMsfnE14PllPbmz17dpPrulONKX6awufzXVqOCUAAF3p4jPt8lZwJwCoyND/gOkh9K8Y1TYALH3rEDH0TK0UfKyaxvm89jrAujmPNEFE5UFUvX5c7MHcT48W3vuVu5syZpxpjPlvIbYjI46o6PxaL/aIYxxSPxx8A8IDjOBcBuKmQiQtr7c3Tp08/YcWKFZlaPwcHBgauE5EPFSOXoKr/LSI3jvQJ0uGKxWJ/APAxx3HeAeDruf8vwmavDIVCP4tGo3eXOJnw6SKtHppV1duttQuK8frzggULtubqctasWYt9Pt8sEQnmX+WtaLFYzLMpgxzHeRrAiR4NXD8fjUb/h3crBb+mNxhj7gRQrFcw77fWfqOzs/O3Bb6u59piMBQKRVT1GgBzALylCMf3Bcdx7ovFYitHW1BLS8tvE4nEKwAO9ujeamq5JQAB/HOp+lFV/QSA68pp/YS2trZWa+1ZHt1v9ltr9/mFMxcBqboRLpDuBnpXw5d6Ba2aRlZtcSY5zm9/W+9q7OxZg6OtW16vIhNRjXePqi94WV5DQ0NNrGDe2Ni4oID3C8nczdj69etPL1by7w0D4XtV9WQRWVyoRR5E5NjW1taaXxCkra0tF+cFRdjUU8aYs+Px+BeKlfx7Q5t6IhaLXZL/Rn9DEfq1FbNnzy7ZE8m5bRtjbinCph5LJpPvjsfjM4o99+GSJUu6Fy1aFAFwkoj8jFdTqvBr+jcBvKMIm3oWwDmxWOz8Qif/dhWNRvtisVi7qh4FoB1AMb58Wx4KhY4YbSH5pxp/6uH9R9mt7Oz3+0u5GMcRwWDwveUUD2vth72an9wY8/P9eTCBCcBqHehaILkN6NuAumwfmjWDASgKNweAon/wJWzsXoVDbAoHsgaIqNyIyIseX7QPrvaYtbW1nVyoldpUdZ0x5r2xWGzJPibqL6h4PD4QjUZn55/YKtSrYaESPI1fNmbOnNlgrb2zEIsr7MJV1et7enre1dHR8XCpjzkWi93X3Nx8IoClBd7UQX6//79K1L7E7/ffDuCAAm4jKyLzm5ub37N06dLHS1mnnZ2dG6PR6EWq+lkAfbyqUqUJBoMfzD8ZV0jJXF/c3Nz8jlgs9lApr+2xWGyeqr4TwB8LvLkDVPWOcDjsRW7lLg/3621z5849upzuBQCUNClpjCm31YCneljWfrUdJgCrnE0DAy8CAy+hxU3Dp9mhwY2Xq9+42T6s7l6FMaluTGbEiahcqepLHpc3vgZiNrNART9WX19/ZkdHx5PlcqzxePweAKcX6KmtE0Oh0MW1eu41NjYGAJxcwE1sU9UPx+Pxb5TTq9aRSCQRi8WuVdVPWmsLuVjHeaFQ6HPFPr5QKHRpob4gyHtZVT8SjUYXltNE9vF4/Lsi8h4Az/HKSpUiGAy2iMh/FXj8vx7A+3J98b4WIiji+fr0hg0bzlbVhVrYlSfOTSQS14y2kGQy+WsAvZ4N1F33wnJpgw0NDR8u4crNr93XXlouX8iGw2Gjqhd4VFxSRO7bn19kArBGZAeAvtWQwW1DrwVbddELGcX77wpoChv7nkOmfyPn+SOi8qeqfR6XV/UJQL/f/++qej2AzR4W+3Q2mz0/P79WWYnFYquNMR9Q1XVel22tnV2L553jOIcCmFvATTwhIu/Kz+tYluLx+A99Pt+784PjQvVvC8LhcHMRBy711tqFBdzEKmPMaeVar9Fo9NlkMvkeAL/i1ZUqgYiEABxZwE3cl81mT4vFYo+V27GvXLnSjcfj840xlwDoLuCmvj5v3rxRLUCydOnSFIB7Pbw2XFhGVXFpGezD5FmzZp1WDsEYHBw8TUQmeFTcr6LR6H6Nc5gArDHpHUDvWvjTOzBO00hDh+ZfGuYoBtv7N2Brz2pMdrNoZFSJqBL4fL6ExzfTVZ8AXLBgwdZ4PP6Nnp6eKQA+BeAPoyxym4hc0NXVtaNcj7mjo+MFVf1gbl89bi/vD4VCE2tw0PlNAGMLVPyffT7fB6PR6EvlHodoNPpsrg0A+FuBNnFEIpEIFut4EonEVSJybCHKttY+6ff7z82di+Vcp0uXLu1NJpMfVdV7eIWlcjZnzpwjARSyf/ivDRs2fLScr+35fvinxphzvL6+7+JA13Wv96Ccuz28Bp8TDodLvnhROByuF5GPlkM7qKurK4dEpKfJWRHZ7zbDBGANUhcY3Ar0rUdDph+N6g7NY7LvVysUg8mtWNv9DA7KDmACI0lEFZaI8HrF3qZaid2KFSsysVjsB7FY7CwA71LV/8wv4DGscb2IfKoSkjWdnZ0brbXTPJ483FhrL6ulc66tre0UVf1CgYr/nYic397evrNS4pFr+3V1dR8A8FSBNhEqxoIgbW1trQCuL1DxT9TX139o4cKFL1dCnS5dujTV0tKSO6+5ei2VLZ/PtwBAoZ4Qvi0Wi11Zyrl8h6Ojo+NJa22uH95UkHG26oxQKHT8aMpobm7+OeDZIp4Ng4OD55U67olE4oMezBfrVUwuLZPm6FUCMGOM2e/FY5gArGFD8wNuHJojcKxNwqiLnj28Fuxm+/C3nmfQkHwZxzByRFSRfZ61CY9v8upqMY6xWOyxeDx+pbX2SADzAOzvUzrLo9HobyrlODs7O38rImEvyxSRy2uprbiu25Ebexag6KeMMRfv7+su5WTBggVbReSfh3HeDEdLXV1duAh96RwAhVgE6YVMJjN14cKF2yupTiORSDqbzX4GwJ94paVyEwqF3p1fuKYQlsdisWtenRyqcnR2dj7n8/kK9SRgnbU2Nso+JaGqv/DwfrXkrwGLiBdfgN4E4GUP9uVYx3HeUcp4XHfddYflF6jxwm+G82UoE4CEbP/Qa8EmuQ2tmoIL/b+JRzWDF3v+hmT/RhyvyvZCRJUrk8l4/QpwfS3Hs7Oz85VYLNbe3Nx8DIDLVPXBvfz6jnQ6Pb/SjrGpqSl3E/+EhzfhZ9bKa8DBYPAkAB8uQNEvZrPZCzo6OnoqNTbRaHSzMWYqAM+fXlTVz8+bN+8thdr3/CqOVxeg6N7cIHXx4sVbKrFOu7q6Buvq6i4p0CJCRKPpE+aLiBSg3Hs2bNhQccm/17S3t69Jp9MXARjwumwRubitre2U0ZRhjLnbw12aWsqFL8LhsF9VP+ZBUStF5H88qqOSvpHh9/unenheDmvlaCZ0KN+LA6ntQN86+NPdQ/MD9vevw997/oYjNYMWBoiIquAm2NNXgF3XrWNUh76pzsZisbvi8fi5xpi3i8i33viahojElyxZ0l2Jx2aMucbDQYGo6tm10C5EZFYBBp2DxpgLu7q6NlV6fDo6Olap6mVDMyt7qzGbzc4o1H43NjZ+EsAhHvfNOZ+Jx+NPV3KdLliwYGt+kYEUrwxUDhzHOQZAIVagf6SlpeVTlfLa754sWbLk0fz8xp4fh7X2ulFeQ+/1sC+Z6DjOqaWK88DAwDkePDW+Pr/AzF0eXXdK/RrwVK+GI6o6rKQoE4D0+s4qCyQ2AX0bMCabwKGMCBHR7vl8PmUUXq+jo+OpaDQ63RgzEcB1+VVPBzOZzPIKPqaHVfV/vSpPRM6s9racfwLN81fORCSYa2PVcr7kV7iNFqDoa8LhcKEWaftqAcq8LR6P/6xK+sAnvZ46gGqLMUY97DOvLcB4v8dae3kkEklUQ7xjsdi9ItJegKI/nV8Ff6R9SQ+AX3u4PxeVKsYePW03lPjr7u7OXTe9WGzmn/JvKhRdfkGU870oS1V/F4/Hh/UqOxOAtFs2zRgQUXVpaGjwegLsLKO65xvXWCy2pLm5+VgAZ5b7yoD7cYO1wMOyyi4B6Lqup0/qZTKZ6QVYJOfeaDR6W7WdKz09PdcDeNTjYg8ZHBz8pNf7GgwGzwBwusfn1hoAoWqq0/Xr18ettQ/zSkAjGoNZ60l/3NbW1qqqVxTgenh1Z2fnxmqKeXd3dwTAn72+7RztdAmq6uVrwCWZB3DatGk+Vb1ktOUYY36M/KJ0ufsBj861kjwFODg4+AEAYz0q7sfDjiW7WSIiqgWq6mlCQkQyjOreRSIRG4vFnqj04+js7HwIwFqPijslGAxW89QaIiJf9rjMPgBfrtS5pvYmN5ix1n7B6y8UVPXLBajYKwsQgqvi8fhANdXpypUrXRG5qhCvFRLtL9d1/9XDJMNr7ozH49+vxn7Y5/N9zsNVZl8zY/r06XWj6Md/4uG14bT58+dPKHZsp0yZcpaIjHa7WxobG/+0y7XIk9eAfT5fqeYBnOrRdV5HMlckE4BERFQTjDHNHg+w+ax07dDcwMejsuqMMW+r1kCFQqHTAUz2uNj2WCz292qNWWdn5zOqusLjYs/wcsGZadOm+QB8zON9vC//GnTVicfjT6vqd9h1UskuWqqePgVsre3PZDJOtcarvb19Te7U9bjYQ1pbW88dxbXhFQC/9eo2OJPJXFCCdniZB2X8OBKJ/GO+3Kampl/lvxgcrZNCodDxJYiJJ09jisgj0Wj0pWE3BHaPRERUC1zX9foV4EFGtaYGU/d5WNZRVRwnr1+peSGbzXZVe/uqq6v7OgAvVzY2qvpxrwqbNGnS+wB4ubqwa4yZW+V9RhhAkr0nFdvs2bMPN8a818syRSRaqat076/m5uYYAK+PcbTXxLs97JOK+hpwOBw2IvKJUV/M3vCUWyQSSYqIJ/PGWmuL+hTgnDlz3grgOI/OyRE9CckEIBER1QSvXwFW1W5GtXb09vY+Zq3t96i4o6o4VJd6fJ59s6urq+qT7QsXLnwZwOJyrQtjzCc83rcfVdOCLrvT2dm5UUT+m70nFZvf7/+Ex+P8zS0tLZ3VHrdIJJK7xl/vcbGX5J+gHhER+bFXq8WLyIfD4XB9seKZSCTOADDaJ9G3NzU1PbSbn9/l0bWtqPMA+ny+Cz28PxpRcpgJQCIiqgkiMtbj8pgArCH5OYIe86i4KdUYI8dx3gHgGA+L3NHS0nJnDTWzZQC8nFrg/fkVmUfd3eUGsV4eqLX21lqo0MHBwdvYe1IJeJ3UuKVaVv3dl2Qy+d+qutXDIg+ZNGnS2SP9x9FodLO19k8e7cu4wcHBsyupHarqTyORSHY315CfezFno6qe6jjOMUWMyVSPynkiFouNaG5qJgCJiKgmiMgRXpanqj2Mam1R1XUetcUpVXqOeT2/0O21MujMyc9z+EMPi/Sl0+nzRltIKBR6q8fzOj7d2dn521qo06VLlz4O4E/sPalYAoHAwQDO8rDIpN/v/1atxG/p0qUpEVnmZZnGmEtG+e8r8TVg8SgRvdsn/fKLR/3So30tylOAM2fOHAfg/R7V44jbhJ/dJBER1QJVPVJEPCvP7/e/zKgWRltb2yRr7QkicjSAQ1X1cBGZoKoTANSr6hgR8QEYl/8nCVVN5W+Ue6y1rxhjtqvqdgCbrbXrfT7femvtung8vm2k++W67gafz+dFWzywGuvNWnuGV+eYqmr+ibha66duFZHPeTjwPAPA90a5T+/x+Bi/VWN1+m0ReS97dioGEcmd8z4Pi/x+foqCmpHJZJbX1dXNy91veFTk+0bZh9wtIl4tUHIhgDmFjmEoFDpdVSeNspjeVCp1/17a+l0ezXV7GYBooWPS2Nh4vldtSlVH/Ao0E4BERFQrN8WTPBzQaUNDw2ZGdfSCweAhAM4B8AFVfYcx5kRrbWs+zrvGfNe6fGMxB7z2s9zv5f5/1983xvzj58FgcKuIPK6qjxtjHjHGPNTe3r5zf/bVGOPVU5/NVXqOvdfDsh6LxWLra+18iMfjf3IcZxOAwz0q8r0e9Hfv8TKxa639cY1de+7Jz+HFN6+oovrhfHk1t5r14sWLt4RCoV+rqldPtZ8SDoebR/pEezweX+84zmMA3unBvrzVcZzjYrHY6kLG0Fp7mQfXjZ8tXbo0tZe2eW/+y9+GUV6XTgsEApM7Ozs3FrhpefX673OdnZ3PjPQf80JERES1YpKHN8T/P3t3AiZXUe4N/P9Wd8/SM0kmYREXICyCC7iwXsEFFVwIiygRP0XvvV4dFQiTyfTpmYDQtnLJ9DKZhEkC5rpcVNBrSECIICD7vssuaxYW2UIyIenZuuv9ng6NBkhIMlOn1//vefLo/T6nzjlvnVOn6u06Va/G43Hu7jjK8HV2dh7ied5sz/MeBPCCiPyfiJxkjDkEwASfB0fvAvAlEZmpqhfncrmXPc+7KxKJdEej0YPesdNkTNbFOahqU7VVamENHWe7xObrpkafD1XVPzks72Pt7e2N5ZJQEJH7Zs+e/UwtVWjh0+572PRTkbhMAL66mQ0Yqp7jHypCmUxm/zG+GJY4PJ+jihDCrzl4X7zjNScSiX4R+auD4+T5/RmwuEoAjnb33zdwBiAREdWKXRyWxdl/26izs/Oj1toTAXzdWrvLRh2ZUp9aAMABInKAqnZ6nrdMVf8oIr/cxC/kWUfHrLoEoKp+wmVdBgKBS2r1WTHGXKKqJ7kaeNbV1eUHnjeP5o8LycN9XV1bLpe7tEardSmAA/kmID8Vdpt1eZ8t3dQGDLXAh5m7nwBw0xjeC0tU9SxH53IkgF6/Yud53n4Adh9jMQOFjT62ZHHhs+ax9mG+BmC2XzGJRqP7q+pOjvpbY0oGcwYgERFVvVgsVufwk7q8ZYzqVsXdRCKRYyORyHXW2r8BiDhOxPphNxHpBPB3z/OuiEQiUwq/3LocWFTdJ8DGmP0dFvdSIpF4uFafm5GRkZvz/+GqvFwuN+rPxqy1+wAIObz3b6jRZMItfCOQ33bdddcPAxjnsMjLazWWrmfujnUt1WQy+SiARxydzqcLG1L4xcVsuisLG328o0AgcKmLH2eNMf/W3t7+Xr8Cks1mXW2+siyVSt07pmtlU0lERNVu3bp1+zqe9f44o7p5U6dODXie991MJvO4iFwiIodV4GWYwqfCSz3PuysajX7RYdlV9wWGqu7uqiwRuauWn5/e3t4BAA86u5GN2W20fxsKhXZzeGl2eHj43lqs06GhoXt044VJifx4aRmzl8vyrLW1voP17Q7fay7qxtVnwHWFDSn8cryDPsVWfeY6a9asVQCud/H4BIPBr/oVkEAg4CoBuMRF55aIiKiqBQIBp59eqSoTgJvhed6RkydP/huAXwLYo0oua39V/Yuq/pQ1vFmTHT5fd9Z6MF3GQFUnj2HQOtnhZT3e19e3thbrc+7cuWtE5Ek2E+Qna63LdvjFImyKUDPtsIu6GRwcXOLw2qb4EbPOzs59AYw12Tk8MjKydBveU4tdnLuIHO9Tv3infD/SUb2N+VqZACQiolpwgMvCRIQJwLeIRCK7RSKRqwD8GcA+VXqZO7CmN8vlTLG7GU53MbDW7jaGwcauDq/pvhqv07/xtqYKaodr/ocYa62zGBhjmmfOnDmmPkRfX999qvq0o37sl2OxmPEhZi6SaNfOnTt3zTa8py4BkBvrQVX10EKyDo7HDF92lHd7rqmp6Y4x34tsJ4mIqNqp6kEOy9JAIPAAo/qvvo3nea0icr+IHMFwVJ5AIDCmTxNnzpy5nct1p6y1T7NW3K0zaowplxmAT9V4na7gbU1b8bzqGP7WWQJQRB6u9boYN27ckwCGXZWXyWQmO6gXV7MAd1qzZs3+PoTNRQJwm2a5pVKpFxytsxoAcJzrgFhrXe26vCQej9sxtzFsZomIqJrFYrEwgA867BQ/3d3dvZqRff2zBs/zrgLwc8cLj1MR5XK5MW1yMjw87DJJhObm5pW1Xici4jJZNKGrq2viKP/W2aY9qvpsLdepqj7D1oa2IlkgY7jHXLbFNd8Ox+Nx67LdcrGm6lh3gN1YXV2d08+Ao9Fovq/9obF2SVT10hLG5WsuY9La2hoSkcMd9QsudlEOE4BERFTV1q9f/2+ON124l1Hd8MnvwYXPFA9nNCrbWGcABgKBSQ5P5+V4PJ6p9ToZHBzMDzqtq/JUdcIo/3SCq3NwnNSsOLlcjglA8ttODtuMlQznBivLqX7S6fTtAJ5zdD5HuQyUqrpInt2cTqdfGkX7usTRRkuf6ejo2N5VTMaPH/+p/H+46BstW7bsRhfnxAQgERFVNRE5xnGRNb8+med53xWRGwC8l3cYWWvDDst6nhHdsNbTEIBVDotsGuXfhR0ODmu6bkOh0D94Z9MWB+dj+ATY5fPKT9b/2Ydc6bBum9w0pXqxozZ5v+nTp7/b4fu76J//vmH27NnPiIiLNRuDxpivOKxzV7Ms/7Ro0aKck3PiY01ERFXOaQJQVW+o5WBGIpFTCzv81vPWooImh53ldQznP613VdDg4GC41HUbDAbX1XgiYT1vafJLLBYLunwv53I5LnXyutUO+49hR+/JJY7aJAkGg0e6KMvzvPcbYz46xvhoLpe7ZAzXs9hRPR3vsM6PclRXFznrZ/GZJiKiatXZ2flRl7viWWvXrV27tmY/AfY877sA5vDOord0TF3OEsswov/kLBZ1dXXhUSQUjKo6SygMDg4O1PhzMsBbmvzy6quvupz9h/r6erbFrxsot3dl4VPQlxyd0xRH5RzvoIw7Zs+e/cwY+ugXObqWz7W3t495aZOurq7dAezl4JTWNDY2XufqPmQCkIiIqpa19miX5Rljbl24cOFILcYyGo1+G8D/iIjwzqK3aHQ4QGKS5F+cDcBVtXkUfxZ2+bw3NDQM1vj7iAkV8s24ceMaXZZXX1/Pttjxj1Kq6mRGdeFT0EsdtUtHTJs2rd7BtX3VwemM6dPmdDq9TETuc3AeoWAwOOavh3K53NGO6uiyeDzubDdqJgCJiKiaHee4I3h1LQZx2rRpH1fVhWXYb3hFVZ/O/ytsznIPgIc3+n97hY+A/0SkweEzNsyI/tOQq4JyuVzdNh98aCjkOKEwVMuVGQgEhnhLk1+Gh4ddzgC08Xic9+vr7zeXiXtnSypYa518BmyMaW5oaPjMWMro7OycrKr7O2gjlzjoQ5TTbsBHOnp3LHF5Twf5WBMRUTWKRqMHqOp+Lss0xlxWa3GcNm3a+Pr6+j8CaCjRKawRkVustQ8YYx4dGhr6e319/XNr1qx5eWtmY8ZisWB/f/8OwWBwB2PM7qq6l4jspar7AMjfHyE+LWPucLuc2cW1Jf/F2TMXDAa3eTZPfX39QCbjbuw7NDRU73JWY6UZHBxsCAY59CJ/BAKBnLXWVZsusVhM4vG4MrIIOCwr66qg5ubmazKZzBoALWMtq/AZ8FWj/Xtr7dfGOlvcWnt/KpV60sG1LFbVnzkI8RGdnZ0TEolE/2j+OBaLNWcymc+M9SSsteustVe6vKH5FiIiompNSkxzXOQTyWTysZrLQDQ0LASwZzGPme8IGmP+CODycDj8QDweH/WoJh6P5zvc/yj8e2Dj/7/29vZGY8yBxphPAzhWVffnJ86jetYyrsLmcj3BKuAyFutH8ewMeZ5nXc38tdY2ulxQv9LU19c35nI53tXki2w2mzHGuGqHpfADBD9bd7sTurN4xuPxYc/zlgI40cF5TQHQNoYixrz+n6uNTZLJ5KOe5z0C4ENjbbILG3hcMJo/Xrt27RHBYLDeQVyu6Onpcfo5PhOARERUdSKRyI4ATnBc7KW1FsdoNHqEqp5QpMPlOzi/tdbO7enpeaQYB+zt7c0f88bCv7M6Ozt3yV+vqv7I5eYx1c5lAtBx0qvSufxcbDQDT83/nTGm2cU5GGNqum6z2WyYvy+QX5qbmzMuZ+yuW7cuzATg6zv3Onxu1ztuU5YEg8ETHRS1R0dHxwd6enr+vq1/OGPGjJ1V9eCxxsjhp7tvzAL8kIO6P360CUBXuysDWOz6nuYagEREVI2+7/pTQhH5Qy0FMBaLBVV1dhEOlVPV81R1ciqV+kGxkn+bkkgkViaTydTy5cvfLyLHFdYUpC0/Gy4Hic2M6D+Nc1jWqAaexpiyWwC/gjXxlia/xOPxAQDWVXnBYJA/xjh+bh2/K/P+4iqpKCJHjebvAoHAVx18OfF4Op1+yGGcXSXNvhiLxUbTJxFH6/8Nisjlrm9oJgCJiKiqTJs2rV5EfuS42MeTyeTdtRTHTCbzfQD7+HyYfIfvgHQ6/aN0Ov1SuVz7okWLcslk8pJwOHyQiHwHwLN8st6hM+kwSQTgfYzohlnM+UHnRIeD+dHWkbO6zeVyNV23IvIe3tnkIy3MpHcim83uwJBueG53cFiW0xmAvb29A6p6haPipozy71xsluF0k4tEInG/qj7poKjGTCazzXHxPO/jAFy091clk8nXnPfZ+FgTEVE1qa+vnwbgvY6LvaCWYhiLxYIAunwdqaieHw6HD06lUn8r1zjE43GbTCZ/a4zZB8D/8enatFwu96rD4iZGo9FxNT+SV93VYVna0NAw2h2xX3Y4+N2lxut0Z7YW5DNnyQJr7S4M5wa7lmP9bNSuLHHUPh/a1ta2TRuKTJ8+/d0ADh3rsYeHh5e4jouIlGw34MKaiuV0DW/CBCAREVWNjo6O7UXkdMfF5owx/1tLcVy7du3RAPzq/FtV9dLp9H/E4/GKWF8okUj0p1KpbwDo5VP2dnV1dcud3iDW7sqoOh10vjSGZ225w4FqTSfAjDFMAJLfnnFVUCAQYDvs/seYla7Pb3h4+M8AhhwUFQqFQl/Yxnf/cQ7ySSvnzp3r/Asbh58BHxmLxcLbeGwXn/+OGGN8WXucCUAiIqqmAdZPALQ4LvbPiURiZS3FMRgMnuJTR1pF5LvpdDpdiXERkRf5lL3drFmzVjme2bBHrcc0EAjs4fC+HUsSb4XD9rmm69VaO5mtBfn8jlrm8Hmt+QRge3t7I4AdHbYBy12fY19f31oAVzu6f6ZsY5/ueAfHXFL4fN2pZDJ5FwAXffemgYGBL23t/7iwCeFBDo57XXd3ty+75jMBSEREVaGjo+MDAH7gQ4d6QS3F0fO8PVT1sz4VH00mk+dXamxUdTyftM1yOfA8sNaDqaoHlklSYLnDwe9+tVynIvJxNhPkc7vhcsbuR2s9noFA4CPiaAtgVdXm5ublPrUtrj4V/XIsFtuq/FAh0fVpB3FZ4tfj4Cou25LoNMZ82VGObbFf9zUTgEREVPHyHRZjzHwAQcdFP5pMJq+qsXAe6arD+9ZOXqXO/NvI9nzaNstlougghhMHl0lSYIXDa9qjq6trYi1W5syZM7cDsBtva/KTyxmAAPbf2mQQ2+Gt8pJfy54EAoFLAWQdFLXD+vXrD97Ke+0r+UOP8d304vLly2/18XlwlUQ7KhaLNWxtH9rB8XKhUOhPfsWFCUAiIqp4AwMDHoDP+VB0tx+fJpS5L/lQ5svBYPB7VRCbvfm0bbaj/bTDsg7M/0etxrKrq2uiqu7lqryx7IZorX3SYb1KNpvdvxbrtFavm4rL5QxAAOPXrVv3gRp/rx3ksKxlfp1nYRmO612UZYzZ2s+Av+YgJpcsWrQo51dcGhoabgXwDwdFjRsYGNji+oitra0hVf2Cg+PdfPbZZ/u25AwTgEREVNHa2toOVNWf+VD08v7+/t/XUiwLv3Ae5kMn+ky/1jIpsg/xidssl4t4t7S1tR1Qq4HM5XKfczwL967R/mFzc/PjAPodtgWfrdFq/RSbCPKbiDzgNFFgzCE1HtJDHZb1gM/n6upz1y0mAAszmj9bLue8OfF43AK4xFFctpjwHDdu3KEu1iH38bPo159rNpVERFSpotHouFAodCGAkOuyVbV74cKFI7UUzzVr1uwLIOy42BWNjY2/qPTYtLe3vxfADnzqNvu83O6yvFAodFytxtJae6zD4l5bsWLFw2McQN3l8HyOqdFqPYqtBPktmUw+72jjgzfa9Vp9XtHZ2ZnvDznbuEdEbvfzfEdGRi7Jvz4c1PlHo9Ho+97pf5PL5Y5x0O9e3d/ff53f9ejwM+BjYrFY3RaOdaSD+KsxhglAIiKiTb1rVfU8EdnTh7IfX7t27a9qLaChUGhvHzpf8+PxeLYKYvMFPnKbl0qlngLwksP7piYTgK2trSFjjMtk0Z1j/cRKRO5weD77dHV17V5LdTpjxoyduaECFdFtDtvhI2KxWHMtBjGXy33FcXm3+Xm+c+bM+Yeq3uqgzsVa+46zAF3s/gvgsmL8yN7Y2HgDgFccFNWybt26z28hdkc5iP+dyWTyWT9jwgQgERFV6qDqTADf9Kn402pt9l+h4+E0AaiqCuCCaoiNqn6RT90WuZzh8IHCDIyaMmHChPwAY2I5JQOstS4TgMhms1+tpToNBoNH+7GxEtFm3lUu2+GGgYGBL9ViHAubXLjyak9Pz2NFOOcljsrZ7Ey2tra2FgCHOzjG4mLUYzwez4qIkw01jDGbTXwWftj6YCXEhQlAIiKqOJ7n/YcxJuZH2dbaW1Op1JIa7fDu5bi8ewufJFW09vb2Rp82R6k2tzl+Fk+uwRie7Lo9G2sZoVDodheflm3ULny/xjZ5+R6bBioWY4zrT02/W2sxnDZt2scB7OewzbujGBvKWWuXFH54HavDN7frbX19/dEA6sZ4nutGRkauLlZ95nI5V0m1Y2OxWHAzx5ji4gB+r/8HJgCJiKjSRCKRrwP4hU8zKrLGmJNrcOffNzplE1yWJyK3VENcgsHgVAAT+PRtseN6ueMiv93e3j6pVuLX1dW1J4AjHT7P66y1Y94ZctasWS8DuNPhpe4VjUYPr5H31SdU9eNsHahYGhsb7wWwxmG7/kXP895fSzFsaGg41XHf6tpinHdPT88KEbnHQVHhdevWfXYz98OYd/8NBAKX9/b2DhSrPpubm69x9ExsNzAwsLnNT1y8u/9WWE7FV0wAEhFRxfA87wQR+V2+/+DTIeanUqm/1XCI610Wpqr3V0lcWvn0bVk6nX4AwBMOiwyHQqHv10r8crncqS775o4HWRc7bhtOqYU6VdUfsWWgYorH48MALnWZLxCRU2olfpFIZEcA33Bc7OJinb+rz4CNMW+b0RaNRscB+KKDdnFJCZ6JpY7a9K9t4p5pAnBYpcSFCUAiIqoI0WjUU9Xf+7Hjb8Gzg4ODZ9ZyjFW1znFH9JlKj4nneZ8CcCifwNIMdFQ1WguzACORyG6uE83WWpd14ToBeHQ0Gj2omut0xowZexljvsEmgYrN9TpiuVzuu9OnT393jcSuA0CDwyLvTafTy4p4Ca6SSFM28U6Z4iA2gyJyeQU/E8dNnTr1TZMQjDGfd3HPqGpREsVMABIRUVnLv2g9z5unqkm/FlJXVRWR7/b19a2t5VgbY5wmAIeGhtZUQVhm8Sks3cATwKRQKHRGDTx73Y5n4A40NTU5G2SlUqknADzk8D4Ra22imus0EAic5eMPVkSb1djYeBWA1xy2T82hUOin1R63zs7OyQBOdVzs4mJeQzKZfMxRWz25s7Pzw29pt4930N++OplMvlbsuh0ZGbnSWrvOQVE77rLLLp96yzW5WP/v7z09PY8Upb/BJpKIiMpVLBZrnjx58hLXC+NvwvxkMnk1I46cy8KCwaCt5GC0t7cfx9l/2zz4uAeA09kOqnpSNBrdu1pj5nneodbaqY5jdkU8Hl9XzgNZETnM87yjqrFO29raDlTV49kiUCnE4/FBEfmz42L/MxKJfKSa42atPdvx7L+i7Xb7FkscvUf+2T4XPnP98ljLNMaUIh7o7e0dCAQCTn4Ue8tuwOJi/b9i3idMABIRUVmKRCIHr1+//j4Ax/h8qEeampo6GfENnb0Rx0U2VWos2tvbJwWDwfm8K7b9NgKw0HGZdar6m9bW1qqbTRWLxZoB/Nr17GZjzALX5yoivwCQdVzsgra2tpYqq9O6urq6hX7NWCfayvf5+Y6LDIjIgrd+/lgtotHoEarq+pP92wsz8orKGOMqAThlozK/DCA8xiJHRkZGLitVHTtcFuO4WCy2IY/med5HAbzPQayLti4iE4BERFRug6dgNBrtFJGbRGRPnzsD66y1U+PxeIaR3zDAH3FcXsXuHBgMBucBqIk1j3K5nNNdrwOBwM8BrHd8mge1tLTEqi32AwMDcwC4fk4eSiaTznedTCaTz7paYH4jOweDwXOqrE7PBPAxvlGolO1xKpW6EsCjjk/v0F133fW0aot5V1fXRFX9peukvar2luJ6EonE/QAed1DUITNnztyucC0uZjRf19vb+2qp6rmwLIaLjbHeMzg4eEjhv7uYxb48lUrdV6w4MAFIRERlIxqN7p3JZG5W1e4irZ3UWqw1NyqBqq52XOR+FXof/hDA/6uVeg8EAk4HPd3d3atV9bc+3J9d0Wj089USd8/zTlDV/3JdrojMLszEhA9l9zkfjBjz7XwsqqFOI5HIJ1SVM8qpHNpjVdW5PrQBZ0aj0X+rppjncrlfAtjZcbErm5qalpTwsi5xcTsODw9/IRaLNTj6zPXiUtZzYVmMqxw9XBt2A7bWftlBcYv9emdv8p3LZpaIiEqto6Nje8/zzlHVBwEcXIxjisicnp6e3zP6b4rJ047LO6qwPkrF8DzvC6rax7thzJ3jufnRp+uxsaou7uzs3LfS49PZ2XkIgF/7EPcXBwYGLvTrvBOJxM0i4sdMhV9X+q7AM2bM2LmwjlOQLQCVg6ampt8CWOW42KCqXhSNRt9XDTGKRCKnAzjOh/7UvHg8ni3hO9hJ8tEYM2X9+vVfBDBujEVZVb2kDPq5ix3F92szZ87cwRhzsIOyirouIhOARERUMu3t7Y3RaHSmMeZJANOKtWOiql62bNmyCGvgbR2jpxwXuUs0Gj2sUq6/MKvhjxzAj11PT8/fRcSPtX4mWGuvmDFjxs6VGpsZM2bsZa29FECj8469MXP7+vqG/Dz/XC6X8qHYxnxMCrtwVpxoNDouEAgsrZVlA6gyFJY3+bkPRb9XVa/o7OycUMnxiUaj3wbwMx+Kfm1oaOh/Snlt6XT6TgDPOCjqSwBOdNDvvjWVSr1Q6jofGhrK90uGHRS1czabPQvAWNfEfK6pqemOYsaACUAiIiq6rq6uiZFIZEYwGHxMVc/OD+qLdWwRua+pqembixYtyrEm3uYJ1wWqalclXHhHR8dhqnpVMe/FaiciXT5sGrFh8BkIBC4/7bTT3lWBbd+egUAgf59t50PxK0dGRub4fQ09PT1/AHC3D/fLu6y1V3iet1Ml1Wl7e3ujql4E4CN86qncZLPZHh9mAebtk8vlLinsDltxotHoF1X1F35s1qOqqblz564p8SWqo09utxMRF+v/LS6Hes/Xi4hc46i4Vgf3ysXxeNwWMwZMABIRUdF4nvcxz/P+J5fLPSsiPT6subKlF+2Tw8PDUwrrgNBbNDY23gHA9U7AX4hEIseW+UDgGGPM5Q4+caGNJJPJR1X1PJ+K32dkZOSGSvoMrbOz88O5XO5GALv6Ub61tqu3t3egSAPLqE9lfwDAddOnT6+ImXSxWCwcDAYvzbdzfOKpHBU2XYj7UbaIHAbgL5U2EzD/zlfVPwGo86H4Z5qamnrK4TqLubPsFs4j7+JyqX+HuwGPmasdm7fpmGwWiYjI50HvLp7nnex53s0A7gPwPQDhEpzKM6p6+Jw5c/7BWtm0QmL0Hh8GCedGo9H3lOlA4IeFTnIj7wD3QqHQTwCs9qn4vVX1pkpYE9DzvE9Za6/38RPR2wsz84oimUxeJyJ/9qn4D4RCoWu7urp2L+c6bWtra1m/fn0+BofzSady1t/ffx6Av/tRtoh80lr71zd2iy13kUjkm4UZu/U+xWNm4dPrklu+fHm+3/1Sqc9DRO7p6elZUS73QCH5my2DU3l52bJlNxb7oEwAEhGR83d9R0fH/p7nxaPR6L3W2vxLfx6AQ0t4Ti+IyBHl1AEpY9f7UOa7VfWSadOmjS+Xi4zFYnWe581W1XMdrOFCmzFr1qxVPq2x9IbJ1trbotHot8o1Bp7ntQO4BsD2Pg1m8mYUcxfBwqCu08dB1Adyudxd0Wj0iDJNIuwTCoXuKsyAIiprCxcuHFFVP9c9PiCbzd7leV7Z7vw/derUQCQSORvA73xcb/rOZDJ5Yblcc2Gpm3LYeGNJOd0LPT09rwC4sQxO5U+lWI6ICUAiIhqT9vb290aj0a9Eo9GzIpHIXzzPe8UYczeAM1X142VwiisBfDqZTD7G2tqy4eFhvzpqBzY0NFxXDut7dXV17ZnJZG7J376scf+Fw+E+AH4uct2kqr/zPO+8ckoyn3baae/yPO8iALP93ODIGDM3nU7fVuzrSyQSDwM428dDTFLVKyKRyOmxWKxsNuaJRCInquptIrInn26qFOl0+s8A/uTjIXYDcIvned8rt2uPRCI7Tp48+UoRmenHmn8F2eHh4VOK/UPMlpRJ8m1Jud0TrnYDHqOSnAN3uSMiok3q6uqaKCJBVR2XzWabRWSX/D9V3RnAzqq6a2EAtJOqvvFCLbfLeMIYc3gikVjJGt06c+fOvcvzvIcA7OND8fsBuN/zvP9KpVJLi31tsVisbmBgoH1kZOTHxphm1nZxxOPxbFdX14kjIyP3+Rz3HzQ0NBwdjUbbksnkRaW63lgsZjKZzPdGRka6AUz0+XAPDAwMlGyjnf7+/rMmTJgwBcD+Ph0iICJnDQwMfM3zvO+lUql7S3WtnZ2dk1V1gap+uQzfdURbHvgHg9/PZrMH5/ttPh2iAcD/RKPRr1prT06n08tKfMkSjUb/Q1VTPm289KZXXb7/VG51vmbNmmsnTJiwugjvos15qBx/gB8eHr44FAr1lXBC3JpwOHxtSdoBNoVEROVNRP7L87z/V8RDjs8PunK53MbnsOE/30j0oTyTfW91ZygUOubss89+kXfRNvtfAGmfyt4RwGXRaPQPw8PDM4q0JmN+EHBsJpNJANjLGH4AsbFcLuf7jIXu7u4nPc9rA/BLnw/1HlVd5HnetdbaeE9PTzE/8xHP86ZkMpkYgAOKcLxBVf1WX1/fUKnunYULF450dHR8xxhzT2Hw74vCbPI7IpHIL6y1Z8+ePfuZYl1jW1tbS11d3XRrbQRAE1sMqtT2eNasWS97nvefqnq5jzPhUEiSP+R53n+r6tx0Or2+2HGcNm3axxsaGnpV9TN+H0tVb16xYsWscryf8m2053mXAfhOiU5hSTnGJd/3jEQit4rIJ0txfGvtZfF4fLgUx2YCkIio/NX7tVhxFVscDoe/Uy4LMVcaa+35AH7i52wtVf1GKBQ6JhKJ9InInFQq9YLrY8RisbpMJvMNAFFV/TBrtrRSqdSvPM87EsDXinC4zxljPheJRK4HkG5qaroyHo9nfRpo1tfX1x9b2Bl3/2LFU1U70+n0Q6Wu156enkcikcjphZ3dfR23iMgPA4HAf0YikV8aY87xc2bJaaed9q6RkZEfAWgD0MInmKqkHf6L53nz8k2Xz4cKA/hvEZkejUZ7Ghsb5xc2GvNVNBo9QFXPUNWjARTjl+r+QCDw7VKs5bYN74olIlKSBGApdrndlrECgJIkAAOBQMniwgQgERFVDVVVEZkVDofPiMfjlhEZ9YD+lUgk0gdgpt8DhMJGAh2e510uIr9sbGy8fCyJmlgsFsxkMocC+GYmkzkewCTWaPkIBALfz+Vy+wDYuxjHK2zScFgmk3nB87wLhoeH/+/555+/d6yDtdbW1tC4ceM+YYz5BoBvlODzqt+n0+m+cqnXpqamOevXrz9URL5ahMPVi8hJqnpSR0fHrSLyvwD+lE6nx7zbZSQSaRKRIwF8Z2Rk5EscK1E1ymazncFg8FMAPlaEw+2gqt2ZTKbL87w/GmPOTyQSt7o8QGGW7tfzz62qHooifaWir38W88NEIrG8nOs7l8tdZYxZV4KlT55KJBL3l3F/ZEkul5stRf6kyVq7zlp7Zamumy81IiKqFqsB/HsqlbqMoXDSYUwHg8GTAEwoUn/kGFU9JpPJvBSJRG42xtyuqreHw+F73mEmp3R0dOxijNlbVT8iIp/JZDKfLnzGTmWou7t7ted5UwDclh8YFvHQOwHoqKur65g8eXL+HK5X1RtF5BFr7WM9PT0rN7d4+9SpUwOTJ0+eXEha7gPgM9baT5dwHcmbBgcH/7OcFpuPx+M2Eol8B8DkwlqfRWGMOQTAIar6c8/zHizstnzH4ODg4/X19Y+/06eHra2toebm5t0CgcBeAA5U1c+JyMF+bthCVA56e3sH2tvbjwoGg7cDeF+RDtuSf+ysta2e5z2lqleKyLXZbPa63t7eV7exLOns7PyItTb/zH5eVT/v5xIEm2Otjc+ePfsPlVDf0Wj0clX9ejGPq6rlPPsPiURiped5d+fb/2Ie1xhzRU9Pz0CprpsJQCIiqgZ3qeoJZbDgdDUNEF71PO/sfB+pyIfeUUS+qqobZhJlMhl4nvcKgBcAvLHWWbiQmJz0Rqe/CD/gXigiD6hqN++OsUmlUk9Fo9FjVPVaAI0lOIWJAI4TkeMKnfH8PTZQ+BHhNQBvfKY2HkBz4T6rf0sHvlTheyIYDB5XynX/NiedTq+PRqPHquqdAN5dzGMXZnB8pPAPDQ2v5wI8z3tZVV/L/zPGDBbGPs2F++49G4+FfG5DHlTVb4rIg2wBqEze8c91dnYeZa29CcC4Ih9+DxE5CcBJgUBAPc97RlUfA/CYMebZfDusqvl2ON8uT1TVZhFpLvwIs7e1Nv9vww8wG69NXWS/mT179k8rpb4LybiiJgDL/PPfN9r9xap6YJEPW9IdiLkKNhERVbKsqibC4fAnmfxzLxwOzwZQDrvabV+YebV/4d8HC4P3Yv3i/4SI/FBVn+Zd4UYymbxdVU8AUC7rJr2RENp7o/vs/YVEVrmswboql8sdNWvWrFVlXK/5wftRAMpl/dUdRGR3Y8xHARxcqNd8He9SxIkQr1lrvz40NPQEn3wqJ4lE4n4RmZrvS5XqHArJ+11E5AgROUVVu1V1PoDzAfwRwM8L64vGAXwz/wyXehd/EblxcHCwtZxmYW9Ff+7PhYRqsTyXTCbvKPe4GGMWFfmQQyJyeUmv+S3/xwCbQiIiqhAPicgn0ul0V6l20qp28Xg8q6rf3WjmXS0aMMZ8LZlMvsY7wq10On2Zqv4IANfr3LJXAHxh9uzZj5f7iaZSqXuttccDGGS1warqt3p6ev7OUFA5SiaTVwL4AdvhrXygrb3fGPOVcpyFvYX+3DoAVxfxkEsqIUHa3d39dL5Oi3U8Vb2q1P3JNyUARbGGjzURvbWtYgiozDpf61TV6+/v3y+ZTN7NiPirsMuoV8MhODWRSPCzPf/ur/+x1p4IYITR2KznrbWfSaVS91bKCff09FwB4DgmAXFWOp3murRU1lKp1K9U9d9LOROwQtwRCoU+293dvboST15ElhSxr76kUuJSzE+VjTGLS369b/m/V/O5JqI3UaxlEKgsbsXXF3r5fSAQ+GA6nU4vXLiQCYPiDQ76VPW8WrtuEfllKpX6Be8Af/X09PxeVb/GZNEmLQfw6Z6enkcqsN34i4h8pYbr9dxUKvUT3sJUCdLp9O9E5AQA/KJi033Q60XkiEpN/uWNjIxcVqQf215euXLlTZUSlyIm5UaMMZeW/Ho3/j/66/CM8BdYInrTABjLGQUqg47X1ap6YCqV+mZhjSkqsrVr155a2GGzRto++XNjY+MPWfNFG3xepqpTCptw0OseEZFPpVKppyr1AgqfFx4LYH2NvbMWpFKpk/kVBVXY87qk8LxyWbA3uzyXyx1Z6UuBFHZbvq4Ih/rTokWLcpUSl0Qi8TCAYizTcF05JJDflADcuRcDCjzCZ5yI/tmJBfiJJZXSNar6+XQ6/YWenp57GI7SWbhw4Yiq5gcG19bA5V7X2Nj49Xg8zs+hiiidTl8rIgcCeIjRwP+Fw+GDq+EHj1QqdZUx5lAAK2qi36S6IJ1On8LkH1Xo8/oXVf0sgGcYjQ3mh8Ph43p7eweqpH3y/XPXSvr89w0iUoxZgIvL4Vo3tQswB/tE9K8XheBeRoGKLKeqF4nIgalU6vB0On0tQ1Ie0un0+nA4PAXA0iq+zGvC4fBR8Xg8wxovvmQy+Vg4HD4YwG9qNAQjqtqWSqW+UVi0vSokEon7VfUgVb25avtLqioiP2Pyj6rgXX9HMBjcX1WvruEwrFfVb6VSqVOqaaO5urq6S3zefb+/ubm54r4WGRgY8Ds5lwuFQn8qh2t9WwJQBH9hs0dEG9oDwNoRXM1IUJE8D+CnIjI5nU5P5QYf5Skejw/29/d/FcDCKry8CwYHB6cw+VfyeyyTSqX+vbAzZS2tH/eMMeawdDp9TpUmFV5qamr6PIBqXFdztYgck0wmz2Tyj6rBrFmzXl6xYsWXReRnNbhD8N+NMQen0+kLq+3Czj777BcB3OrjIZZWYsK0r6/vPlV92rcxtcgthdiX3NsSgKvXYqmAi/4T0QY3b3cenmMYyC/W2nUALlTVY/r7+yenUqkY1/grfwsXLhxJpVI/EJHvVMnaXjlVPTOVSn27r69viDVcHlKp1MJAILCvql5Z5ZeaAzB3cHBwn0QicWs1X2h+YJhKpb4P4HgAL1XJZf0tEAgckEqlijYzWkS4Zjv5btGiRblkMnmmiHwJwFO10C0FcK6IHFRYF65a+TbbLZvNLq7UoPi5S7K1tmzi8rYE4G7nb/il9VI2eURkFX9gFMgHrwD4naqe0Nzc/K5UKvWtdDp9GXf1rTzJZPK3xpiD8wPgSr0GVX1RRL6YTqd/xpk75ae7u/vJdDr9JRGZCqAafxy4Y3Bw8MBUKjW9r6+vZn6AT6VSi621HxaRP1bwZQwBODubzR7S3d29xZkjjY2Nda4OPDw8zFnKVMx3/dXZbHbfwmzAav2R7F4R+UQqlTqp0jf72BJjzMWq6kd/Z/348eMr9gc7v9YBzMfaWntx2dT/Jk/SogfKTjBRLRNgVVbxW0aCHMgUNo6Iq+ohy5cv3ymVSn07nU7/kZ9aVr5EIvFwOBw+EECkAmcDXqiq+ySTyWtYk2U/AL0oHA5/EEB3lewUvFJVW8Ph8CF9fX331WKd9vT0vJJMJk8ozAZcXknnrqpX5nK5j6RSqdO3dnMAa22jq+M3NDTw3UlFlb/PC7MBPwqgmt6Za1W1bfny5Qclk8k7a6TftlJE7vKh6L9Ucr8+mUze4ccPjSJy5+zZs8tmU53gpv4fJy7A31ZPw6XQDduAE1EN0hx6djwX6xgJ2kYjAB5V1ftE5D5VvXPt2rV3c3ZfdSvsltvT0dFxUSAQSKrq8Zv7kbFMPCwiHclk8krWXkXdZ/l30syurq5kNps9RUROBbB9hV3GYwC6+/v7L2C7+LpUKrU4FotdNjAw0KqqpwPYqYxP9wkR6UqlUtv8qVggEAhba10NKAd451ApJJPJfBt2eCQS+ZyIzMz/9wq9lFW5XK5PVft6e3tfrbV6FJElqnqQ07FjEXYY9nv4W4jLqY5jXVafRQc3X4E4wyi+rII6NnVENfZSAJ7PjsM8RoI2wRbWbXo+/09VnxWRJ1U1/++J5ubmJ6tptzTaNj09PSsAnNDZ2bmvtTamql8VESmbnp3qkwC6m5qazi8kLakCdXd3rwbws1gs1rN+/frvicjJAPYq2xHF67vD3ioicxobG5fE43HLWnyzwntjXiwW+1Umk8kPvtrKLBH4iKrOWrFixe8XLVo0qh00s9ls2Bg3v4vkcjnOAKSSSqfT1wK4NhqNHqSqMwEcU+Y//L0h33+dHQ6Hf15NO62P4r20pDCj3pWhoaGhpZUel1wut9gYc6oPsS4bm00ATpqHB1efhLMh+AmbOKLaYhXf3z6J1xiJ0TPGnG+tva1Sz19ERqy164wxOVXtDwQCa4aGhtY8++yz/aMd/NC/vPvd785lMpmvuypv/PjxZdWJTSQSDwI4vrOz88Oq2qqq3wYwsUSdXBWR/EDl5ytWrFgylvtXRG5T1a87eL5yDso4IX9pLmIUDodfrMTnqPCp0Tn5f57n7Qfg/wE4AcDOZXKKDwD4fSAQ+EMikVjOlm+r67S7tbW1p6WlZQqA76nqlwAESnA6I6p6mTFmQTKZvHasa4QaY3ZwdWKDg4OZMukrdKjqeCfBHhm5q4Jv3QcL6xu7UFH978Jns8d5nvf+XC73zUAgkG+H9y6z0xxU1ctF5MLBwcGl3Oxrw8zrJzzPuxjALo76WndVwzq2K1euvGXy5Mk3AGh2FJcV6XS6rDbQeceOo7YitKYOtwPYj10Soprx64nz8F2GgYhcicViDevXrz9eRI4vfC7UVITD3iMii1X1j6lU6inWQs3cayaTyRwqIl8E8KnCJ04NRTr8GhG5RVVvNsZcVuW7SBZNNBp9n6p+E8AXABzqc30OAbgJwKJgMLh41qxZq1wVHIlEThQRF2sr55YvX17PH+OoXHV0dOwfCAS+aa39iojsXqLTGFDVG0XkD8aYixOJRD9rhmgLCcC8VT/EewNB3Kbl82sqEfnXINw12IDP7pSuuIX8iahCTJs2rb6hoeEzhcH8AQA+DmCsM0hWicjDqvqwtfYmY8x1qVTqBUabYrFYXSaTOVBEPqmqHwWQH4zuMZa1AwuzSp8XkaestU8ZY+4VkZsaGhoe5Oe9/mpvb28MBoOfAnBEoe34AID3jqHIfgD3ALhbVW8EcH06nfalDxSNRmeq6tkOinomlUrtwruBKuSZfa8x5tPGmEMBfBrAh336VHg1gFtE5OZCe3w3l6Qh2uR4f8tePRX7iMXNACYwZERVa1kogE80z8WLDAURFUssFjMDAwPvV9X3A3hP4d9OAOrfMlNwtYisU9V1hf9cZa19uq6u7uFZs2a9zEjStpg2bdr4hoaG3VV1VwCNIjJeVcMi0qCqLQCsMaZfVTOqOigiawr/fVlzc/PT8Xh8kFEsn7o0xuwdCoX2NsaMBzCuUIdNhXZkA1XNtyEvi8grqrp8ZGTk8Tlz5vyjWOfped55AH7goKhbUqnUJ1nzVKHv/PDg4OAeuVxuw48xhRmCuwGYBKCh8El5k4g0Fmb7rgewFkC+zV1X+O8vAHhKRJ7O5XJPBQKBp5PJ5HNj/UyfqBZs9doxa0/GwVZwmQI7MGxEVdcQPKKKIyfOxwpGg4iIiMgtz/NuB3Cwg6IuTKVS32JEiYhoW2319Nvx83GHWBwiwJMMG1EVUdyAHD7J5B8RERGRe62trSEAH3FU3EpGlIiIRmObvr+fsABP2uEN6/X8mqEjqmyiGBbgZy3b4wst525YN4OIiIiIHKuvr98HQKOj4pgAJCKiUQlu6x9MWrhhsdzvvnoyLjKCc/T1hZSJqIIIcKkJIDL+HDzBaBARERH5p6GhweWafdzVnIiIRmXUO/BMmo/LJwzjgwCmy+uLcRJRubN4TBVTWubhWCb/iIiIiIriKBeFqKoGAoG7GE4iIhoNcVHIa63YPhfCGRCcrECAYSUqO6tFkZiwPXolDm6JT0RERFQEsVisOZPJvLLxjsRj8FgqlfoAo0pERKMRdFHIuIXIv9Ta1pyM80UwR4FPMbREpSeAheCCANAxbh5eZkSIiIiIiieTyXzZUfIP1to7GVEiIhot47Kwlvm4t2UePg3BMbBYzvASldS1msPHW/rwnXF9TP4RERFRaUUikaa2trYDa+yyW50N3Iy5g3cRERGNlvhV8DPtaBw3jFMh+LECzQw1UdEe6icBnNYyD4sYDSIiIiq1aDS6t6r+CMC/Axjs7+/fZeHChSO1cN3W2kdFxMmYS0QOTCaTd/OOIiKi0Qj6VfDOvRgAkFj1Q/wuEMIstTgR4l/CkajWCbBeFenV69C92/kYZESIiIioVKZOnRrYbbfdjrbWnmStPXzjJNiECRO+AlT/D5XW2lNcJf8AvLRs2bL7eGcREdFoBf0+wHbn4TkA3+k/CX0QzLXAJxh2IocUKga/G84huuMCvMCAEBERUalEIpEdjTH/qao/VNXJm8l/nQbgog29mCrV0dGxq4h832GRlyxatCjHO4yIiEYrWKwDTViAuxQ4dM0p+LYBEhbYieEnGhsB7rTA9Il9uI3RICIiolLxPO9QACcBOF5V67bwP/9YNBo9NplMXlKt8TDG/NTV5h94fTbhJbzLiIhojPmD4nshgqb6AXgQdAJoYDUQbeODq3hOZcM6f7+VKv71nIiIiMpXJBJpEpFvWWtPMsZ8dFv+VlWfbGpq2jcej1fdsiXRaPQAVb3D4YaL/eFweMd4PD7Mu46IiEYrWIqD7pTGegA/efVH+KUJ4r9V8W1WBdGWCTCggnOGLc7acT7WMSJERERUbG/Z1KPFmG3Pc4nInplMpis/Jqim2MRisYZMJnO+w+Rf3lIm/4iIaKxMKQ8+6Vw809KH74jB50TwAKuD6B06ysBSDeBDE/vQteMCJv+IiIiouDzPO8rzvKuttY8CaAPQMsYiT4tGowdVU4wGBgb+G8CHXJapqv/Lu4+IiMbKlMNJtJyD6yZMwscB/LsAL7FaiN7kXgg+3TIPR0+ci+UMBxEREZXI0QAOd7izbchae0FXV9fEaghONBr9iqpOd1mmtfb+dDr9V956REQ0VqZcTkTisBPn4TcawN4QJETBae5U0wRYBWB6y4s4aGIfbmJEiIiIqJQCgUACQNZpf0dkz1wu98dYLBas5Nh4nrefqv7O9fjKGDObdx4RETl5p5TbCU2cizUT+9BlgH0F+DOriGqNACOiOMcOY4+J8zBXFiHHqBAREVGpdXd3Pw3gQh+KPjyTyfwyFouZSoxLV1fX7gCWAmhyXPTz4XD4D7zziIjIhbJ9yY6fj8db5uEoERwhwMOsKqoRf81ZfLRlPtomLUQ/w0FERERlNXgwJgbAj517vzMwMLBw6tSpgUqKRyQS2SeXy90M4N2uyxaRedz8g4iInL3Dy/0EW/rw1wnDG9YHnA5gDauMqpLFY6qYMnEejthuAR5lQIiIiKgcJRKJ5ara60fZqvpfkydPvqi9vb2xEmIRiUQ+ISI3+JH8A/BCY2NjH+84IiJypSKm2ctCjEych7kmhD1EcY6An0RS1Vi9YZ2/HbDPpPm4nOEgIiKish9AGDMLwAs+Ff+VYDB4Y+Gz2rIdnnie1yYi1wOY5McBVPXMeDy+jncbERE5e3lV4kmvOgkfNAa9AL7IKqQKffCyCvwqKPjxuD68zIgQERFRJfE8byqAP/p4iH5VPSmdTl9YTtcdiUR2FJGFAI718TB3L1++/N8WLVrESQ9EROSMVPLJr56Go2ExB4LdWZVUQa5VYPqkeXiQoSAiIqJK5XneEgDH+XyYS7PZ7Em9vb3PlfJaW1tbQ+PHjz9ZRGIAWnw8VHZwcPCgvr6++3iHERGRS1LpF6Ax1K1ZhR8J8FMFxrNKqYwfticBnNYyD4sYDSIiIqp006dPf3coFHoAwPY+HyojIr0DAwPJvr6+tcW8xlgsVpfJZL4BoAvAB4twyLNSqdQZvLuIiMg1qZYLeeUUvCcAxAT4nlbI2oZUMw/ZelWkWwxmSR+GGBEiIiKqFpFIZAqAy0SkGOOKNQAW5nK5ebNnz37GzwN1dHTsKiInisjJPm3ysSm3hMPhw+LxeJZ3FhERuSbVdkH9p+AABeYocCirl0pKoWLwu+Ecojsu8G2hbCIiIqKSikQiSRHxinjIHIDrAVw4MjJyxZw5c/4x1gJbW1tDjY2NH6urqzsCwFcB7F/kML5kjDkwkUis5B1FRER+kGq8KAWk/xQcr0AKwK6sZirBg3VnTtC2XR9uZzSIiIiomhXWx7tKRA4r0Sk8JCK3qer9IvIIgOcbGxuficfjmY3PcdKkSc3W2qaBgYEdGhsbd1XV/DhhD2vt/saY/QA0lOj8hwEcnkqlbuLdREREfpFqvrjnWxFuDCEqgqgCjaxu8v2BUjynsmGdv9/Khlw0ERERUfVrb2+fFAwGbwfwfkZj66mqish/pFKp3zAaRETkJ6mFi1w1De8LAGerxYmQ2rhmKvqDlFFB30gOZ+24AOsYESIiIqo1M2bM2CsQCNwKYDtGY+uoals6nT6HkSAiIr/VVDJs7ck4OCeYC+BgVj05fIiWagDTJs7FckaDiIiIallbW9uBdXV1VwOYwGhsXmHmn5dKpXoYDSIiKoaamw2nMZg1q3CiAEkF3sVbgMbgXrVom7QANzMURERERK/zPO9QAFcCaGI0NsmKyLRkMrmAoSAiomKp2c9hXzoJzSFBRARdCtTzVqBteGheUeCslhcxTxZt2IWOiIiIiDbied6nAFwKoIXReJO1AL6VSqWWMhRERFRMNb8eXv9J2NManA1gKm8H2sLDMgLFuTmDM7br29B5IyIiIqLN6Ozs/LC19koA72U0NnjKGHNsIpF4mKEgIqJi44YYBWtOwudh0KvAvowGbeJBWSqC6RP68BSjQURERLR1urq6ds/lcksBfLDGQ3FVIBD4Rnd392reFUREVApMAG5EYwiuWYUfCXCWAuMZERLFQ1BMb1mAaxgNIiIiom0Xi8WaM5nMbwAcV4OXPygiP1m2bFl60aJFXDqGiIhKhgnATVh9Mq6E4AuMRE17FcBPW7bDfIkjy3AQERERjV4sFjOvvfbaGYFA4AwAgRq57Lustf/R09PzCO8AIiIqNSYAN4EJwJp+ILIK/Coo+PG4PrzMiBARERG509nZ+Ulr7e8A7FrFlzkE4KfhcDgZj8f5QzIREZUFJgA3gQnAmnWNAu2T5uFBhoKIiIjIH52dnROy2WyfiJwoItU0HrHW2gsAnNHT07OCNU1EROWECcBNYAKw5h6CJwCc3jIPixgNIiIiouJoa2s7sK6u7hwA/1YFl/PXwcHBaF9f332sWSIiKkdMAG4CE4A1c/OvV0W6xWCW9G34VIOIiIiIiigWi5lMJvMfqjpTRPassNPPAbjUWjunp6fnRtYmERGVMyYAN4EJwKq/6S0EFwQNvOa5eJERISIiIiqtWCxm1q9fP0VEZgL4RJmfbr+InC8ivYlEYjlrj4iIKgETgJvABGBVu8MKpm/Xh9sZCiIiIqLyE41GDwDwLVU9AcC7y+GcrLXrjDFXWGsvttZe0tvbO8CaIiKiSsIE4CYwAViVN/qz+vo6f78VQBkRIiIiovI2derUwG677XaYtfaLIvI5AB8HYIp4CitV9RoAFzc1NV0dj8cHWStERFSpmADcBCYAq+oGz6igbySHs3ZcgHWMCBEREVFlam9vnxQKhT6pqh8BkP+3L4A9AQTHWraqvmiMeUxVb89ms7eHQqE7ksnk84w6ERFVCywExEsAAAbPSURBVCYAN4EJwCqgUAgugsKbOB8rGBAiIiKi6tPa2hpqamraMRAIvM8Y8y5V3UlEJqqqqGqLiOTHO0ZVcyIyIiIbfhBW1VUAVorIisbGxhWc3UdERNWOCcBNYAKwwinuUcX0SQtwM4NBRERERERERLXOMARULUTxD1H8oGV7HMTkHxERERERERHR64IMAVU6AUagODdncMZ2fVjLiBARERERERER/QsTgFTRBFgqgukT5uEpRoOIiIiIiIiI6O2YAKSKZIC/5yzaJy7AXxgNIiIiIiIiIqLN4xqAVGleBTB9/HbYdxKTf0REREREREREW8QZgFQRBMgq8KvgME4ftxCvMCJERERERERERFuHCUCqBNdYg+mTzsFDDAURERERERER0bZhApDKlgBPADi9ZR4WMRpERERERERERKPDBCCVHQHWqaJngsEs6cMQI0JERERERERENHpMAFLZEMBCcEHQwGueixcZESIiIiIiIiKisWMCkMqD4gZVTJ+4AH9jMIiIiIiIiIiI3GECkEpKgGcVOL1lPn4rgDIiRERERERERERuGYaASkGADBTx10LYa+I8/IbJPyIiIiIiIiIif3AGIBWXQiG4SBXexPlYwYAQEREREREREfmLCUAqHsU9KmibNA+3MBhERERERERERMXBT4DJd6L4hyh+0LI9DmLyj4iIiIiIiIiouDgDkHwjimEA5+UMztiuD2sZESIiIiIiIiKi4mMCkHwhwFJYtLWci6cZDSIiIiIiIiKi0mECkJwyikdzihkTF+AvjAYRERERERERUekxAUiuvArgp+NfwjxZhBzDQURERERERERUHpgApDERYESBXweHcfq4hXiFESEiIiIiIiIiKi9MANJY/NUatE86Bw8xFERERERERERE5YkJQNpmAjwB4PSWeVjEaBARERERERERlTcmAGlbrBFF9wSDOdKHIYaDiIiIiIiIiKj8MQFIWySAheCCoIHXPBcvMiJERERERERERJWDCUB6Z4obVNA2sQ/3MxhERERERERERJWHCUDaJAGeVeD0lvn4rQDKiBARERERERERVSYmAOlNBMioIrV6Hbp3Ox+DjAgRERERERERUWVjApBep1AILrIGkUnnYCUDQkRERERERERUHZgAJAhwtxVMnzQPtzAaRERERERERETVxTAEtUuA50Xxgwnb4WAm/4iIiIiIiIiIqhNnANYgUQwDOC/bhB9vn8RrjAgRERERERERUfViArDGCLAUFm0t5+JpRoOIiIiIiIiIqPoxAVgjjOJRCNonzMOVjAYRERERERERUe1gArD6vQrgp+NfwjxZhBzDQURERERERERUW5gArFICjEBxrgYRmzgXaxgRIiIiIiIiIqLaxARgdfqrVUyfNB8PMxRERERERERERLWNCcAqIsDjquiYOB9LGQ0iIiIiIiIiIgITgFVjjSi6JxjMkXkYYjiIiIiIiIiIiOgNTABWMAEsBBcERxBpPg8vMSJERERERERERPRWTABWrusVmD6xD/czFEREREREREREtDlMAFYYAZ5R4McT5+E3jAYREREREREREW0JE4AVQoCMKlKr16F7t/MxyIgQEREREREREdHWYAKw3CkUgousQWTSOVjJgBARERERERER0bZgArCMCXC3DaBt0jm4ldEgIiIiIiIiIqLRMAxB+RHgeVH8YMJ2OJjJPyIiIiIiIiIiGgvOACwjohgGcF62CT/ePonXGBEiIiIiIiIiIhorJgDLhABLITi1ZR6WMRpEREREREREROQKE4Cldx8U01vm40aGgoiIiIiIiIiIXGMCsEQEWKXAz1pexDxZhBwjQkREREREREREfmACsMgEGIHiXDuCMyctRD8jQkREREREREREfmICsLj+ahXTJ83HwwwFEREREREREREVAxOARWAUj0LQPmEermQ0iIiIiIiIiIiomAxD8HZi8KKjotaIomv89vgYk39ERERERERERFQKnAG4CQr8fSx/L0AOgoWBIZw5biFeYUSJiIiIiIiIiKhUhCF4u1dPxS7G4mkFAtv8x4rrYDF94rl4gJEkIiIiIiIiIqJSYwJwM9acgnkKnLzVf6B4WoBIy3xczOgREREREREREVG54BqAmzFB0AHFDVv634nFawrMbDH4EJN/RERERERERERUbjgD8B1oK0Jr6nCWANMUaHxL4Kxa/CZbh9N2mIN/MFpERERERERERFSOmADcCv3tmKQjOE4F7wdQD+ApGCydOBfLGR0iIiIiIiIiIiIiIiIiIiIiIiIqCa4BSEREREREREREVMWYACQiIiIiIiIiIqpi/z8AAP//GKlzbzPtpIQAAAAASUVORK5CYII=;" vertex="1" parent="1">
          <mxGeometry x="214" y="310" width="190" height="50" as="geometry"/>
        </mxCell>
        <mxCell id="YulKvY3epux6njUKUD7t-11" value="" style="shape=image;verticalLabelPosition=bottom;labelBackgroundColor=#ffffff;verticalAlign=top;aspect=fixed;imageAspect=0;image=data:image/png,iVBORw0KGgoAAAANSUhEUgAAAggAAAELCAYAAAC8gH5QAAAgAElEQVR4Xux9CZwUxfX/91XPsQfscogIwVsOFTkWPKMJRAXF+1gSz6hRNJf5J1HzS0wkJDHmMvHIJdFoDnOARhEjhxowGlFkF1BUFFQU5ZBrWRZ2d2a63v9T3dMzPb3d092zswtot5+E3e06Xr2qfu9b7716RYievZMDDBr3/XFa4tD9k/E+PRKank4Q6wnieEIT1Fvqcj8ZF30EsA/LTH8B6gtBfZlRA3APgCrB6AmiCkDGmURcgDUGSDGEAGYmBjgDQjuANmZqE4RdEtwqJDczYTMB20hio05iKyRvicXxPjNt5ZTemolxulrEUjtlpj0dr07NOf3uFAi8dzI8ojriQMSBiAMfLw4YyiB69g4OjFswLtZvUz9R3a9aoAkVO/RkP1RhGEv9UEAcCIlhIAwCywOZqRoEEXRkaiE4Nbfzb25lnO1rglol84dM/C6gvUck12gkVrAm18ZT9OaWRGvrwISmH4gDM1gIOW3aNBmUxqhcxIGIAxEHIg50HwcigNB9vA7V09QFU2NLm9dWahWJykx7pjpG2n6QdDgLfSgRDiJJQ5lwAJgrAQhiqO2+YGJBoLLMaxBA4DYohrI9KIogwTD+ZYYUhA3MeI+I3mbgFQ3ybV3gzRjHmhFPt25ar+9aeMX97SA1lOiJOBBxIOJAxIHdyYGyKJLdOYCPSt/1M+q1RGq/6lRNa1/J6CkhhhL0oUziCGaMIeKDAEoEGa+XYrf+7qf4rUVh19J+dbzo8qknGfQBMVaD8AqYl0uNV1WkaKPQePs+8cqmuyfdrdwb0RNxIOJAxIGIA93MgQggdDPD7d1N5anitZnNyUxsS1VGVvSLx/hwCD4NJI6SzHWCkFD7785sp8O6DvzAhZNd9gXUKTpJxTyo1ul9Ai8mwvMpjj1PLel3kjHRdkS/ATunjZ+W2Y3TFXUdcSDiQMSBjxUHIoDQzdN9/sNXD4JGw6TgAzVBn5A6DybCMIY4mIhrWEIDMSHrJih1524flr0Nr5/LwQZn26rNYqChCF3KJaGgURpM7wngHR1YSUxvE+RGlrFXYxm5dubk6dvLQXfURsSBiAMRByIOdORABBC6YVXUz5hSi2o+OCXl/sR0NEEczcRDBaM/A1XFQMDHESAYdgQnuCBkIHk7BK0l5sUArdAFL9Pak+9p+j7rZ06eluqGqYy6iDgQcSDiwMeGAxFA6KKpVkGGK1q2HMZIj2TBY6Dz0QAPYWCAPYgwiAugGImdre/mMrB2/W4WAT+rgNVeULrc4h0CjreViVYS+A0BWsQsF1eIXW/87cy/beuiKY2ajTgQcSDiwMeKAxFAKPN0n/vIFb3iIvFJHXIsQxwHTR4OSQMISJTqoy/ViuBXr9T4Ab92Ayr4UJwvRisJbJVMK0nyqxDiuQRR48bq/isXRjELoXgcFY44EHEg4oCdAxFAKNN6mDTjiv3iieTRQvAIAn8GoCMYsn85YglKVch+9T4qAMFmtWiTzCtB9AoxPR3rqb1wxDP7ropyLZRpkUfNRByIOPCx4kAEEDox3epooq71q+N45lwAZzFwIAFVAMfcmg0aIGiV81PwQUl3tlPMrG/v2+5O8IuTKOZ6COtGCDIuX94wtTKwWbB8VRIerET1k38/586NQdqOykQciDgQcSDiQDatbsSIcBxQQYeZJM4F5HEEGs2EQQz0J8AXGKievJRbZ5SwHyBxmo28chz4Kl4b/U7F7wVE7H2rfoP04TcjgcAWgYl5F4Peg8RaFvQiZeTfHzn/3tf92o/eRxyIOBBx4OPOgciCEHAFKGsBMKhWVu08S+r8eRAPJ0JPZqrwU3hB3ltklBqnYAGPYjv5YkN1U+6doaUYEHKCFT/rgxsdYdwjqqxU2R1BLQRaLUg+m9a0exItW1cf8eoRmcgFEfAjiIpFHIg48LHiQAQQAkx3/Yz6ynRFn3OJ+KuQfLi68IhE8HsOwuzu/cgph7k+CGAJutP3a8tvPH7v/dwhQQCRg0aV/jkForUELGCi3z5y5j0vR5dI+c1E9D7iQMSBjxsHIoDgMePqKsNrG66NbVknzmOSl0DyUUwYCCBpVfFT1qW4Esq5AMupvMvZVimAya3/MFaEjn1SBuAWAq8mTfxNSDHjiCX910fWhHKuwKitiAMRB/ZmDkQAwTF74xZMjfVqercHieRxEDwZ4LNYch8iyt2MWEzxO3e0XQ0SnBPo5RZwAzNBlX4gf7+Dj37gqbMfjZOmEiwJFgmSgVaNsJyF9gctk34O7TUfzJz8q9bO0hjVjzgQcSDiwN7MgQgg5GePvnrXVxMbDksdqut0JrP+NYKR6VALOsFOpViKYg3alyoXNG6g1J12UABhp7nYmN3oKBeQCEJrsTICkBJIC2AR4vzz9LoPn032TO6aOXmmHmZOorIRByIORBz4qHAgAggA6md8vVJU7Dw8Df4CA2cA2A9AQl2I4BUg5/x7ECXsBiDcdr6WInP+61TEQawVxUCL3yL2U7p2+qy2OhPYWKy/YrzwGkcY8GHrWydwG4helKC74636f2fU37uNoiuo/ZZL9D7iQMSBjxgHPtYAQbkTaprX7hujxAQgcz2DRgeZX7vi8VOiXrtr6+9BrABh+ghKfxBF7mUNKDc9QWgOU6aM9LUBPF2w9he9pnL1o+PvaApDR1Q24kDEgYgDezMHPrYAYdz9V1RU94sdHNfpMkH0RQbXZq32HebTz1XgppD8lJRfm04i/NpT5YOUCVOu1IUdlA6vMXrVD8OzIBadYrywWSzaCbSGBf1cS/JDOOWUlpk0OXI7lLo4onoRByIO7DUc+NgBhHELxsX6NA89AZr8rJQ4k4CBYMSUdg2qVNxmt1SlWO6VUoopvpTxdNd4naDAotUr0ZMXP90sNapsEEsKM6uM2buI8SIRHtHa5IMzJ9+3tdxzF7UXcSDiQMSBPYkDHyuAcNm8y6pbd1UfLWPya8x8JhyZDz8KAMFaXJ1V4H71/d6Xa5G7AQS3+A8/wFDMlRNuLLQGJH/AGfHfeHrbmiiIsVwzHbUTcSDiwJ7GgY8FQJg6dWri1VEbT+C4/ikp8VkAQwFoXq6BYjvLcMokP91B6pXiqijX7r9Y39YiCbLbLkZPkHaC8MnLNRHk4yql/Y7t8jooa4Kkx9rS6blPTH5gQ5C+ozIRByIORBzYmzjwkQcI5z9x9SA9w5/TWFzIoBFEXOm3Ay3nBAbduQZRnuWkK0xbQWIC/JR2GMXs5EWxuk4LQzEQE4YGNZ6i5QkMxjpB9Ciz9letbfNLkTUhzKqKykYciDiwp3PgIw0QLnjsmiOZ6XwmXMOQgwhEpVgN/CYxqAKzlI5loSgGHvz6tN6HUXphytr7DwoQiinrMH0HBQhe/AtKrx+PA9K8A4w5ybj2k4qNba8/cOUDbX7tRu8jDkQciDiwN3DgIwkQ6mfM0KR4aqxMyB8T0bFgVPv5qO0K11Lgzl2kUwF6ldvTJj6sdaJcrg4vPoQBVEGBUBBl7saH8oAaZhAtF0wPiUr8euap07fvaWsgoifiQMSBiANhOfCRAwjnPnJFL6ElL2CWnyXCSQxU+DEliHJxAwtWu9bFRnbA4NyBe1kNwtIWVtm7tR90vH60FXtv9eHnAigVjAS1vpQ61hLrrSOJRyXTL5t6vfnuwvELM53hYVQ34kDEgYgDu5MDHxmAMJWniuVz1h8MHd8k5noweoMK0yTblZaXMi9l1+s3gcWUuhdNQRVUOXbAXkrayaOgNDnBlPW7m8XFizdh++oMrV4gyg4A3cbkBIGmlYpaAblGiPiPd4k1M+dMmtPutz6i9xEHIg5EHNgTOfCRAAj1XK/hsT6nZkh+i4iPBlN1WADgpdQs10TQHWuQSS6HFcDqxz6BxS5qKvUEglMJBuFrMV65vQuj3L2AQznnJ8gc2teLfT4NOgjMktcLgen/OuveaUHbi8pFHIg4EHFgT+LAXg8Q1D0KWnVqREpP3cOgIQBXlovBYXax5erT2U4pNDgBiNvv5QAMpY457JiCAqqw7ZZCf9A+GEZ2pbUAZrHM/HzWufe/HzAvUylkRXUiDkQciDhQdg7s1QDh7FlX9xdCfJ7A3wBjX69Uyc5dcJiddhCF0JkyYd0eQfqyWxe8LpsKYgkIstrC0ONHV5D+wpTpTmDkBmLITNTYDkYjIG9qjVctmTPp7sjlEGYSo7IRByIO7DYO7J0AgUHHPnhJz/1rq7+hM38LjkDEoDvOcuzW3WbOT2m6vS+FZq92vNwiYVZZKWPoDADw6y8M7aWWtdNQKj0ebehE1CiYpz7U1jQf0RXSpU5RVC/iQMSBbuTA3ggQqH7WF4dILXOjLvE5Aqr9hLnf+7D8LqW9UuoouorVK2ebXm3ZLRxd4ZYoBRgFma9S+VYqT31pYkiAVxPEN9ICC2afNX2Xb52oQMSBiAMRB3YjB/YqgGCcVHh04wEipv+eGacCEPZdq9Ns7qbcvBRSMQXpbDfofHVG2XjRXoqS7gwdTpBSDutHOeixz4HbMVM/gGDVt+qGza7pXEdBgQ4RGljinlhN/O8zx/+2JehaispFHIg4EHGguzmw1wCE+hn1mojvd1Baa/8Fs5wEooQfs4qZ4J3v7ArZDgj8dtZhafDq19lOsXKdVbB+fbmNKYjCLQW8ePEvjAIOY+Xwmmc3nngBQ/tHU0JqZ2VJWAWJH2c2iodmT5neCpW2OXoiDkQciDiwh3FgrwAIX33iq8l1qdQEFvI2BgYD8AUHdstCuX3ypVob/ABLEEuF3041KHhwAyDOXbkbD8u5fu00uAGCMLv6oOO2jykIv8OONyAAYRA2E9Hd8RT/85/n/+HNsP1E5SMORByIONDVHNjjAcKUe6ZUberHn0EctzPzYHWfQmeYElaRqL786oR9H8Yq4dd2EF6EaaNUC4cfHaXs8ssFUMKM3z6OoPWC8qwDj4h3APQPpNu/PWL5wdumTZsm/fgYvY84EHEg4kB3caBTyrariTxr9pSqOPMVTHQ9IIeAOwcOnPT67Vr9zOpB73dw41NQhelnMfCbA+cuPQzNpSpIP5p21/ugPO8q+jxcE61g+jV0vnfEeQNXT6MIJHQV/6N2Iw5EHAjHgT0WIJz+xFdrKvXWCczilwDv7zesoMqsmLL266OU3aVfm52h269ty/qh/g3q5O5qeoLQ3FVlumpsYUCcW1kiTrGkP8XimZtnTrp/U1eNP2o34kDEgYgDYTiwRwKE+hn1lZmK2glg+jLIOK1gPMUEcWeEfyl1S6lTLnASpp0gyquYlSHMYiqlrBd9YfkbpLxXmSB1i40tCI/91jAxtmvQvp3RtRkjlu8TuRtKWUxRnYgDEQfKyoE9DiBcNu+y6u1tFZdpRDcCfJD9KGNZRx4gtsAu1IPuwC0g42fKD6qUwig1vzb93vvx1w9IdMaE72w7jNXDj+5yzWPQfrwAnHNMdmCRHX8TQXuaUvrUhy/8w6ud6S+qG3Eg4kDEgc5yYI8CCPUzvtSDK1In68BPABoWdHBhd3Be6YfDgAA/2vysHWEUYGcUu59S9xtHOd+XE+yEpaszPOzOvghIgTFTa5fXz5x839awfUflIw5EHIg4UC4O7DkAob5eO+/y3tdB8tch+FB1JV5nHzel4NzllktxdLadICDHrw8vMOBXz8nnsOW95qlYO+Xqw8tiEwaA2ekvZgUpBnC8+itpnMRtgukful799UfPu6Ops99BVD/iQMSBiAOlcKDzWriUXh11VIbExtkfHKgx5gAYQuR/WiGo4PVTvGF2tX5D9evLrX6Y/v3M8GF4EtZawkXDHCkXH+JUtm6KMyidVlt+fA3bXrF5CDMfXuDEnnfD6suP3/YPUZVlYJsgzN4H9MXpUVpmv08veh9xIOJAF3Bg9wMEBp0994tDYhn9VpZ8Ngjxco+zHAqk3DTZlV/QGxe9LARBaTP6YZWjJ3+qgVlCgpFhHRmZgc46dKn+wpDqxuJsEIjCbO4wwGxLlTWuGzBKETQiCBKIiRg0oSFGmvF7hzaMdrvvKfdaKFd7Lu1IZtpGgn8ca226c2Z0wVP3LZKop4gDEQcMDnSnbHZl+fn//vKBkOl7AR7HjJjfvHRGIIc1H9vLB90JetFfbPfvt2sNCgyc7Zi/m0peqXwpdaRkGm2ZlAEGlNJPaglUahWoTfREdaISPeM90CvREz3iVahKViMuEkgoBS80CPWfsJS8CSAkwwAVknWkpY42vR07Uy3YnmpBW6YNO7I/70zvxI7ULqN/RUtCxJHQ4qjQkiZwyBqNisEFt/G5WSjsc9CZ9eK0EARty2+dBaHZmDM2PtD3ifC9rT0H/nXh+GkZv+8jeh9xIOJAxIFycWC3AoSz7zu7Z3zf/X4sma8BkPQzJRcbtNNEG4ZBQQV/EMXj1lYp7YehPwdesjt+y1KQZh3tmVa062lopKEmWY2+yVrsU9kHfSr7YP/q/bBvVV/0Un+r6ouqeCUSWsJQ2AYMyCpuRX9OcZPjuGnW/KGAiGEaV5YEltAVDGBGWk9hR2onmtq248PWzfiwdSu2tm3D+p2bsLWtCZt2bUZLWgEHHXERRzKWRFLEDBqsx8/jFBR8BZmHoGXCAsYg7bquL9Ms87IQ+O3DZ/7h3ujehlK+jKhOxIGIA6VwYLcBhPp/f2k/XcrrJOs3qCubO0O81418pbQZpE4YYe8GesLUd9LjrGsoZsO8z9BZIqWnkNYzqIwnsU+yFz7RcyD277EfDul1AA7sOQj9KvqiOlltgoAsADDBgLcLIQhPipWxaJRsui4UvYrWdj2F93esw4adH+L9HeuxZscH2NDyIda1bkRLapcBShRgUODGdE/ABC2OzooBhBzIsLlVglpkOjtupyWh2LwXsyJlfTfrpJAXNC0Z1LhwWmRJ6OzcBK/PhKnZJfd9MIj8wkmCN12uklOn5tF0udr0auf7398zeRB23MyE76t5/X7YmkApKdFnzNCOqhpWIyplVWxXpmeKZCrBorm1taL5tcnDU+GJ6FyN+hmsvVH7cgV6VFfHtzf1TKRT1Na73/b2De+3vlY/bqe1zncLQKifUZ/IVPa+Dsy/BKD5KUH13qloyynkwyjxzlg5nDtEtykOKn2UslUmfl1msEtvN9wH+1T2wkE1gzC635E4tNeBOKDnIAzssV/OfN+5JdU9tbe3b8dbTe9i9bY1eLPpHaxqegcbd23BLr0VSZFEhQIMFqCxWRn8qAsCyspVxg2U2P+mfnbmybD+VpQGwp+loF/MOmP6ihDJMf1YE703mM807oGFyfV94vE+yV7xHTGOV+qtCcpwJWsURyqBdAWnCLxTZy1TzVpGtDelN8abU6snnZ4Cuhc4jFmyJK69p9dQ74rKNo7Vau1tWvmjt2xLIw1kREwFLKU1Td8h4tUpZHak903Xts05/bDUHgmcACg+YT3ieg8tIVMiEee0lsrIygSLBCoScc6kg0e9pdMgUZUCp7brSa21F5paFo4f7+v2G7dgQUVzW80QFvQ1CDqZpOzDoB3q6ncp6G6N9cUNz83eURLwKOXrnTpVjDnxrCMzkk4RJC4klkOZDbPxYgDzBcmHGk4Zs1bN6e4BCP/+0qiMnpoD0H6W8resAHZB6RSkpfCiM3W8wEDR3V5Iye1sy/N3Vj7pbPAgGLsyrcjoGQys3heDex2MQ2oPQN2+R2JQzUD0TPSEUEGCylHgfyCkMywqe127tUFZGZRF4e3t7+LVLW9iddMavLX9XTSndiKuxVGlVeSsIH7jLDZnQYNEww7Wb26dgNEPHBKoFZB/qdgR/7+/XfK7bWHpicp35MBhT6xK9hjQUplYm+qdidNoCO1wEIYBdAiAfcHoAUKMGcLIUSGwSeq0RQheC0ErSWD5rpTeKHu0tej9+6dWDx7c3tV8HjrruZ5VFYnRJOJTwDgW4N4MmFaEAuTpkGBOIeu5M7PVU/IjW4/AEoQ0E7YA4m3S+Q3BeC7TiuUtyfatq08/Vu089a4ev1/74xYsiK1vHlBZ1f5hBdVUD6O4GKrrchQxDYXAPiTRV7m0GS6Qyq4RnaZpoThBaQI2EuiZDHB/7/e3vb7wyvFtXjSNu39Bxc79aibpGinTyzCAzTg7c550ENYR8wytVb/rpXOPfr+rgWb9jBna6uTA/lRR+VeGOEGtbSMOXbmnlW+YKEPEs9rS+tde27lmU7cChPoZ9Zqs2HeYpMzvwPqJyrDtJRTtS9tvZ+f33imIiwGPUiwExawbbgsnDL0KFKiAQiuuIBlLoGeiB47sMxhH9h2Co/oOQ//qfohppt++e88E+H2qnX+fBwyMlEzhrW3v4tWtbxhWhpVb30ZzagfS2YBL48RE1qrgNO93nhL3Wz2Dug3CzHkxWpnRJIh/nmF592Pn/HFHOcb1cWvj2BdeqNE3i31kXOsNFidB4BQAo5i5H9gMv1F2dIBtgTBZoU7KR0ZMZPj1lM8hI8DvE/AiM72Ugf5fkdS2ypTY9PLEkTvLzdtRC97pRaltNzFwHQE1TKYFVgnSDrLUKd3t52/NAFizTu5jUUMubMXYX1htGyxRp6CMwaur81R8jFKYHzLwvEb0T6nLV5PN7R8smnxCa7nHXqw9BQp27qreR09ovYWkI3XgdGVAANFggONqXtWQVQhVdujmb2q8AczRBist9piNKCC0igT/sjm98c+rJ01yA4Y0Zt6ScyTEA0yoUYuqwBRuNqoivdMg/F3E5A97ih3vBrFKlMrbY+cvHdzOuBHAF0itb+fYzT+kifAf1vGt7gUIs744VEfmjxCoY0ZFwdr08BEHYUQYZeAmqMNaCtyAdzHQ4QnUi6R7zug61H/q+GGcBAb1GICx/UdgWO9D0a+qLw6pPdDYRX9cn7ZMO95qWoM1ze/jhfUNWLrpNYNXMYqZRytJSfLCp8O3kH3tNPc75GhBI2EtEUHXihttXuCZCa/HhHZTHyn/E+VICP4FjJi3vDoeSyur5alSp89A0kgIOhTMmnmLfFYTGoG4ZMTKdDzn5aJNcjtNkqSUBnEjM88i5v+2NldsKaePefS8lz4H1u6BQE2ORrsgtX62s8WxE1bWtiy6yStJo56bpnSABktT5lBD3v9LzBtYiBcZ2v2anlrcsGjHJkzzN8EHn0GXksw0ZGFD3+o2fTBpiXOJcIxkHglQb8vyYYIAly83Z1GxoyBbH34fu8Ea+SpIXrpswjHLnNQdOff5PnGtci6YjzbY5iZorNNbxG3M8s6KON27aPyY1Z3iiUflcQs41qwvv4Cl/IeFVArz2xgrKocRGfyLbgMI9Qu+1CPdkv4tSf4ciIpqtqC7MjsfvBS/l/nY35xrtl5MyXhNohfgsMo73+d/ZyjFl2FpHD/cp6K3YSU4pv9IDO59MPat7me4DkwZ0G1T1xVrtSxtmnPDxgmJlze9jiUbX8aLG5ehub3FsKao45sG6g9wl6Wdm51ZM6XWDcUQ8yt+RpC48+Gzpj8aqu7HtPCxT73SPyP1SyX4LDAfA6DC3Cyp6FzH9rtAT7p8zYZn1gEeOCtclVHU3IVvhsB/QNqTrc1tj648/1iVNttP7BSbHRr+1Cv7xjnzD5Y8zpICrqYDO8kO4FMg1JzK3k1wmTwy6SoWZpEfmSq9gUk8Q5L+1Hxo1YKucrscdP+Cil6Deh0nJC6SwKcJGAzTbU4GzQbtWcLcsE9WkubmMjcGx3hzLhabgSUvMDIgfK+qsuo3/ztxWN6ix0x18xvPZKbpIKhAMJspJjvNDpoIaAbTfTXrmr5TzG1R6iesAEsCyWkg+ornzYc2QUjMb3SXlqHzHr36Mgj8AqB+fgPcEwCCH42dee/2Hbbr7YapvDpWiQHV++KTA8fi8L6DcWjtgahN1nSmu49NXQUUGja+gpc2LMPijcuNXAzV8SrEheYrmcsBEIoBxs5oBs92Cf/OSP2iyNXgvcTHzJ5dhdiAOinEJCK+hkH7BFoMzt2evQu7icmy0Tos1TndA6yDxL0axL97JEc2LhxPvkFtrqOZymLsCUsnZgT9ipiH5hS9U/GZmNndbO61M8nVcTO5Z2MQnIDIrlyt+hbhZj/MLBYLXb81jppnXpw0uLmcgkgBvjbWJ2nMVzH4RPfdeQiztBuAcAAts4hlZbLxCvwXSLp96Wl1y3NjnMpi9AkN1zKLHxGhTweA4DYX5rp6DxlcVtG730uLTti/rG6a4U+90j+up38N4EJ/gKDGJ9d0C0D47MPXHJ2K4+dgnAQVO+fxuClOe9FiwMEAuAEhuh8Aca73cgp+pyLKqORFesqwCPSr6o2TPnEMRuwzDKP3PcrISRA94TigPuD1LRsx951n8Ng7T2FnZheSQiVkShgO086sE+fH4pTD4SgNX9rl+2gipku1mtgzM8f/tiV8ix/tGsqlkJDy03qMrzVkD2AzO7tIAetPzn/ti8ZWzTDVO3z2OR1Z6OJqYjM6/Ff0Njc0XDs2HZrzM2ZodT0HX8YabgH44LwuttHgrXRsC9+M/DJjmmwa3XO3bXMx2Plir+8lUElIYv6PkJlbl+x451lMntz5AMapU8XIT503IC4xWYKvZclDPBP+Wa4iuzskP0Ed4i1yTLIsSgWgwbTZmnyzWY8MIcCzwfSLpRPr/msHCHWfbPyiZPqBARDcQKWNh1YsKDNJoeHveoZuW75o5OuYRpbYCr1knBWGz3qlf7wi/RsQLsi9czORZ4MtmOjtLgcI5z989SAZo4cE0QgGVzqJDqrUrW/UqbyLfRNugMMNKIblvF+7xcZo1d2ZbkWr3m5kLDyqzxAcP7AOh/cZgoN77W8kDIqeznFABXe+snklnln7POa/9xya23egJlljuG6Cuhw6s+t3AxNea7j0kapQOlqlQ3wvpSUenTPp7i6PoC+d1u6tOXp+40BivpKJvgDAVKhuiM6J2N1AglMZuvxu6BSjrWyDhRrY0j3LWGh39Gijx547c0S4UygKIPQadhlDNwGCYwD9G+cAACAASURBVHFa8XY5LhcFOy5S11VR2OYsp+BcYhKK+WFN0/oLWrzimh7YuLJTAXgzZmhjaw4brxNfD6JTAKrMR1C6wAS7Uvby/dm3lUaZLBCwu53c3DS2NcDgB2NCu33JqaOW2gHC6E8tncI6biVWFgRb2x6g0rarV6Ggf9ZS+g0NZ43dXK4vx7AgyNTdBFHvKwNNfr3VpQDh4se/2LudMxcy8Cswqjvrn/VSzM7vtQCsecSGdIbpQQCCGxBRSy8t09iZ3oUeiWocVnsgDu9zGI4bUIeDaw8wzOHRUz4OKJCgkjAtWPs8Fq59Ae+1rDPSO6t8CupAd7EnDHD1asepe8IAhJD9L4hJ+trMc6P8CIrHY5asq5JbNnyDQFcw+NAOkeNe7gM7gHCzIrhNoF0Y5CbcAgmOnaYZ8dAoWf6xaV3fP6658mDP43Ed1tSMGdqoXoMvA3ALeQEEOwjyAkT2Mdg7CQwQQgpUkxU6hHhAtrf/bPniJ1aXet5/9LxGdTLh6yCMh0rLbw88tObOGpNzjoMABINnHgDBHstQ2EeGwLdSosevG8YPzStz5WL45NIpDLqVmA2AkAsMdJ6csNqzrSUCNoHENxpPHfn3ch0d3aMAgjrSqCdqv8WCvgxgoFPgOb+rYvPbWZURRKGXow+vHadaGOqugq1t25GIJXDigLE465BTcGDt/ugZr4pcCZ1lvk99dUz0w12b8ewHL+DeV2YYm6/aZM8OloSQSrlDr27rLOjQivUdqF3m/1btqDzrwUvvLquvNyj9e0q5EQuWDxJSfpMyfBWAmsJjXJbf2G42dzGhuwIBB2IwguBswY3OSXLbIeSZtJWJ/64R39xw6tjtgXhnAQTCLSSzLoac2cCxerwWjPOUQrEjfrn8KTap5uVTs5svnKTk2MsZsHgupscveumM4RsCjTlbSCU74m30Fcn4CjEdYu3GC49k2uC465nPbGP2abTOLXrNlfPvFuiyEc/MSxnaZctPG/VqwZjsAAFsuhjsLo9cW3ZUYAeWBuPWxin+tTaW88txZNYCCADVF4AVO+GF89d1FoTzZ101nqH9nAl1Vvp+PyHYGZNumAXnzY/8m2K7P5d14tq9akOlBm5J70RLe4uR5fCCIafjuAFj0K+yr3EcL3q6hwPKpLa1tQkPvv4wHn3rSVTEK1AVq8imqe4cDV6bzWKt2tdX4YakZFpaCPhShvVHP65Bi0c9/mzvWKL6WyB8ARL7GJwsEPLZX2yCpvDIX4igNi8h4mZRcN+9bgLhvh3pDd/3OENfuBAUQOg5WAV630KUBQhulhCvnVYRwGK8sgBBwU7Zxi9jXLaARecydRu3JSitZojahaCvNZ4y6p7Aq5yZRs1fdgpB3g6mI40Ytg6KxE2zWFrHAXDcOvYCAtkxZc+nuB1pWydY3I2+mdsbxjriSiyAIOlWEuhjdpulxcvE7VA6bCQqwMpYGpcvPqOuIWCInSdr7QAh7worqnW7BiCc+8gVvUiL/x8xrmdCLu7g4wQQ1Fh1ldWmvRk18Sp8etBxOOXAk4yMhyrRUfR0PwcUSPhgx3rMf+cZ/GPV4xCCUB2rDhST4Kfsw4Lbgo1MtvGwbThokkLg5UxGXDLr3Hte637u7uYeFyyIjUn1vERC/ASAkaE1BxDsisomp80dnRV4VgAmVEobM22pUy0wCyZBRhZa8+b0jicGOvTnIvnMVASbBMmvNEwY+5Cv8He6GOzjcNKQnwodROrWNP8IbruCL+CdPVrfoFL9gQAh8ucf7TkUHGN1um2A5bXx3sctHB/MvTLm2SUHyF2xvwJSHU1NduC399g75rBgIc07Ug2G5D+3DiDSEYhYyGvFgRRYLAXoTzLGc5efPOqDDqvfAgiMW40gRfuacAIE53opKEuSCA9Ru35lw1ljd3XmKysECIGEThcABAZdOHvKqRL8GwYOsw+oGECw5tm57p31i70Pwjy37yBIPb9xFOwIiYx8Bptbt+C4/Ubj0mHn4ch9hqEyro5eu+0dw1IQlS+VA0oqt6Zbcf+Kf+Lxd/5jaAHl5rFHJJRjjTjpC7L2/QCCH11Zg/fM9jUVl8+5/uMTsGjcS7BZHJEmMRck98unB/RIMeilDI3seJwh0KsQtITAK4iwXmrclpGgGKNKAw/RQUNI0nDJGEZEcVb3yWSVsDHP2bw8uVg0r927oXv5DS3TXt+weN6rRX3zdoDAlovBxeKRH1sTIG5n4saw34pl17Sfx1R/k5rQNJ1rddLHgHE2g/YHZ9MVZ8fY4WRHgWXBOHHRTsDX27cn7vNLIKXSAr9Ve+jvmOgKAsVNfjozHzqtHLZgVBNNKIAkIegDsFwsQCslYbVk3kEx0Q5kEMuYI7bGq35zO4sqVHKVtJ4WMe3D5rbM2lixi5ZyLobCIMWiYC3Hq6z7KjtcZuwUxL84a0LdD6YpwFfiUwAQ7CAl93OHTJrlBwgXPHbNkQxcy4TrrMXjJxy9xhumXrnL+rXnfG9tJdT9AdvamhDXYjjtwE/hvMMmYVDPAUb0fPTsGRxQIOHDnZvx+FtPYsaqfyOmxVERSxTkVPEDqn7K3A0gONt0WhGCtll8bdIWjcSFD531+4V7Bre7norR/248kGJ8LxOp4DXz8jdvEFCQYjerxJXS2kqSZlMMz+hteEmL6y3qQh6ZEunqnn1kastGau2xQ/TQq5LtrXoFJSurYuCxTPI0yeIMZqhkJfHCjUJ27F4mZXNBpIh4dgaxzxf1M7tZECwfusXigqA9VsmKvlDZo3VBuWYgtSVBFbKHlqlOV+ncNlBCXMQS1wJUDSPlc8dUzc55MA978IsJPT3xxUnHecbLZMHBFxik0gIf5naG3XQPeez2ydDx6pbEF8BYQOA58URsYwbptop4j/a2iho9kdKzM7M2EIvU+BOtKU72Oz7tm88i52KwWRCKJa1yrtlCUKnofF2T+i1L3qXHUMoxWQC+FoSOgqW8AKF+RX0i83bvnzPkdQQKpRHdFa45b36Cs9jOqpgwDfvOq7zVvzq6qALijhswCqce8CmM3W8kquKVkdUg0OfX/YVUbMijq+fib288ZlxsZeadKL7avNap3fXrdA17WRRzcj2k67vYOszuXl/iqsSlj5z861V76i175ZrtMffMrpKHfEL5p7+Qzblf2LRbit3sYTZmVvkI3iNBvxaZyjkbare+d9i89vTCgOmBVf7/rak+yRgywwDxOVbny5k/AYI6S5t/nFn0CoS/oeQ2asBtDfGm38DrdkB7kCKrY5sO37pDCDLRRoZ++fIJY+eXi9cF7TDTiPkvV1WS/HQafD2DPwOmuLeBNL/TZ6KtgnF94/ZV//DKjTD26WXHZDL6fQAdIYiEe2poGwDLB2xKCG4CYSaBH0+37fpfq9ixq9tv3HQ5xWCfMoMbxpzZJq6Y4GDDErJRiPgVDROOKmlODYCQSd0NonrzBEhWuzpFXm59UvkAwtSpU8XyURsPoJhcBOa8DzDg6vTbsbsJ04BNByoWpP9igrk5vRNxCHxm/xNw9YiL0StZG6jfqNDu5UBaT+H2xul4+r3njaOnKgLKD5B6UewEqvbdZKltlrjudwnQc6Jn7IKPegKl0XMaj4egf4PQO/d92s+Ze3/YKjvZ8zEpvvJSGRLSKLDQ0tbjUF1oKlPdpwDkN0iFu8GslTx7H4KlIxjrY5lM3UtnHOMe4W8FKWq4hbIuhtwO2iX4zQAITJcvnzCqJGUS5qsc8/Qrh0o9/Xcwji6o54qmDSuDytfxePv2xMVuboYjVqxIJNalf0nMX8omws4366bMrF0kQ0JgvQa+bXO8+b41471vWQwzvpLK2l0MMGMQCu7OyGGDIoo6vzZMVa4CX5hfqE30/kzQGA477Z4uBqtQR0tX+QDC52ZdNTAjYlN05psB4wpJz7Xitm7CClCXb66keQwCDLwbVh+5xK50Kyq1JK46YjLG7X8CelaoG2ILjI0l0RZV6noOqJ3JKx++hp80/Bbb21uQ1Mw4KK/1W8p6casTpp0wZQ26latX0g6CvPKRc+79V9dzcff1UDev8fcSfJXyUeeo8DLzZJlDRC0sMSOu4aeLt775Vlky/BkSnMXY+S8foUPewMSfI3YJqsuJhfyOWu3mCLyLgVuWnjr6l65WH7cYhAIlk79oyryKQAEEdA9AWLIkLrcIdSPmLOVmKboaTGuKBOh1ncWxbm6V0fMbTwaggk3HuqJ1FyRuYELGaxrRb9BXf6BhbOcC+jq9ol0AQkGkaDG3k9W589Iwc4zbiPi2Zr3mrtWTwl0tXmhBsI3Q28RZHoBQv2JqIvXO+gs15j+yFWlq698+n+VS7Llvo4hROKhgddLkBFRei0VKiV2ZVvStrMWU4RfjU/sfD41MF2j07D0cUIGKs1bNwZ3LHjCsCCqZkptgCrqeio3cKdusdewWM+R8Vwy42MuqPiSzurBqCWfEGY+c//sP957ZCEop0/FPLxrYplf8G8BIs5Yjz4ExYR1mrZnAd+/amfnVyvOO2Vp2FwwzDZ//0qC4iP2IGJOtW2st8vIpdwtXApuXCz1XEcdlL4wfvaYDF1wsCHk9ogBBdgVZ/xguhu6xICg6zMyVdD8TTyhI4WwQWbj9UxhBAh9WpXHM82fUvWsf6/FzV/Rp19r/jyW+AeSFaW4q7cI5z0KdQeoGxK8O3j7qPzMnU+dTOgddhl7lprIY88mlU3R1ikFZEIKYE932lJbv0iYgmLFKMN916MS6382k4GMtAAh2up0K2sonyWXKpHjWjKsPjlXSn8E4sTN8DcLDIELTi4ZSgIqXUlAXK+1M78ShNfvj8sMvxEn7H9eZoUd1dzMH1Fze8MwP8UbTu6hNqpirjleGOL9fL5eh89sLax0Lwgq3b8VlrTYx848ePefe24O0uTeVUSb95kyfr7DUbwIwoIMAdhUmnAHRo0LK6xtOG7u+K8c7Yt7yz2jQf86CRpO0rkPM9mhNVMGCUmYfvC+k/GXjaXV3dAAudoBgZVK0JSiycvlbCXm608WgRnXEjBmJRO+ht4Dld8hAO1lJnVuUHa7O3qKn9HEvn3n0Cvs81D217EyW8gYAny64vyCrKD1yEqwn0PTGiaO/35VzGqpt5ymGHDts14gbY7JppaIxCIVrh0HvZypiJ6z49FHBIiydQYp+Qsmct85bEI5YUZ8Y8k6fm4jlDzwvzXB8F36MDrpTc5YLWs+t/yB1jTIMtOptSIg4jttvFC4Zdh72r1VxSW7wz2+k0fs9hQPq0p2VW97ELxqm44OdG438COqotGf8ToDLwZzWAqelystqEBbg+vBwcUzS1TPPnf7KnsLrctChdqyCeJ5kGma4NJ1RonYlnGU0CfGokPS9JRNHFiilctDToY2pU2OjTzznYrDaCWOkZ2CLbZEQQSfQs1pL6sLF5x+7paBNr0RJDrBh/croXguConX03MbrIOjHAPfOAQRrEM5rlwlb4sBpiyfULcmNc8GC2Oh07e1Q92dIVijdXXMUznULpPxpVartzv+dc2L+uuUumdQQjdrzIGRjEDxBrFMQGOO2SQv7eLN/V5c6EfNvpS7uXn7GqDeDUOZ5isEJWPNWi84BhClLpsQ3vo1hVMGPE3CAH5F+Stjlmy7aZHcCBGutbk/tQL/KPrho6Nk4ceAx6FOZ/Rb8Bh+93+M5oO5uePrdZ3HH0j8aWS5jLtdEeyl5L9Cp/u4GBMK0Y2877DcC0BYiPLbPOlw7/drp4W8R3ENnbcyTSy/WJf+WQLWmzHSej7edhzfd800Mviy2hueVdJtiCXw4fu7zfdqRvJgF3WqkfXbbtdlRpKkY1hDRdY2njprnBAjGbY4Ct8CeSdEyHWRdDLsTIIyc23ClEOJHAA80aHeCNpveM04yZOQZjZPGvGCNc8zsBfvIitp7wTin8PZDB/OtNNdAGhD/TXPqyhUTjwm8ky5hKsNXUQDBflmTMXbnlsHWrNN6UMwnYVlTCBvA9HCKYz9dMdHfkuANEBx0lQsg1M/4Qh89SV9mou8WRO16sNNPKHqxzw9YeOBMt6Ozrn+z1q2XMLfeq9sXd6VacfVRn8Olh58fftFENfZ4DrRn2vDt536K5VteR6+Euq8hbxkKug5LGaRX225/d/uOioge8xgdpU96+KwHVpVC255YZ/S8xvsYdAmBk7lLewqEbJYj+at5/6tR5solpx7zdneOp+7xhsM5QX8CcLSR48c4u2+7w8EuvMyfd5LO0xpPq/tFgZuhw2VN2VVgBDgaCZcKN53dHIOgCK+b23Ala+KHxlHPrDDtMN6sW4RBWzXokxomjn3RYkHdk68cLll/gFTWROdcFtyAmE0kJLGJNL658dQxf+jOOQ3UV0GQIvXJXxHtyExpNeYGEJzXSjs7Npt6H0zTUs2r/vza5Mkq74PnkwcIot61UK6/7Nrizh1zpPMeu248oP+FCQPILkkDcbCwUFcKX3tPfiDFjXSVQKs51YKkiOGq4Z/FGYecjIQIleahBI5EVXYXBxavb8R3/vczVMWrCu7LKKaEg66xPNzI1wjranD2lZXFHdhl201mhMBUma767aPn3dG0u/harn6PnPt8n7ioeJoYowrvWrD1kBO4hjJZB5Z3L31+9s9KvUmwM7SPnt/4AzBfA5AtBXQ+qZALaPgTdNy4dFLdply/PomSdncMQhYgfAWCfsRA/ox3gXncHq/IW5LME144bWwu0+PIJ5dN1Fg+yEBf0/rgcrV0XqG2AJjXD9rn508cubMz89MldXMuBrqV1GVNpnXIZIAbkAXUeDaDFe+4d8HYCy7DclwuZhBPiwWL6xsmjsyBLbcxuZ5icHVv5OapdBfDmHumxA8coN/BEF/0iz0IMgF7KkBQwWqtmVakZAqfHXIGLh52fnQtc5AJ3YvLbG/fju8891O8vu1t9Er2LFjeQdapHwi1g4QggY7FWOkGWtzcEESYx0Lc/sgZ9zy5F0+NQfrIJ5eNJuaHjXwATmbnFUhWHhsF5oDxy6Wn1T21O8ZeN2/5Zxi6CqA7Kde/U+jbFAcRz0sT3/jKqWPzcSPOIEVTMZiuFRddaiZK6r5TDCpIsaL20FuY6FvmVczZkXoBBMZmjfTxSyaaQYrjFrxT0dy+9SIIms65mJIiAAFogpRPsNAeFOo4WcHjlizZ+bfChNKsUBoAwaKNNPHuwdvE+zMnDy+6Iy+6llwTJTluALUwgzmDm8H0dwYPAvM5pHalubiNIrePmm20gnGHRrF7l5w6wtNCVhQg2AeT/6ZKBwjnPPqlE2Ja+xxmUeMVEOkUXkGEqw1nFeW/2/rzcvEFC9js2J2aI3XZkjI7f2nEZTh3yOmo1Cp2h4zplj7zfPLjWHBy9sbgTZUu+7m1L+KHL92FHvFqdVww+IBtJYOu97CNl9Yupwj0Ty2W+ebMSffnd6ZhO98Dyo+as+TzpImfgbGv9y1Eudv8UgT+Xk28z12lJJcpx3BPf+KJ5MZ4/58w05eh8jU4b0y0m5LNzdurgvnbjRPHzM71XzQPgk0ZWz92M0A46vHFh8STsZnMqAsSkMmEjdzUNmb55BOMi45GLVh6EKX5OgDfyo3Z8rUbycuyMskKOCXokNwqiVpzu21rl16QKMv8WnI3QNs+HuPHgiyXSlpJlaK5iYHHW9uqf/jGOcNKC3y0p1q2bnPM7dZtbob8Dj6tMy6PJXgJp+jZ3IVjTkXXwRVhcsvIe0L8102vrv7m+9+Y3Oq2bgMnSspXLh0gXDD72umS5VUEaJ1RJ87djtME25m23ZjkZSZ2Cl0FKNv1duxM7cLnhpyNcw47Ff2r+3+kziqoO0xaM23Ykd5puFDaMymk9BTa9Hbz30wb2vUUVOxFSk9DlzqU8lT1DCBn+D8JmohBI4G4iKEqlkRFrBKVsQrjPgp12kOlMK6IJQ2ffo9ED1TE9nyQtbl1K2747w+xYddmVMVyF5K66otirge/d2HcC16Wh8BKjPEWE7716Nl/eDhwnT2w4Kh5S79NxGqnapiycyZ6K1td7qyfITrfY6Iblk0YPXN3DqVufsO1rG6aZO5lNx8bx/aMibVJOsb7DPrusomjVeyC+Xhd1mSvarNKdKcF4ZPPPdezbWfVpRL4BQhVHa+3tCdxMt6qSxBWtMcTJ742frgyrWPsk8tGZ5i/QeBLnQChMGDRIantrqQOuYxdbtosUCj2S5GcyEFuZGh/04R+R8OpY1UAZDhV1OGyJoemy7pQzL8aTWeIxJS22LaZlenaayXj6wDMWA7nh5/73SZdTOo+0BJ0KffUF7slivIFCPYPxMwfEh4g1M+o19pifc6MxfjnAA+26LcLOqufIBwtbTfUuU/dTWg76VAR7Uppnn3IKfjskLOxb3XfvTIJklp8KoBJjUe5SpTiW7/zQ2xp3YYNOzcZv6uTGWqsKreD+l9K5sGAst5Z/xWCeBV0kl/06iclqFWiKKH+VacASDP+TYiYAR56J2tQm6xBr4pa7FfVD/2q+mJIr4ONv6ldeqk79c6tBvfaChz+dPFv8fT7i7BPRW/PK6Ht68br5zD0lfo9FKuXe8dIQ/CfdCmnPnbOH9eFoWtPKls3v+EOBqYAZCI3ezIkhxwm5kVSihuXTRr9v905htFzGk+GwJ9A+EQuut8QkFmCbXQTsJ0Ebmk4pe4uT4DQQWkUSrXuyoOgTmqkUXGGLvBtAIdbgZgmbikAPaauU5tnYBdJup/e1b9unSgZNeelcSKmqQRJE3NjdhXUWUblrAtZL0uBy8Y203YXR4fdt8N0bxBtBtOxUGeceTMk/pLJxH70ypkjtoVaPx0ua3IsTEvz58bIaWVh0tL6g7HKTM+UTH6NwF9mdfrF7XGuHbOM+hKWSF2/admOd551Zgh1BQhOAGJOnBX/ER4gnDV7SlWc5ItgGsps3l4WBAiEYm7Iwn40eL33EuiCgPU7N2FIr0PwgxO+gUE9B+5VeQ6sKOmU3o53tq/Fqm1v49Utq/Buy/v4cOc2NKW3G9YAkVXeQilydQtBLhFdXvrY5VD+mI5jgrImvY7rwBQRlH2vgw0LRFpPG5daKdBwYM9P4JDa/XFUv8Nx0ieORm2ydo8ACoq+J956Er9Yeh/2qTRjjPzWeRCA4CbzLG56iBDffp0gvdjnQ8CHBHzp4bP/oFIw+w0p5JfYPcVHzVuqIt0vAcj0dVtKwG00xLMF800NE8eu7B7q3HtREfrMmcfAfFhBidwHVhB8libmW2sSzT9daN0nYM+DoBIl5RaNqXHzNvRsaEJX50FgpiMWvlqdTKW/A/CXYAUmFggMl7kx52sTMrhw6aTRz1onNUbNXXIGCfFdMPIZ55wgyMnabCpiA4rYgYCl5Ozlc+vE5cZJtynL990GPfaZpaePWBRq/bje5ujyxVlHH5nTLOjLldWtf110wgmtR8xY0SNZ0z6fhTjekp95hGX5WVwoUq8EXtZl+tyXJx77jr1EMAtCgfsjPEA477FrzgTwoHGuN+QTRDg659Rtrp0C0d6u35ryI1ntitMyjR2pFlx++AW4+PBzPfPz+7W1O97vTO/C61tXGaDAAAdNawwrQUpmDMWrXAGWHFU/k9q5Kymb+9i8qfaTxX7jVel/1X/KmqHcFIoO9bMuJSq0OIb2OQSj+h2J0w4ah94VvXYrUFB0KR7e9OyPoYCNcpWU+wkCOsL06dde9r1OjNsTCe13/zj99x1T+obpcDeUHXPPkrg8SPwZ4Hp7Kt5CBFfAiYdY0o3LTndJX9yN9I+as/QgaDyPQENyMQjZ/s1dtU1xqQteCD/b1Vb145wP3C2TolMQ5kCD4Vvvssua1GVKyXWp44noYmY+C4wBpvJyMNR9984EWkwp/cyGs8ZutmqMmrv0HHXShoHRBTEaHXb9LolF7ILJatDpuzNoyxJYcGTSZREUIH0CSzllcHPdH0OlcLYlShKgPjlrikVHQRyKQUOaKQ8Q1B/qnmo4k3WaAaCyg6XJjd/5sau4m7vatidvtl+G5R6kaHez2ObQ5F84gDDlninxzQN5LkuMs+eidRNMfsLKCQS8tjJh2nFOdSl1lWLYkW7BOQefiguHnIGBPUJfTNltYkctOrUbV5dFrdu5Ac+sfQErtryJN7a9bcQOJGNJVMaS0EhF7GZdAtlz007e+O1+nSAsyNbTDbg565nI33SD7Mq0YVd6Fz5R3R+nHHAizjp0AvpV9dltrp3m1A58V+VE2LzSSIjVlQGXpaxVL/1g0xOuJgICfUACtz585vTfddtiLVNH9StWJFavSz0I5vNApBW3HqhOxT/SnLppdyfSGTl72SdEQn8KRMMsmnOBc/YJM39mYrpdJnDrsvGjzWOpXncxOHZd1nFHt0yKx894vjJTU3VIhtPHIaYdRpIrVNy+69QIkWGF4jMZtSNVNncmQZpk9CPBw5joSJKyEmQIF3crjvturYXAF9UkmucutF1tPeappedKCXXSw7xXw02JFwgUm7J3Ow5Z4PN25B5wgo5iwoyM4d/S2pT4qdvNk57L2hmk2KHPDicaCiwIqt3Dnngi2Ss+8BLFFya5f64vH3qzH30zycyVGZGcZ12I5XmKwZnAKdd+yDwI58+6ajyg/ZkJg/wUSpnkQUEzbkrNWpt+/bnR6wS8aje9qXUr+iRrcNuJ/4dhfQqtgX59dOd7BWSUMn3ug8V4eu3zeG3LKnzYusU4gtk7a6bvmCg4T2GpCqmrx6jsGU2pZiNG4uj+w3HD2OtwcO2Bhjuiux8FWO5s+AP+9dY87N9jgBFjEXS9OZW0Q453GEqx+ejsXHnU/9WIhoE3TJs2zXFErLu5HK6/MUs4rm9u/CsJugAMrTBJUjZTv223yJAzKE03LXVcChSu186XHv3vxgM5QfOIMdScDxOwd0iaZL6URPSLeE2PW188bnBzAUAQuIWUiyHnD3ShTcUEOk4xqLsrtqVrvqCBbmU2rh/Oib+cfnUVsLY/V/6YWAAAIABJREFUOs34RtcORW0/5+8CEIhoReOE0Uc5qR41b+m5BPl9kMhevOXQgk6Fn+Nf9ov0VJqOHbLfVLp+LOL62sS239kBjV8zcAEIRjCt03KQH1cHC4Lqo34Ga2/1arzdPAGjjo9mCXSzrFhEmfPEBH4vo8uJL59+9BvqlW8MQs5zkb38K0yipPr6ek1e3nu6ZL6EgGSQHaQvEz0KOJV5MaFcivD0ar9NT0EZ4M88+GRcNfwi81a/PehRwqQ9047m9h1YsPZ5vLRxOV7etBLtMo3qeGXOFaKCBINY5rpqaF7WCbe58lKc6kPa0taEfSt64+zDJuD8wacbRw6781HBmjPfmI3fLP8L9q3axwi+tD9B1l5YIB0EBLvI3RxZVn37v27fD4H/J/XMmY+e98Belzhp1PyGPxLjUpA6MpgduvNqXOvPzI9D4KbGU8e83p1rx9nXiHkvDdegPQrCoTmrR06gZ49k5nfNKRBu3S+z4adzJk1qzwGEXoMvA+EWkvYYBMfu3dIfNoBw1OPP9k4kKr8roanbJQcSsehgbjfq2VZfHj7kd/O2j7VA2eVwgo/yYuwi4ksbJ4x5pANAMGIQ6Ltg6njrnSvQyAbQuLoxsnQ4PwLrQ3COzVK6OcBTkMyolXT+TOOkuhfNQI+Aj+tlTS7xD/mxuQIE1duYuUsGsBZ7kKUclz2oU0iEwQO7JDX7IWKdmR7nRO8rlo0/uKkgk6Lzbgz72I35NNoI7mK4+PGrx7RJ/B6gsXY+ewEZd/dTflzFhKuXUA1Sp5jwtNax2yxbO3Ll/1b3LAzYw1wL6sjh+y3rMeed/+CF9UuxtmWDcUKgJtHDiCswU3nmzxU4FZldSXgpcLelH0QJWvXClPX7zIx5JEJLapdxyuLcg0/BdSMvM05AdNej1sSidUtw6+JfQwgtUByC4zPtYOL3AkRBeF9qXbd5UU6dmKQTByQqGu6edLephPaSZ/T8xtvBuM44UmcJGg+Bw0QvCilvbDxtjDpbvtuekfOXTBAQ94Nh3lNgLnCbdrd/oWgC45alE+vuzhHsmigp+9bpbzfP95uJkv73yFOjP3nOzxh0FRF6wbpZsthicp4IcOOtR32zavaloU/NMTJjm2D+SbNM/371pONMq4jtGT2v8VMA/g+g080/Z1PzWjrVbRF7jsEBEJz8LrpmbGCNaBuYf5nQU3e96EJz0cXkdlmTc8rtit0RpOhse+TcxUdqIv6AlKgzAJ5T0dl/z1U2LFRpwfzreG36+zu2iKpkPH43ARfmLBnO8OsCPodwMZz/yNXfY01cA3DeF+LzuYURaLk57GRotZeSKvo9gLAr3YZeFT1w/eircPyAMbtNkLh13JLaieWbVuDeV/6BV7a8gZ7JHuidVD5x80MKDmu908p4DdjruwzTp9V2qG88W0lBHrWT397ejKuHT8bnhp7XbZYdxdmVW1bjB4t+hW3pFlSFzN9QTsDUFQtSEH7JKXnXvy64792uaL+r2hw1b+nNBL4R5Ejp66YIGO/owI0vn1a3W3M/jJq/9Gow/4yIeluHR4wYBAsoFCZP+kASfW/5qaPu7wAQlIuBcHDO6d/xlkQzm28WIFRk2l5IaYnnAOTN+q7C0LZa7QvX76N1223YJ95UxhkwHo5lMv/vpTOO2eC2LurmNYxhpm9C0EX5947tp7d5vtD6YayD7OkOSzoWUwxuwoy5jUk8FEfsOy8FuAipw5icpxg6KHCToHxcE6elI0jR3uZhT6xK9og1jSXEHjdyadgfJ1jIfgemC8vQER8w0U3EvJBBdxCjPmcMcYK/wvUYzIJQ/+SU2kybXASmIQC0rvrwnWMuZibvDA123K76UEfaVLDfhUMm4eJh56LSJzFOZ/oOU1flLVi17R38+bWH8fKWlYb/qkei2vSFl6KhHZ13VvkXB115Et3KhVWeKqGTyrHw9bqrcPIB+Yy1YfhZStn3dnyAn7z4G7zR9LaRr8HSQU72Bx1P0HLFQFUYMFdszATewqArtvVcNXfh+IUqg9xe8Yyat/QSEP+SkM2k6LzJsVCQqPPl05J6+92hd4Fl4saIecurNeKfAPJaMMVdP95CobQcwLeXTqyb0wEgaLjFSDHtEJZGdduitACCgNwKhkoSdVCHxWvFybkp+VxbVkZKWwcd/OA2P7+hjwpONLAAPyQz9OWlp4/eXHABlW0MRzy55IAE07XE9B3zz4Vaz7Sgm4Rmx5khYJuyTJQpetjUp5LTENgAyU9w6477lp07brsXzUWXR8FlTehj5Ico2Pw6pCJ1PMXgbH/QjOcr+9YmrxNEtwFI5t576IJ8bAmpcW0B4XIwTwLRV/JtO4Chff444CmGCx+5epyu4RGACpFLmT6gIM0UU0ZB6ju+pwLLpFI+/Sv74ltHfxGH91UYaPc/G3d+iBfXL8W/1/wHr29ZjdqKGiMjYd405E5jGAW0OwFCGA6rLzfDunH09PA+h+G2E7+FmoS6I6Hrn3UtG3Hn0vvwwoZl6FvhvfzD8D0M1WHaDVPWJm7virXxtJmT79sahq7dWXbEvCXHaiT+CeDA3H0EnouZ1GbyEYHM7UsmHL1bkiXVPdlwHDP9CMDJnsDeHnTIeErq4qblk0YtzfHZ6xRDdiLzACGrRLMWBALvJMl/B8G0/Nr5pFyShrXBeYGQw4zrFL5+gXJZhcWENAGLREy7qWH8iMXFFK0CUTEhL5GSf2ceHCh8jJ12lo7szZXbJfC0IMximQ8OUrtXvZTFSZLMkxrcIqR8tfUTFW+/NrwMdzEwbiXKAgR7kGJHGjucYnAbxognlg/ShH4/BJ1imorMSTWXTyFSyMWJmItDV5c6EZBh+50gTsUYFiCcftdXk5UHtX5Rgn5OKooy4FMUlAZsw7mevar5gQcvwan+rvzMKjjxlAM+ia+MvMI4Grg7H5XAaFt7E2a9NR+zVs9HU7rFyORnRTwXUwJ+fHCuBTfgWSA/shX8ypWLX3b63caSkTra9Db88Phv4tgBdeXqtmg7Ktvk9Jf/gqfWPm8kTPJ7wihp53hLtUqEpcnB25WC6LyHz5q+WxMJ+Y3B/n7E/5bvq7VknmKio3JhY7kNZ0fJQ+B3BYs7l2wfeRcmU0n6Iwx9BWWZqW5e47ch6FoGDsjvrh35+C2y1ZFfof01rsVufGn88Lw53i0GIRd7YCVLsj5YzrkY4pxel4GYRaBDcnEPrgFqHTSy+QeX+IZcSYPnLrcLmnVamGh5PMY3V1PvF4Pcg5FNlqRy7NR2BFKOeSVsB/BoIpO6fndZhoquiaksxnxq6RQ9g1sJyN7maKjyrFO4w9HLQABBnUbZnu4ziUj+jCUPNWkwAYI5XSZocA0idRXkNr6aYWx2S5S/i+G8x67+DEA3EJANHimLdbsob51KqlRrulc7dgGp3AsqOv6GMdegrv+IkuVAOSqqQMSn33vOOKGwfNPriGfvMAijdPzoKGdbVl9hQIVd5vjR6nxv3h3RjpMPOAFThl+M2m4IWNy0awv+/NoMPPr2U+hX2Tf7ORZ+A15g2A3k+AG8oCChnPNIgm549wPc1XDt9HTYOdld5cfMbfydTnQlgZPmrtjGkQ6HAoz5+p9o4ysazxmzujtpHjtv+XCdM3+CEKNzdnM3BZ2VzMy8g5i+v/S00b8q2HHPmKHV9Rp8GQO3QB1z9BOKRBsl6PKdmXXP9IzvNx0SFwKoKgiOtCl/Q3EVXHJkgY3svzkAZudeluc2lwIzWiBooQCeRkw+3rjwsbeDXrE9/PFFh8cSifsJdGwBMPESGkRbhJGSevRvu3NOA/WlXAyfWjqFFUAg6mMGkRfJ+kmUZkIuk2KxPgyXFdrHMLT7iegQj2Qn+Sbc4gycf3N2GOQUw9SpU8UrdR/cDNAXQdlsWZ0MIgzCXL+dVdg2TIzV0Seu0v7uyrTi+P1G4xtjpuR8zEHaL3cZlb3xtS1v4leN9+Lt7WtRm1AuBXXMMhtmUqYOy6pYXNZ7MStGsXdBhqfqqwRQB9UMwpdGXI4j9ul6d5DKQvm31/+FmavmGHdHONdSsd+9xus2B2HKBuGVG3grUm/hzmTbmfMn/mVnmLZ3Z9mx8xo/lwGUOTrr9ykOEKDuNwBfVpNonhPqPHsnBjnmybdqWW+6TAK3EVGP/DYvq5kLhJK5dWNgjUbxaxsmHDW/oOuQAMGeB2Hk/GUThJS3gTAchEROGtosEAYpToDgFgRWQFQeIDCgbPRvAvQiKHO/ILGs4dSxapcf+Dly7oo+cWq/j4jODQQQgAwEFgldfrbhtLHrA3fUHQVzQYp0K6nbHIvx1pQqaRL4cjKbatmPxDGzZ1dxctDPmHERwB1Nm3ZA5wUQ3IRXTnAEOOZ43r+uGUIxupPBpwVRLKXu/O3AStEXdBflx0QvQWy1r24obMvswk9O/DbG7jfKr7kue6/SIz/x9tN45K252NLWjKp4RS7uxm8MTqLCzlPQQXm161yHQdvzK+e1JhSQ6hGrwuePuBCnHTzer5lOvzcBwiOYseoJ7JsFCJ1utIsaKDZHPhvOXRri51Fb8tmZk3/lelVsF5FccrOjHlnQS/SofZKZR5qBf6ZZ1ZQfdp+6PVGOeJ4l/79lp49+qeSOA1ZUCZ14c+OXQfgGExWe/LKb7QvbywjQf9IbPjz/5csnFoI1ZwxCDlG6BwgWZFJkpjGPNwzlCu3rUufPk0CyYy4Gj4G5Hnk0VxpLSCFoDQONJOmZuOB5yLRvLNnkz0yjnlr2U0h5HYF6uh7lKwAtKg0ypwTod0m0/mDRaSfsOXE0HU4xuJyqMIGByXifY45uszNi3vJ9CfoUQXwzmNyvyDWad+RfsAe5O1M72C1xfqmWz5t19fkA/cxI7pF9giiggN9QrlixNoPsrEqhyUzt24pDavbHT0769m6zHqjbExe89yweeO1hbNy1xchr4Ex0ZOdnKWMNOx9u5YP0a1fqfhZQ+3qyfnbKTbc2FEBIaklcNOQsXDDkjHIMrWgbCiA8+PpDeGjVvJwFwVkhCG+cc2gqstKfoH0GAQ0MZITgPyR1TPv7OfduLJ2q7qs5bgHHtqeXqhsEVUT2vqYYdJjJHYuMgFZI/itLunnppLpNXUntUXMaj9c03AbQScQqMVGHPPc2k3NOgK8n0G8aJ4z6cYeAvux1z+R0MXggdLfrnkc/0XiEEOJ0FnwMSz4UpDLz2c5JG4slu2LU0URC2ohgNC+KsNiVIhJbieX7ILybIV6BtPwwVlmztmH80NzdCqXydsz8pfXM8pus3Aw2nnVYx8auOGfBWA0Ndy89efTdJZ04KJXYYvUsF4OOW8nMXOl+V0W+jUAxCM4uR85ddqQg+XPYQgAKFGtBhbzFx7tM9o3fdc/1M+oT6WTtt4jo5oIjFQGZ6SfA/N77dRN0Z20vZ/9ZBbypY4RXHHEBPjfsPDPZUDc/Chys3PImbm+cjvdbNqI6VgVNdDxF6gWSOktuV82BpfxKAQzWd+QWG6XaUzkR1MVJFw6ehIuGndtZFvjWN2IQXv0nHn3n6VwMgl+loHy1z2vQOuXq29GOYvd6CG3iI2f+foVfH3vEe2Y6Zv7igzKUeIyZh5s0ObhoV57We+YtBP5Vk+Bfv33KmOayKxRmGv3k0gFENJUZF4O5R0432DdyBbRlfyFepGW0K5ecPtJIjVvwZAGCSqBkpFr2+lAsHeBItWy1dfzcFX3aZGo/rYJ6SykFsdYBp7KukxRSkq5JUjspW0JZoW5Wo8QuFlqzHks35+6KKNOiOHbWC/3Tyfi3mcRXoRICWeZxp0BwgBkCrWTmL9cmtj/fXS6kokMuiEEwTzF0eAqXa0kA4YgZKxLJ2sylIPl9sO2kiiWEc4vPEadjEeOmIPO89Q5SPOfRa48QmvwFOB+c6MaQMILNS1k72/AAxQXdB1E+XrSpNd+qt2Jor0Mw9bivGxfxdPejTk+8sK4Bdy+7H5tat6Eme8bebV/ZGTAUZH6Kte9VP0i7BWvT9/vw+37M98qCUCHiqB9yJiYPPbvLp23Dzg9xz8t/wdNrFwU6xeA25lIAXlD+lpMB6lpk0b79lzMnz+zeSP9ODGL0/MY7wXQdiBNFI+5tfTDQoo4+apr49ZLPjHypbCCBWYydt3wsI/P/pNDOAbjKXA/51OfmvNpcINnFoYL7REx8u/HkUb92ZYcFEJDNg1AgTDtKzK68zbET0xWoat1TDSdBip8w8wk5IGSBPw/AoC4eAPC6AP+J2pv/2HDW+E5bMwIR61XILUjRXrYgvbMp2py3OQbtf8Ty5dVio1QJtD4P5v5OMGKsP5srIX+SwiORZ15geQOE82ddczYL/AaMQUEJ9SsXRtmUIlQL+O8SlGitLXXR8Pa2Zlx55GRcNOwcxLr5IiAFDjbs3IhpL9yJldveRu9kjZEEyJkTMQy//HjvfO+ngPzee/G6XHR4gUllQaiOVeCSYefh7EMnhO0udPkPWjbgzsZ78eLGlz3zIHiC8Gxvfrz0ex+a6BLAmKHICE+0au+fP2fSnL0m9XLdvJfHSOjzibhPgYvBTYBYjBbG9aEqgdAqIv5ZTbxu9sLx1KlEUUcsWNEj0d56MpF2E4BhUEfbcvOfy2iXNzPbAgQBzkDijTTFT1/hlbXPDSCo9j12pnszQPjkcyt7trbu/J6UdD2RlRAoj6RyoMFyMxTcYUHrQPzXOFXesfiUw7eU49spqQ07QLDWgh3HdWy0ZICgPt2jnnz54BhnbmTGtbmMEU7BZPXpFuRnX0tGWItR2R0gXPavG/bdqTVfy4KnkroxLfsUCx70E3J+74NMgrONoG06y7XradTEK/HTk27G/jUDy5SIK8gIzN3Dh7s2457lf8H8tf9Dv4reEELdpWDWdwJkt1aDjtufIhOSmN+Xu0fcDPzKJwQN03c5AI6zDWVBUAmLrhl+ET75iWP8h9jJEu81f4DbFv8abzatQW0yeHKmUvkUpl6YoQUB3ER4L/PhxuGPfeGxHWHa3p1llYm1oldamfO/CWIziYmxlC0x6ditF35g6rf3ieS/wPSXtkTyDWxCKui1vqrvNqyvrO3ZdywEXQeWn2Si/QoEtEPw5ukr8El/AODGpf+b9U/PI4HqFEPPwZexhltgZVJ0BUHmCtqbAYLiUd3jDYdzHH9h0Ggi4w49e8yB+zUWWX4Qc7MkPEua9k+0y7kVLW0ti+qPbwdR991cWuwuBrtCzSUw4JJcDPZvz+BZgp4gYH9WGY+9/LQFgZ62FhQosI4Im1Yud4Bw4eyrx+kqLzZwplXdS8BYAq0UwRakThDBlhUHgYK+1Fn6zW1NOO3AT+HmY6/vdtmmjunNW/Mf3PbS743sjSrmIGiwWqkAyX2QjFQmjTaZRprTRqppZdmwjjoJEohRDPFYHEktjgTFDVr95sztvV8dt/nzmveUnsLg2gPxxZGXY0ifXOxsl83jG1tXY9qiO7C1fbtxY2bQubJ/N2Hq2L8nb9iWH27Q76MYg2xttFWk+Ni/X3jvy13G0C5oeMxjSw6QFdosACOgAgKdQslfeCmkvAOgBykjH9ta1bxwzfjxbcVIVQlrWlK9xkvCRRK4mMCJwgTDjqBEJw3G7+r/pMpw9+y2+PbTi/ZpWRDUbY4KIHTcPRcsir0dIKgbn8Y8uex6CVZ6KH8KxA0ouH0oZFiJdAIvAuNfLGjG0gl167pg+bk36XLds1GwMGOm3aLUaYCg1n7dvMbPQ4jvMvgQ1+vEncLWkRnJMRh3gHDerGuuA6mc2O4XMwVRAkGUQjknq1h/9m9TSolNrVtw8zFfwaRDTi4nCYHaWrllFW569la0ZNrQO6kShhVXH53lo6qvGyYClY5bolVvR0pvN1wa+1T0Qq9kL/SMV6FHogdiWhyakQ5U3U+RNoI4W/4/e9cBH1WV9f/nvplJD6FXRcWKNAF7WdtakAABwbWjEsoqll3Luq5GLLuua+8ELGtBJRJKEMSGiwUbINhFEaR3SJ3JzNzz/e5LJnl5eW0myYh+vN/v+xYzt5577rn/e+4p4UrsDpVhZ6hU/7cCWD7hR4ovoIOGmG+34rN6PUNjUnjhGbdDTM1DAYTT9jkWY/tchKyAbv/VYp+i16cbl+HuTx+BVL5hwt8IIDVlfYx8aWwn3jbjrWt3XjIjIkj8pXjI5Posgi1G3eZruOf06YHMnAP7hCXmg9AuJoQtZZ89yla2+kFmBIloJZiXAPiOiTYKQVWIRsEaZZKkA5hxCAkcxsw9wMrOwOBiFiOuOgtqsxrqe9y82PWuZz/6iEZ+9uGsFY4BhcwAwXwomhbVyouh+SienJYGlHyeLgPiERBdCrCvQTCsWrfWhi6tteOKga8azWiYgZAg3sKsfUaCv2XwWk2j7YhoYRIslY5cN7pR/88Qq1lXnRt+E0QkZVhq1dHN4XT/6hz0K7d9mrJI92zMH6WzYUMX0qY8MdQtyLEffZQWLE//Gzh6DYhqU9+aonaaXYLNy1l/JFkAhJEjtbyLc+4BoJCbgd2TwxRmgNMcvRr3jgrVmxXIwCN/mISOGbp3VFI+RfOqcBUmffQAFm38FF0yOzUITNJcN0Ej3FAHXJSjenAh9W8Vsnn/7G44uPUB2De7K/bP3kc3vFPhpYliGUQNfk9cYxRYFirD5spt2FC5GevKNmJj+Waot/n15ZtRFa3WPUCUHYdPaRhI6G6aVmDB7eAzX/zMC6PCUFeGqzCh78XIO+isFn8aUlE2X1/1Dh5YOkUHUpp6CrL53OZmVc0OIMTDkPbnnbdWGtZnJhIlvTM7j5h0yqQmvcl76735SqkbfVk4Z7SUrNyy662OG0iwRuFt9QE0ABI15dW5E1UqaT01UN2tVR36UgD6ZlFq75rSdotv7Nus1q1BDbtIkxOXntZ/mquhpDFQktIg2KHC2j5/8xqEWtbQtUMpYjYEHQ7J9f4UZoHZ2OivYdIoHawpbQ2kstjTjRrraBgLVW1YpNhTVA031J6EtRVYVJOGJSTxVDhdvPnliX12NuLkuicGulvZxzSKO9GgXb12swAE1dCAzz/3Y7s2TYLzPCVXbARe616cGwOEk58dnZrTzvcUsUJt7p9XwRjvLSfWs1X7bvvR7k6u1OfbQztwxj5/wI1HjteTHyXrUwftorWLMemTh9FW2R1QzbOacZ5GnjHzp5UccjocFCBQt37lxNS3Y0/0bXsYBnTsjYNyDkBABwTON34zXWKaDqVdiHIE2yq244ut30C90f9UugY/l67Fpopt8Pl8yPRlwK+MLnWg0Nguy9i2FTCyAwpKq6G8rFSypj7te7b40oWiIfz36+l4+usidMnoWBeIx6ljr/waz76J9ef2VGHXd4yvvBCMCCszAilnvnDGY6sNxvdeqv7qZXrPXdHanxK9GcxXsgorHLNFiO00q6A/VqO2Epi1N35brYTV5jW+ARv6UX8WTGVg+WT2xtKC9y5zfs7Qq9YCBCLcJmXMzTF2YDV+zvi9AASlNh847/PToj7fE0zcg2ozJBtSGTc23LLcCPXgUP/Z6n0+JmSNPNFgDQ0Ns9IP8ToS9MiSD2Y90Ej7U2ukiCjdrUc6rG1Hz5FgNjir6a/ZAIJq7NgFKw4NUeRtluisg9lanm4wd/Oh0lgYNwYIZ069ok16e3oTRAOcDmI7YWUl8N0kRyJ1rA5W88Fj5gGpbqDRKhQcdQ2O6Xpk0mIfxFTVkz5+UL+upPvTY2FV3UjTAEDYAYq6QurGz2GoCJHKkG9gxz44qevROKztQUjRAjooUf/XHJ9icjUvyYyoDGNb1U78sPNnfL3te3y14wddu6C0F2pDqLgFXr007HguFrfi6E79cNsx1yYF3KkIl3d/8ggWrvsEndKV5tp4Jaynot1F0QrUJUJ7r2AikbYt9sw2JnqsQ2f8s3Dgbyc3Q2weR739SdsIfGezJKUF7dqAJkbUrR/oNmmKY+UshZxjamNTPPfYdb62Qf0/lfEX/ygC4q5Uf1rxhycc6s0g1Bgoqc5I0RQhz8Bwv4cnhtja6TfiXb4TpIzeDqaT6oWikb4mfbdZ+FttUrubSL3hYE1X9jcxZsk/k4/GLftg9rsNQIIXI8XYM1PN2JoVIGDhQt9RkdanhVmlGVfRRg2vAXp/FqduI02JyUiRmSlv1oTu0CLLCJSTCEBIREiZAbvbTcks1Gq3XYOujWOP/Vsl+umY1gb3nfQPtE1vm7T3E3XQ3PXxQ1i0YQk6GvqNd55uGgeVtlppSY7q1Ad/3PdEHNGxt56IKpmfMnb8YecqLN64BF9t+x4/716HEId1WiuQYgQKXm/bavzqmaQ6EsLEfqMx5MAzkzKlncFduHHR3VhVthbZgWxbfmlpgNCUycYLLggIgunTsMDZJbmFlU3p+9eq22fBggyNOtwC4svA6GQE0Jbhe2MFjMDAiTnNC14HHGs9Jsw4si46ITERryKJR7Zv2F242ovmIDa22lDLJGqTNdmhz1jSJ5tASb/WmjRHvwMXfPbHKDQVNVAFxqqxmDYKf+MzgwNAqHOHNRsMxgbZqF2Tk5eJN0jwpHCo8uEvB59Y/9RgDrXcoO3GNgEqamWicRBsaatCVy9YcjUJ8U8w9Jgc+md9z2n4JFND14YahJEfXZfm21V+VDCC9+xo5bTQ8QojYx+Nn+jq5+J0kMajfdgdKsUR7XvhzuOvR5rPOnR1czCyuY2vtn2LGxb9U3+n92s1hm5GvjaWN4Nae/Aao0+NykodoOqN/siOfXB139Fol2F/422JOZrbVNqFNbvX4dNNS/H+hs/0BFQq/oQycFTPD7Fw0na0MM5bgZ6QDKFjejvcdexf0TWr4cWwJeaj+ly182fc8MG/EOKIbqD4a3/x8Hoi+zfGlkS8Xavy9Ssa9ZRyv/tNfke8vrQ7NEwEcAkE2tdNwqwdiN2mjMl0YkLUJJR0pbKVUbH53cFeEK4WEg9KLn952aCT4gv1PH261jf74EuEYJUsnAn5AAAgAElEQVTNcb9GwzAxx+9JgxBbu5pUx60GgegfYFapd1MaXO8d1Nr1oMAQkttq7e3W0koQ60Jc1yi9AIn7l53Vf3kdnxWw6HfMkvEQ4k493bPdhqxfN2UweWVKRujFxccd12z5UI6dvjYt1GrrGwzUaF6MB0yDPxgOpdiYiBoChKGzLttH8/nHs+S/e5UKiQgtq7YTBRfex0nYUrUNIw8chPF9L06KilqNTVndP7r0aZSsXqh7LTQlz4JZK6Laj7BEebgCrQKZuPCQYTih21HomF4vD73Sp6XKqT27K7gL3+74Ee+t+wjLt3yLnaEy/XlbGUf6hb+B0LXiJwU2lHHi+Yfk4pLDR+paiJb+lIGiSqD1wLKn0Sa1NmGgTad2IM6Np41ztSvrdJE1DsetLzd6NajPqBKE0TOGTJnuVm9P/r3fwmU5IiLzWNJlIOoDsHIbqvlih4P+H4abvyfVdC21rAyF6g4Co/qfVUjnzxj0QHkk850fBx0UfyCq6dO1IzIPvhQ+vhXM+zUW9rXcpI9fwRjewsQXLz9jYMOskHvygnkZG7Pos2hFd18wMgGkjWCWKux0zeTrmLj2H7V2VnVZKo2AwOuGswUG9TdxAkq0SOT+zwYd9b+6KRSw6H/80gmS6Y4agGBMGmbgwfrXpyii0StTWoWfb06AoNxF+7+5tD8E/sOSTgLVxzWKsX4jstcBBPFz7J96mRFz8g+XgHXiBwfhWLvFvCyvbZmmCjizsIyNKdauWgelMr6+f76eBTAZ0RPVNl2zey3u+uQRbKjapt9CY9YidjYyTkQ0AwTVRg04yMIpXY/BhT3z0Cql1rOlSavR/JWVrcLa0vX4bPMX+HTTFzpgUHYFmtKqKPfBWvWgFUBQ2pEsfxpuHDgB/Tr01kFWS38K2E1e8RJeXTlXj1fhpsWy0oC58fQeCxAIYYL4d3Hu5Ftbms4t3X6f55dn+DpFzmCQsugeBNY9HGq3oWEFdEFtONQNN626dazbtB4BAjgMxjZiXgDg1WDpT+9+M2pUdUJzLmAx8NjPc6NC+w8YB7kBBAC/gHDJsjP61x9aCXW8Z1bqM295N3+ALpPR8EgwHQwVcbFuOZsTIJgzIdbSowE4pGmCxf1Lzuq7tB4gFIh+xw67nEjeA1BbR4BQA27CBBrbY5d/WtGoXonxiM1S9Vy4MDMQaXsaZPQBIj6grlgDsGwRehhUDxBGTh+pyUDO6Sz4JdYn5P7Z3ZzcayZWwovAbWSHVDtvZX+QHUjDf068Bftmd2txFzk1wyhLFP/wOp79pgh+EbB1k/N6SzRSLZaNcr+srhh18Dno37EPWrvcdBOjevPWUtqALRVb8fmWL7Fy58/4YMPnepwFFVch1aey0Nbc5mI0UeV3V5di9GEjcP6heUnT/AQjIdy6+D4s3bzCE+hyW0M33rWiciJ1zEA5HjuXesGhaomFQX/K2fMHPRr/bbd5WaZZWuv7zvddRSQ4ggROYilPYkI73dlNSQLdy61GcuiPCHXPEMZbX+zfNqtiMPBiQBLhZzC/JWXk02hIzvtq6DFNzpJ5xOwPuiAtfQoYZ9WBHPOTSe3OIdBCjvBly87pv6ZZCLgHNrLfwoWp7arbnRhB9RkgcYxg7g9CegOetzLcUnOx0/64HWp1d5O6glXMdJsmsqcs+WOP3YY9RP3f/LI/EJnJsUBPVjeCWIpy5p+h0bgvTj/irRYh9fSvAkdkV18OQeqJqrOjC11sAIx366Y7cvrIzEhKqwkgujfeATppYeJpy+peaBZwboLYWkAyNlVuxwmdB+C2Y69DpvIiSMIXioTw70+fwOLNy/QUxXoQomboV9GgLFyBnEAmbhg4AUd06JUUjUgzDN2wfxhl4XJ8vHEpPlz/OT7fsgJBXVOQqXuXxAT2juAuHNJ6P9x1/I2esyk2dZyq703lW/SAVtuDu3Xgoj67A9vIt43ktUM9L+O00qh4qdfUMsxYTVEeNHP41G+b2taeUl+9Ye8K5nRjkkcRidMIfDxAh4K4YThTK6K7GcDpzgkqnhZ9S4T/Scbrmj/66ZJTBjZr0qB+by0bSpL/C0L9c0mMOWMHH7AcEo8O+fiIZydNSmJ44V9poY+f/UFWhS/QQ/i1MySJE8E4jpgbqvXrD736UdptLoP2SC9sAH/1/pF1zXxBgi9Y+scBjfaJ8r7g7fSoJIwhJt2osoE2yiBQWNAUKcU/VpzZd0tLkVHlC0mJVF8FqdKQmz6zEAOqITG6HiDMm9g+Eg7ep9RSXgfY1BuOndD10q6XMnU8wYz1FZtxyWF5GNPrgjqB73WeiZZbtWsNblt8vx6PQLn6ObnJxQMcVJroFOHDhYcOw6D9T9Pf8n+rXzAawuaKLXpmy3mr38O68k26AakCVCFZDXWT//vA8Th53xOazUXTjVbKPXPRuo9x96eP6WBSJGDzEO/B7oWfLc8tk2YwHj4y0qGxTKRNIspXzcibMsONXr+13/UwyZG2+0ajkQOI6AToQAGHM6EDS12NEEtBosLq1JK9lkIKu6qI/qQSIeu+YxLE6wliKVguZ6YPmenHg8r6rS0aRc2eFfPoj1dmh3eV3sGEywBSyUFqY5Lp41GhR75j0INZEZ79/qD+8RlC/tYW0jTe3nPfb60FMrsLKY+EJv6gDBlV1Ev93V35jygnkpoDv/44tAIDZnOGun5qCissSCoqPfFqDfxQ1e5Vk+2ejga89XlvKcVjIBwJUFrjpDuk+OdTIcXflyye+T/HaJrNsD5Hvf7JwWGf7yZAjK4N9Wm6l+umuEFi3O/Tqh+r+3H461d0Zylmg9HXLDiMIMpNAJm1KA0AmG1KoMRm7kWoqpaljGB3uBJ/Gzgep+17oh7xLxnf7JXz8fDy55DmS9Nd/OwAkdVYbPhWD/C2uXIHzj84Vw83HGs3GfNpyT6UnYFKYvX6qrdR9ON8vauq6iAuO3wELuw5HOm+5Gh9VL8qjsSDSwpRsvpddEhto58WVjYj8WizYrRzAg5e+dluHYz1jfzjtmetgAIY5STkQ8W5T//m7RCc+FaF861sld7KXxpuq/nRCxRV7/uHEaDyHbRnIAuEgDJVB7ha2RRAYAck1gpNfE+gb8IhXhGNBHdnte9auvi4fZrNAt1u3CogVIo/OjAqovkk6UgQtSHGhqig94n42dQdwS8Wj2o+S/iW3Pct0fbJC9lXVr4kJ+rTMiEiB5HQDgShLyQOgdIsELUBU5ohGqb9FjFsJGLWIFAtmTZrxO9zmP8b2bbtyxWXnFlhOw/lavjex91FJPBnMI1jULauhVDtEqqI+FWN6NnPFu3+CJNOafHopSOZtaUfrWibVS6vJ+KhAA42PTd8I5juLQ+mFX8/5JDyOoCQN3d8L5bRDwnIbolFszsczUKxqULSauwqPkCGLw0Fx16LXu0OTYr9gRqHShM8Z9XbSPen6YZ4loI4TmKXVZcjVQvg3hP/jsPaHhxn7T27uMrzsLFiC9755QO88G2xDn4KT/83OmV08BTFsLlmtzu0G3/93534pXwjMhUwqX0ntOPNluDZps4lUYBQB2QYYRaYPjN3ykVNHctvon5BgejXb1i2Pz2cFQK18gmRKSMyVUCkyCj74NOgCQqzjFZFyFcdQHUFCyoFsHvJ6QOUl0I8OKzJJFHAhgL+AyQiHSRENvl4h4jILYHd1Wv+P4MDM2GP/WhtWkXZjqyAH60jIZmtIZoiNX8KOBogcLw3RaU3kgwqjbDc0pVzVs/34pGiPAkWLO3BQjtWAgM1cBvJslSD+JqFb2HQR2u/OaVXeZOZwmsDBQXiqOOGdw8jeigL6o+o7KEyCnOUv5Isv0oJZCz59PTDdtQ6caowniO1PF/r4fBx3G5NXoVjPLctq5uQee5egYUqtz24CwPa98JfBuaja2Znr2RsUrnSUClufv8erC5fr4MDFcHQiQZO6uPYb+qNXh2if+5zcdI8MZpEhAQrq8BSX2z5Sj+Xj+vS8imdzcNc+MuHmPTJQ8gJtNINS63sYFQdK88FOxDodZ/YkcykB7Qck1fPGLOWz87Oh5g/DgR8579y9lOrE1zKvdWSQQFlbJlkgJKMabV4H7qRapyfXiMxMKhsEoLbqrM0yvBFWYu0T8mofO+U/R2zhsY5uviKM4v2732d3q1qRxqQia3lwfJ1Xy8IGZ859OmOnD4yIFNb3ybBt+jTr+3GCyQ2UthL+bobSgJvp17Us2ZwofrbVLkVFx+ah5GH5Op5EJLxfbntW9z84b26P1XMpdLpVucEENR4le//ZjWPQ4bhkl6jfjdPC3ZrobwX1NdcoaHjWXMV9XLBmg/0RFYilsclgecx43qbAYUdkHACCF4BgFXbXva0mT/Ve7aQ4pbXhk4ujod+e8vupcBeCvw+KFALEK5Li6SU/RdEI5trWl5vTF7KeSljN25lSKQiKF4/YCxO2ueYpIUefmvNIvxnyWT9INf9/B0OGPf5MSrCVeiW2RH3n3QbWqWqsL/xg9/mWtvfazvK/Ghd2QbcsOhuVFRXwe+zTx4X7wFvRTMvgNfcjxPQsALfTVorwjqSVFg8tPDOJrWzt/JeCuylwG+SArqMOn725VkdhLYIjH526n23G6559u6HnjdNhdVTghchGRuPsvhXauI7j/kLDm17UCNbgJZYNXX7fenbmXjpu1k1+Qc8GEWa6dtw3irI0Ab8dUA+/nTosJYY8t42lTErSxR9X4LJX05Ddmq2Idh7wxw8dk8LXng+EUIn0m4i+8Zij++C4PkzB0+9IJFx762zlwJ7KfDbpgApZ43T5lzbIVtUfgVGOzthFC9AaG6yuN3A7UCDes/unNFBN+prrydKavmbd1moHIVfvoR31i1GQPjq1OSJCHp1GIVlNVRMhcLT/o39c/ZtbtLuba+WAsFoFSYtfghLtnylGycavReciOT0dNTst/pmXi3jbmhki0AIMmjZzNzC45q5273N7aXAXgr8BihAJz87OrVT+/T+IRl+G0CaE0CwsjHw8rap6GClmbDTVsTKmw99Lwesuc3tod0Y0P5w3HrMtchJaTEHjQZL/dPO1XhyxQv4fudP8Ne6N3rlhUY0YWBr1XYc32Ugbj/2L0mL4eB1vL+Xckp7oGIf3L9kis6rKqmW8c3fTWvlxMt2/NyctPOyN4xgxW0+dWNjrAv6Uw+fP+hRZbG/99tLgb0U+H9EARr51thW0TDOQ1g+CqKA1wiUTjcjryDDi1bAsyCziVi3pXI7hvX4I8b3uQSZgeT40n+w7hNM/foVbAvu0gMkmT8r9a+dgafK0FgRqcQtA6/ESfsem5RERf+P+L9uqiqnRcFH92P5tu9qgyNZe514pY0XjZtZl2UVhdEMruPpPx6jYYd2twoSx8/InbzSa997y+2lwF4K/D4oQHnF4ztQQN6IKF/NhF8/p20tXZuqmVDNqPTC26p2YOzhf9I9GFKTlOJ51o9v6PYHVdGQJUCI5yZXHq7E/lld8c8TbkLbtPqsob8P9ttzZqFyLtz0wb/0CI6BOINa2c3CDiTEA3qNAMHpOcANhLpR2g6sM7CLSAyamTt5sVsbe3/fS4G9FPh9UYD0FM+a9jgzDVLedF6mF48600t7iZTxMgYVMlelCb5hwFicsu/xSTFQVHN5+suXUfLzO1AeFFYGil7Bj2pra9UO3bXxop4j9IBLe7/mp0BVpAqPf/FfPdRzViDDUUvjZPznhSfdRh8Pb7Rkf/VtUzmF+cLiEVPmuI197+97KbCXAr8vClDunDH7+4WYDsn9ldu5F7Wkm2By+705SOilj2oZAVii4OhrMKBT36T41Ec4gkeWPYP31i4GkaYnHrK63Xm5Rap38YpwBW458ioc3/Uo/V1879f8FPhp12rc89nj2FS5Db5al1QnrYBVgji75wGvozUaOnrhjXiAhNMY7NqJjYcZIQKumDl0ykte5/JbL3f2IxNTUrvJTEoJZnJIpIh0+GVY+DgiiXxRllF/OFXKSDiVK6vKo6GOFVz23GXP/XoBb37rBN87/j2WAjR01sSemgguZKC9IUZS3YCbSxA1lQJGAeoFxKj+lPYgOyUD/zz+JhyYs39Th+CpvgqF/K/PnsAXW7/SVdUCDQGCF2CjOlLlKiJBtA5k4/6TbkHnzE5JDTfsabK/g0Iq9sHsHxfg6a9fhYAKp1u/XlZr5WX9vJRxAiBmgNDUPWgcTzzPFPoYGdUMnjhr6NTC38FyW05hyAc3ZmXs2LlvGNQ1ImQHwbSflNwFRG3BaEUCKcSUwnpoXo4StCCYQwzexYJ2CmAzmFcR8XZJvl98lWkbikY9qELV7v32UuA3TQHKKx5zKnz0ZlOeF+zUrm43oeYWpOaV2B0qQ/esLrjrhBvRJaNjUhZKRTu8Y/FD+Kn0F6T7ap4EzALaLnSvkV6qzK7gbhzS+gDce9ItyA5kJmX8/9862VG1Ew8unaq7NgZ8CtDVOMJ6BaHNSS+v/dqVswISbm0aAYPVfmUgApbXzRr69GPNOddfuS264o3rWpdGy/etjsqBgsWxTNydQF1B3BZMKtyqz0quWfKFyu+oEjgBO8C8jkC/AFjKJD5H2PfDzOGPb/+V57u3+70UsKXAyOnXpfnDwdRAdVVV99XdqydNmlQTxladXcNfH3sBR7mB+rCpNxYva+FVpeqmOXASgNurdqJf+8NwyzFXo0NaOy/DanKZ1aVrcduH92NT1VZPURvtx8+6yvuUrkfj70dfjQx/cjwwmkyA31gD7/7yAR5f/jxUnotEMmO6HcBGcriVdTr4vQAWzweawxo12m96cmP+28ylXe9v6VS0Lc06I6eP1IKpOYcSRc/UoPUHozMR9mdGd/W86rV/d/nIUZDYAuafWOBHinKJzxf5qOic5zZ57aNZyxUUiILbgcVvrkpLj6Z1kmFqnQK0CwtOJZJCk4iGCWGNaSvCgS0RX9WOI4bsUzEJt3Myczz0nD4ycGBm9pH+MPUhiI6sIYworQlRyqIuXYIbCwcWhpuVLg6NKV4R2a37VodlL5boLoTQwLyaKOXjXp+3/cF4iHoZ04DJY/37dYr0JdKOigLqthoVTGv8HH73laHPrEsmnfXxFhSIkQPWd5eEQcyiDxNns6RSIl7pk2Je0bJO36n9TiNKxv2FWd6fiACKR/i5EbEpwtFObapcHE/udjT+MiAfbZKUg+HbHStR8NED2FVdiix/huNN1OnAUKrvTeVbcclhw3F57/N06/pkfFXhKgR8fmjkS0Z3v2ofG8s34dFlz+HzLV8iI5Cuaw+87APzoN1A7K86ydhNoPZ/3RJMmceql2ftTn8o7V9Fox5s8VTGLUWrkSXju0aYr2WOng6IAwRxVm3S3bou4wVYXjQ2rLKrAZsE4f2MtPQbX/jjI2uTqaD606w/71NN1WeDqC+ID45GqbMQCDAjhcA1m1wlsiZEAWVvQpVE2Mag5T5NrBAk33/17MmrWvoAGz5jTDfpE8OI5FXM1EGA0yAoCokKCWwQ4CfLd4deevOSF+xTKzcT84x+tiC1rM2GcVESY8CyA6lMRiqnK6Eckn+WpM1au4nvWzLOG2BRYCMSaDUegq6EAgeMNFY5nwmVgvCpkNrTycx3cnJBga/NkRsvZ4k/EXFfZrTSXxBY5wGVVXKNEPIf6YHqd2lYSf6dxPiH2+0mXtq7qdXjbU+Vt3pLdUpgs6VyG87a7w+4qt9lSQuStHzrN/oTQ3mkUvenT+TAUXONsoTKCHlV30sx5MAz4RfJObA/3rAEizcuQb/2h+O4rgOTBkwS4Yem1nl/3Sd4bPlzKAtXIlVLsUxS5n5bbMiXduChqWO1q+9l33op4zw+ehAR/92/RVX5yY//OTO7W/hUH9E5DB4MUAfEDkbDpJMA8naCaQ5FogW9V3RbG+8NNB7+OXlhgS+rbPs+AtXDBPhIAvowoz0EWoHh5aZRDcZ2ZVMB0PeS+R1NiIUzPi/8AZOURql5v4mPTEzZsH8oXzKrA1TlsG+gzSHlsQ58C9CjxUMKJzdv741ao7zZ+edB4HpIHAHS87XFcJSSEdUS/LNG4rEZuYWuz25Kc9C9G/+JI7gGpBwBanPHx4A7oxyERX7g9leHTPmsheeGC+ZOaF0VlaeQkHcw4wAVHLFRnwxJhCURltfR8Ln5T7HEOKfDt6UHbdW+nWCOR9htD+7AuT3OxmW9zkNmkt7wP930Be7+9DGEoqE6G4RE6BeU1VAv4jcfeRWO6nxEUgwUg5EgnvnqVUz7fg4y/Wk4on1PDOjQGyd0OwYdVJjq2pTVicxnT6vz086f8eJ3M/HBhs+RZcMbdiDXC2iw42lzdMbaC1xdcae2vdxYm0Jnh+euqWlayl3Tznl8TVPaT2rdggIxoveaHhzwXS9BgwXQhoFU4xjsNAZWdIhH7tiCREYIhLcE0Q0zcgu/a2Z60IDJY30HtuN+1T66lAQfy8wHAKRuv5a3C6c51f+ma0B2EmgrMZcwiVeqVqd8Pf/qR0PNNH7KK77icGhiPgjdXNpcD2jj23eRC1rquWHknKv2j3DwCQg6HVxDNzOd1O2fSHxHMpBfPPSxD53GPGL2hD5RCs8RoG5sEUZA39OMahCmRjj9jjlDH97cTHRt2AyD8mZe3J79aX8VwIXM3NVqbg3+xnidhpeMfYWZz2uOQVltOLMAjLcfN7WfnUBVKvrdwd248NBhOP/QvKTFEPhw/Wf492dPIswRpPlSE87iWFZdgS4ZHfCPoyfioNYK6LX8t3LnKjy8bCpW7V6vx4yoiFToOSAOyTkAQw88Ayd2PRo5qUob9dv/Xvq2GEUrX0d1NKyvk9dUyt6Eqj197A55u31iBdy9lE1khWznRnhJMP41Y8iUrxNpN+l1CgrE8P6bTmCSdwA4GhbAIDYmq3DadnSI9++WQIEQJuBlrcp/ZdGoJ5Q6t1k+FfBO+KPnM/NV0A8jTjHfVuPpyAYkVQIoI9BDM4YU3hNPe3ZlR07/c6ZMi4yWzI9YedHF6tWOR4n1VdDksJmDn1a8mKiC1nboeXPHXspR/icRurgcoEGACmcOKbzGiQ55c8bcBaabiOBzHCzx9xzB+Fl5U99rDroa21AapZxdG7uT4PtB+CMAS4M2s2wiYCsNL8l/gxlnWhHDK2p22jhmYea1TScieWlDQqK8ugKX9RyF4QcNQprPi2ataUujuPe9tR/igaVPQ6pHPpeIfLF5WM1nR3AXjmh3GK4dkI/u2W7AumnjrlkjhkpRPeWrlxEKh+BTuQhY/ZWh7BJUyOceOd1xyj7HoU/7w7BfVlek+FN/c6Gfa1I6b8Sdix/Gj7tXewY8TQEGVoe8lSdLU6Wdl32RGKdQsZC4d8awwk8Sq5+0WnT57Mszy/ziyGiUlPr3QOb66LBumh83+jUVIBhkbKlG4lqq2vFK0aiipth10OhnR6eE2gX2CzHfxMBwgLOMwMCrNsSJNo3bUE8PYj5Be7zK51s2f1Di2oQhs8d01AT+DaZLLQFV7R8NsjLCoI99mm9k0TlPNK/Rp7pll1xxKyBuVqDSLJ8b7GOV5hB4w+fPvKjoLHuX1hFzx82SUZkbe6qw82BjUDmDr+ib2+W1SVTvRdCUnVNQUCC+OXxjlkzF5Qy+mkGdCZxiJ2cseCVIw2fnfwzC0U0VTm4TiQdEuLUV22hG8GFuX73hV0dCGN/nApy9/2l14XO9tJ1oGXUbXbDmf5i84iUIBRnjsBswb9CtldtxRvcTMKbXBeic2fIumrtDpXjxu2K8vnohAuRvGFSKa8JWV0SqdI1Cq0Am9m+1D8496Gz0adcTmSr6oNCSkikz0bWJ1SsNlWHe6ncx9etX9ScgP/l0EGT1uR0YiYzF7ZAytum1fzMAsQraFOvXDNi9zIFAb0ii+2blTn7HS/lfq8w5L01onZoRHcfEt0hwprIqM847Ni4zfeI5+L2UdSuj/8603cc4pWhY4VeJ3oRzS8a20yRdSOAbGLITqchsNp8Vj3gpawA1DYozOArQDgFxZ4TDz80Z+kxZIus+fMbYztEAP6IxzvUCmtU8JBARxNMzAjljXzjzvmYzWhw7eax/W+fonRJ0PYE0N5oRsFBDcHTRkBeUW6vlN6xk7AIh+XSmersKy4shUYiY89ttpFcKPRo/OtF75PSCgJay4/AgVU0i4I/MlBqzfvAqV5i4gvLm5K8goHds05gPXfMgrESp1w7jYSA3Qer2e0RGwRzFlX0uxmn7nZSUMMsqZO+8VQvxzNfT9YA7yrDQSoXpRIcYLTdXbsPwHmfhop7D0TG95V00V+78Cc9+XYTPN3/lkNSKdc1IREagkhtl+zPRr31P5B14Ng5svR/S/emWkSPjWfeWLKvWQuVcmLziRawuW48sf6YtOEgWYIj147SHWmJ/2Ql+G/ovFCTum5E7eV5Lrk9T2laW4mF/zjDS8LxSoTaFZrrejMFCP4tIMtUa5tW6PXCN8CFi1lExM4S6EMQJvkJEeLhKS70tkRv4yQtP9rWtPHQiR6N3cs18KZ5LntPh5wZwYrxTg3Pwi2A807YL3Vc4sFA9QcT1KYAgA/JBYnJ85jaPiQi/ENNDqzcueWzJuCXN4v6oq+IrN91BEXk9CH4zjSzW913y8aXFg6aus5v0iDn585SG3gNAqGJJYzts4lebChCUl0K7I9cfK1kUArwfc0PbG88LJGg9DZ8zZiWDDvRcyVDQEgk5NJTopnWrZ8Xs6hATTLj6iNH4w77HJUUVXhYqw9xVb+HF7+fo2gNfbZhlr+/bRtIpD4yLDxuGEQcNRrskJGn6aP1n+O83r2FV6Vpboz3z0oai1agI13hrHNqmB07pegwGdu6nB3VKqw0SlQhftVQdFbb6yeXPo/jHBeiY0UG/XXq4JTTQL8TDi/HMw0kox3nwxNNtg7J2WgYCPhRCPPDa4MnFCTfeghWVYG9btuEQJqjn0kbvcebLhBWtiRCWjCoCQkwoJSqhb6EAACAASURBVNBqYl7NoE3EKCWBCiYZVk8WIizSo36ka4I7sdTd1g5moCMB6eqw9jJVZZnP4PXVwt/39cFP7vRSJ1ZGZeCVQVwkJe4GcYsaBbkDV6Vpp+2C8HxZIHjbm2fG54ZoBghOFz/jWHTPTMYq4RN/mnHO5M/joZ9dWcVHbSo33YGIvN6cuLARQKlR+7gChLw5+fOoFiBY8l3tYBhUBeb89ptoesIAgZnyZk5oT77oucy4mYm7ksFrwk12megSAfNkpUFYR0DXeNCnHYHthK3bwNyZsKZHL8g2NrawjOhq7+v6XY4Tuh2VFICwM7hTD9tb9ON8Paa/OQ+D1/GrG8yOql24otdI5B5wBlqn5jQH/zu2oYDNy9+XYFvldmQEMhzLGjexUuIqoFBaXQYVU6dHdncM3v9UDO5xBlKTYPcRD2GUZ8nMlfN1L40IR3XXxj39c9s7xvHbCaB497bFzekTAj88Y8jUl/dEeuUVjzlM+OkZyTjSHBHWkX7qaBNcwUwbwPhKCF5MLJaT5lsRz/t2XvGVbX2B6uMl82lS0hAQ7wPYq/uNNPRR9Lii3Gc8Z8pUwYR6pre5Oir5VoCzE13/eHnFDUgD2M3MN+bsiDwfT14KrxoES75TMSZIfODzhc8tGvTs1qbyZsHCAt/XlZvuiNZqENzaI+BduGgQFECAsvEzPDGY16zmAtA0gJBbMjadpHagj6L/ZvDxALLcxm/7O6GUmf4nNP9EGjY7fzMROrg1ZoOg3Ko5HuxeKsfTr7FsWIbhFxquPWIMTuh6VFISNSm7geKV8zFr1Zu6gaKodQt00iBYbVRlHLgrVIrxvc7DWfufhlZJ8ByY/kMJZqycj9Lqct2q3+kzj1lyVI/bUF5dCfW0c+GhQ3Bpz5FI2wOzTyoANPfnt/Hid7N0gKACUNnZIMRo4PWQ9gIAnW5IXvaDuYzFYW7pkeGlX6u9pvqTethgfnh27lSlvt+jvgGTB/j363zEjZKpQKmF4xhcNcCbGeJ/xNGXIpu0Ramtd4aKvu7JiUSMrDEI+yYlmpFzLkv+C5j62EVnNNJZCFwxY/CUZ7yO+5wF43v5Q9G3qSYaX6MvUXnpxFdexwbwG8Ty3uKhzyhLfE+4NFGAEJsng0rBfI8/vc0TRX/8927vY21cMqZB4BYGCNZygqo05vw2CWgQzp43MTs1XH06hLwMDJWV2TEqqK0800OG6waoc6My7eYjhuRspbw5Y3cB9Woqr8IwUeHpAYnGdTjZbZJqGdYPABVF8ehO/XWjwZb+NlZsQdHKeXjj54VI8QXqjPbipal6AFWRGMf3vgBn7ncKWqU0uCi0yDSmfVuMmT8tQEW4Cqk2AKExMJCojlbr4+mc0QH9O/TSvRx6tOqOlD1Me2Ak2rbgDjy69Fl8sukL+DQfUkTNueLFSEqVszps415jw4Dc9kQ8bbuVTeR3AlYA8tHiIU9PbRHma0Kjw+fkH8nALKDGLc2jXPqGQG8y+J32XahZferHfj7Wv3UDjhbgyRLo6TY1AdwxY8iUArdy6rU/7/UJhxPLOyVjcF0URAfNqmWbRKUAbyVJ20BcyiAVPc8PcAaIOoC5k9ENzo1fTH1ECHhf+ih/1qDCn1znBMArQDDuuUZjIlrF4GcztNRHXhr0aKmXfq3KxAsQEOcTg/O44gcIFy+4OKMymNKDBY1kxmUA9NgGxj1gJdds9kkpgeczYYGvKlAUc8GlvJKxZWCuywTkxBBWv3lloFg5N2EYE8B2xpBeJqzKhGQImb50XD9gPAZ06pMUC/v15Zvw2g9zsWDNIv2AjNlQe6VRbOF0DYICCL0uwFn7JxMgvInySBXSbFTvxnkojUEoEtSDJw3s2BsndzsGR3ZS9geJa7YS3diJ1Pt041K89N0sfL1jpW5zYRVm2UkjULdWtf/woj0wj9MIWb1omRLRAlj16RRu2XKPM74GJSWKXdxLOXx2/r8ZKkpdwwiBVrStaZzXAuLBzF1VhS+0UNhe9eRAvtA9DBrjTn++v3jI1OvdJn7xguszKsJldzHLi8BoYLXsTb7QdpbYqAl8wUTfaJDfRZk3+iGqo9KXKn3cjmW4N4D+unsosD+BMs3Gj259MVAJ5uszytJeeuki98O6WQBCDUj6TgPlb83q/PF7p0yKuNHTDiAYjRQ9tOHJBsHpiaH+MKcqjsMGQTfKTW19GojPA9O5ZHpuip2j3s5L3iWBj1KjkSsPyem+bpKBfpRXkl8Bdrf6bcrBboNYGtkUuAlAN+Y09qPc8VoHsnDDwPHo27GXh7VuepF1ZRtQ9MNcvPXLB3UAIZ5DxggQdoZ2Ib/XeThn/z969tVvygzUuF9bOQ8qA2aGP81WP6jcHVXERSmj6NnmQP355tR9T0Dr1FZJAWFNmaOxrmSJjzcuwRPLX8C2qp0JBdLywo/mMnY8Hi8wt6OD2x4yCw4vcwDjGwg8OjN3ylPNRf/maGf0zGtzSn2V85j5WCs6W1wylhPwUJhoeklu/Bb3Xsd89ryJKSnR4D9UCHvXOkT/mZlbeKNbuXPnThgZiYYfIqIu8YBRBspA+EAQv6mFfR/hi+1fFN0+PWyK+FujPru9gC7vvzajCmL/kKAhEjgBEkcRQWW31D8vfErgz5n53uIhU18jcnauiAcguF4aGa9JxoOzh035yI2eXgCCB55qNoAArzYIzDS8+LpOnFLxB0gUAHyIXUAs85ndCCzUpJ5ZxZJflEDxnKFTVzQCtDGAkAhBvTBNU9ptSt1gJIQ2qdm4ceAE9GnvqulrSld1ddeWrsf0H+bi7bUf1gZmMt5j4utC2TNc2nM48g4ahLZJSDT1xur3MO27mdhUsU2Pa9CIUUAIRkO61qB1Siv079gLww8cpAdPiifeQ3xUaNnSleEqzFj5Ol7+fo5u0KqiR+6pn6eDvOUG/w1IPDozd/IeAxDUDUqm5gyT4PsBUtkYHT8GSiXj+pQQTS8aVej4Vj164ejU0oq0LhQNtWHSlDtjKAy5rc0OucOLAZ6KDhhJC08C4y9uMpIItxbnTrnLafAjp49tFU3j16TEySq8il3ZRgcaYx0Ic1j4H2u/PvJjPNbxCuSkV1YdEg3gEoDyCfD+zqkfPPxCmMWtc4cU2sYIUPPwChDc6Fj7eyUIr/iYJhW59OsEEISFF4NVea9GijEvBmcO9WCkWFAghh6x6VBBciIJPoOZmhJiVz3FLJMy+kyGL6Vkmo0nja5BIK5xzbEKsOJxYdz2p+Xvbmg0NiabxXGMMVAVCaFDag6uHzgevdsfltD44q30S+k6TP++BO+sXYw0v7KQtwcIbje9zZVbcd7B5+D8Q/LQPr1tvEOJu7yKD6DiIHy38ydd5R5bG/VMojxCVNwDFY3y6E79cNo+x+OgnAPQIaPl4zPEPZE4K2yu2IIHlk7FF9u+QbqW3uhipZqzQuLG/WLk06Ye5E2pb6fls9NixEjlak3G+EYIPDpjD9Ig6AdYJPgKA6dzTbY9Jxmj7FDfCAstf27uU+utD4eTfR2rDu5eHeVjBGFAVPKBRJQFVpbGMkygnSzxCyBX+KRYHvTRDyWDC6usEoAOnzemG6J4BEx5TjJM/aZpvstfO+fJZ53YdkTJuEFRls8IoKPrWtUwLBMrA0zfvRzFzFl5T62Oc1vUFR+64M/7iFD1nwG6xGznYWyzEd8qcALcMHPolFedDBbdAEK9HPJo9UjYLBl3dOxCU+LN1xCLg2AHECz2ZtI0CMreIBT0HxUmoUDnGQAFEl1TACpj5wMUpbmVgbVfzB803zavRiMbhCZ02qCqlycJOwazU+1YHap2ZRVAaJ/aCjcMnJBUgPDq9yV41wNAcNxcAJQG4ez9/qAnmuqc0fKRFLdX7cR/v30Nb65epAMBQRpUrlUVYVEZTfZt11N3X+zXsVdS4jI0Fx96aWfR2sV4YNlURHUn95oLmhX/GoWVGSC4HQTmNp3G5QYe3eq6HSJOzxxWoIH2QBuEvNfzD0aU3gZYxT2wROL1f6RPQPRg8eDJ060OdBVBb0dnXCqBcQx0ZuaOwjp2fjURtjPTFgj6RhBKZIjemTn8KeViV0f2YSXjjxKIFoMbu4+b5ZUm/Me/NvgJW5X4hfMmZgdl6HYp+eqYC6cbiCSiVYB8oUqremD+oJcSNtqL8cLI6Ve0kWni4ijjbgIaqRdtZDBLwuRAFf3NSWPjBhBcgJ/1mSPoywDTxa/mTl7uZf/HypgDJTn1Xbvf4wIIVutWvxftjRSHLRydQ2X+6wBxHkEexC5eCrZzJpVhmn5kGX2yujz47OsXTnONv9HIiyEegnot68bQdgI51n48YCNWVgGEdrUAQeUOSMZXo0GYi3fWfuSqQXADCOrAPqZTX1x1xOXYJ6uBgXaLTEUFlpr/80I8+/V0Payy8k5QoZVVwqhjO/XHH/Y5Fge26u4aI6FFBtfCje4M7sLkL1/EG6sXISeQDSEaegnZ3cATjZLZwtPx1LyTsDKDnT3RiyFvdv6FIDwO6Lns7T9mlbr4PoqKx4pHFG40Fzz52dGpbdsFJkrwBWD080S8GoGlQgv/ANBXxNF3IsyzVLhhPbcA0Thlf2AOtmNqW0nrnVGZ0nvO0Mc22PU7cs74U6McvZkJp1vJw0b1FHhhPCM0emZG7uSVnufjUnDknLH7RohvhsRFIHuNjenE/gJhnDdz+JQf7JpvToBQ3wdXC9ALvij969U8b94Uqm5LAAQVSVHWxkGIFyCoZ7RIas4JIAwh0DCVndPLWWpNaz009rtC8PP+aOq7rzjwXIOzKa82DoLbrcMroyVy+3EmnHvPVvV1G4SUWhuEDkmyQShbrwOEt3/50BEgeJlvWXU59snoiL8ffTUObL2/OxGaoYR61nh42dN4Y/X/0DWjEwbtfzJO2/cEdMnoZGmX0Axd7jFNbKrYgusX3YlNFduRlVLzxOJJIJtmkPgGrmnIjjfc9qfXevGML1aW98A4CCPm5D8bBc4nNPResGCo5WC+YebQqW+Zf1Oag+1deCIz/R3gtm40tmJWBksi2grGZ37JT0aF1kpCqkRRbez4R+ctPXIjl/iDWRcVjXrQNmFTXkn+/cqFjVBvKGi7aWr82J/xVfFNRaOe3tHcm2vI7Ku6aBR8AqCzYEF3C94KkhQXhzWeZ2cU6gUgeOVZ49lDhCAYL5UGd/317VFFnuIjmJ8YzGeZxThcNQhGgGC1HkYNgmAa27Y21HINOGhzPVjmE6Gbyv2nPPUTiMqrooZvBNOTkNqL/vD2tUWjipRrq6dPj6QY85+MEcDqkE9kkcwjsGsj3rZVu2ZXLfPfVHS/HH8mrh84DkfoXgxGke+JNnEXWlu2ocZI8ZcP4jJStNKQqPGnkIabj7oKAzv1g0o809Kfcl2c/eMbeOeX9/X8CgM69tFjMKiAT7/3T3k1vL7qbTy+/Hn4NT8Cwu95M5rXz8yLXmlnpalwsgvyAmC87q0YOLEaOwF7VCTFsx+ZmJK2X/B/zDjKzXWGQDNkFDfNsrhJ5hWP7wUtMgOEgxJJjWykLQMqt8I6ltCIsJ/rmjNVAXxNn+wuzxrdyoz1LnxxYnZFdtWLAnSOnVq5wfoyb2Qh/jwrt1DFhWj2r4ALxFezNx4pNTkLTCpegtsXJU3cq1XQ40WjrG0/vAAEp04c+ZtV0B+6Koro616SSblpEBIBCLFIikQQjgCUoOwArvBV7XrFl9KlXYiqrgTkaAnqplxNjdLfa7wWnW6E7yDE3yKSPyzJLdzuNYBVnWxpSi6GmFDxmsDJSpDaCCTXoDVWh6qRkdQBm+FXcRDG4shOfd3kiBuje/p9fflGFP3wOhaseR+ptYGSnBjY6dYnpcTu6lJM7DcaQ3qckTRPgapIEEr7ojwZYu/xnib/Oyikkm0VrngRs356W3fbTPTzeihbAfF4+2zuvqxACvawXAwjXrv6oGigch6BDrSjYe08okS4X6vqcmvRqEk1Eb1qP3VDi6bl/FcynWcMOmQn05oDBMba0LMXCKwhjU9wSvSjQkizhueJaKArXxDCAC3KDGQPbc4Mh+Z+a2+20wA5ykn+18h1lcuJFkJo18wc/JTKWtnocwIIbrztZf8Q0SYCXSGqdrxdNKqoAQ+YB6MAQjuHUMsWZ46rBsEYatk83gaHvsr/ERVjWcN3QLSQmA5j9ZSjHqIS+qiSBM/UiP7deh2+i8eDxdidns0RgAqQkfDnhG68NOrGCE5txOqa21ChlgMioEdSPLaziqTY8rdgFUnxtZWv65EUA4ZASQ0I7gDhjHNQdgAby7fg/INzMb7fxb+JvAFe1npPL7O9ageufe92bApuR5bPOSdFbC5eBJWbMG0pujTH3gKwR2VzHDZn7BkEVuGJG0SOa7TPmLYLTdw6Y/BTTxp/U2GRvxyw5ShGRLXhaqBkR0Mr2WMnj4zrzypdMfgxLStwa9EpT5Tbrf25cyecGOXIs2D0sCrTYFyEdWA83Ce3ywOTaJJsKX5S7Q6bmT+KNLxipZY1jUnFfNvok/6Rrw2zNsT0qkGoazemUvMwwdo6SsW+WqPImTNyn3O0ybDSILhc8OLKxeCyF3epeBWQ3FmCBgilNojjul8ng5SLKaMCgh4O7qq4d/6FL6k4GIm8nukUpuGz8z9mwtFGYWfXmtWAnYSj22/m9xQvgtbrGBRAUP751yYxWdPWym0o/nE+Zv/0lp6LQUUZtAIH3hae9ZgEJ3Y9Ercecw0y/d4OKw/7Zm8RBwqodNbFP5TgvqVPo1NG+7iApcUNw5HWifJ77LBR/5vAm2TdmLwffPQGE903K3fyO3sC8wyfkz+agXsBtHc8OBmrfULcUJQ7+TVjOf0gKN/8D2I5AeC6PDRu8spIbzc6OO9xrkREnLlzeeeP35tkH/Vv+Oyx54D4aZUp0iyfLdpf7iMxoWjw5I+bciC4zUv9PnL65YfIVO1zSchwveEShYiiI4rPeXqepUuoh3TPhrkqk48yEKWa3fxc9l6UQP/e+GPGXYv/Ym/vYbRBiOX1cIlw2pwAQYG6sHqKAMNv9bTo5dwQQBDE18twyiszhz+unhSa9NHwknyVIvXMRFsxbyrjf7ttOCdYE6sbrxCMEVElDWKO4qq+l+K07icmRUW/K1iKkp/exMsr5+rqeXM2x3hprBI2qbwG/znp78hJSVzlHW+//9/LqxTW//rkESzasATt0uqCyFmSxSyYjIXcYLvV3vHyvuhyq3EEDeZ9ZTV+8xgEqBgS984YVvjJnsAbw2aPuZWIVHhi22yG+rwYXxDENcVDJy8yjlv5lFdUpy2ERD8m1qNjxejgBpqMZR3BiTOhpvuCNNYtYFPe7HHDIeRUsL2BohqvOlkE8QKtKnBuLIZ+S67TkGljOvoyxWsMPtaL66UkujBQtfNVK+M4u3TPNmAsyOCbhRBZUvItRgNVt8OTGLsZ8i+tsqPTnjvluaAVfexsEOzOMa+Bkrxlc3RfMSfejNGLCNUM8QxV8x1WXjvuvTQsQcNLxr7CzOe5MX68Dcfas1pot8V0qut1HBISoXAQ+b3Ox+Aef0RAa0pcCW+9qsh8839+F89+UwRNCPjI18iYMp5DQ9lRpGkB/Oekf6B7dre4brPeRry3lBUFlI7u552rcc2iSforakDzx6XuS+Tg8LInmmu1HASetS6S8JJg/GvGkClfN9cYmtJO3uz8h0AYR0Cq034SjI98mjbuVdP794g5+YdHGW8RobMLMFDW3lXKZIDA6TFbMfNaxbl2VSR9Q4qHPvEOXMIQ580eO5KJp7pGMWRIoYlXZwyefEFT6Oq1bu60se38mTyFgcGAfWTHWHsE7TIteOoLRaNGNbKe9woQamkcBNP4UMi3IJAanUeQR9T3YR1IqQGvM3ZLxqDZQ6csttJmuBkpWtAnLhsEr/RtjrOYgCt7L+lSOMlBQ+VlPDR8bv5TLDHOU+E43kSa0l5TNmCMIRRAKA1VYHTPc3Huwee4pjD2Ml63MiqWwFtrFuHx5S/oRVO0ekt4Y12vN0BVZ0fVLlzT/zIM2v9UPTXx3i85FFCGmv/57Ek9r4aKGKm8HIzCSP3bC9hrySeARChhxXvuBxxPTdNS7pp2zuNrEumzuevkzR77NIgvAmCJ+uvnI96lapFffO6Tq4xjGFUyLrea5TOE+qRHlnQhWiNB04ilcpnLI4F9JXNrqvUpclt/87wZHNVAz3E4cGfxCHdajpiTP0oCUxRAMHttGf+bmaNCiGnFuYUq2mGLf3nFl7SFlvIUCMO8AQQeowXPeM4NILjyoR7TQtzhq854QKZVnsIkp7KE8qbQxb4H4BsF4QuqliOKRzzdiJfdAIJF+64AwRwHIbY4brzjBFxd6aRrlLARITp1e9vOPyaavEqn6fCS/DvZIamIFdHNakm3yTYHxxrHYffvhsiLsTO4G+cdnIuLe47QPRqS8b2//hP85/PJUE8cqQ4pj91UmrGxqjmogEk3HXllUpI2JYNGv4U+FCBYsfUb3PrRfYhwFOm+dN36J5mf3WHuBk7iAaBW8zHyZs2eogdlxH93c7xpNpV+BQsLfMvLNrxEjBFE0OwOTjUHyVggInSZWdWaV5Kfz5LvJaIcp/Ew0dtSihvnDH1q2cjZEw6JUuQ0Ag2W4OMBqLSlMVHkaVoErgBrg6rWBD6Zf/WjtuFtY43FAIL7UwpHiWha8ZApyQMIvpQnVCoFbwBBjNGCp7kCBDsi1vGzAghEtwV9qQ+1lpH0aokREpH72CZYls0+UG287IO4pWjwUxuMmgQngGDTVlwAwYlJmrpnG7dNyhC2SID+lkheilh7lFcy7i9geb+ToPDE/c1cyLjzEhXL26p2YFiPMzCm9wXIDtiGa2/WkX+ycSn++enjCMlqpPvSHNv2oilRzwypwo97TrxZD5gUSyHdrIPe25glBSqVLcKnj+HNXz5A18zOus7AC3o3NmZ3qzF3aAbdbiDATdg0pb6xbbX3BGt3aqG0fzkF9EkWC41+dnRqaVv/ywwe6ha7gAjzUsqyL335gvu3Gcc3bM64iQDfZZUi1zT3GdEg31AyaurP6u/KxY9Tc86Igh4E84EgaK6HmqFADUDwnxcW0YVesknaAQQzf0llbEU0bVYyAYI/5TEwzjUDBGtQmxhAaNSWASDMH/RoaHDJJV1TkPqMZD6jBsi6a/Vqy62HoPvK/dlT3jzzvooYPd0AgnlfAHAFCEY3R6c977af4zkD6+ggENJAF7/2WecZmJSYZwsNf33sBRzll9wIbBZ0XgWfW7uJChYv/W+p3IbT9z0e1/Qfo2cgTMb35dZvcfviB1EeqajzPIhncWNjrJsfA9uqtmPEQWdjQt9L9ffw/2+ferpRN/pk2JEYaav6XLrlS9z72VPYGSpFtinLpdHjys7q2OtBbbW/vPCNV01UIjyjt62i84H/NnNp1/sTFTKJ9G1X5/IPbszatWvny1LyIKXqd2qbwSU5WZmXPHfKQ7uM5fJKxl7NjDsVQHCUI8xF5OMbtIoz1yHwds8I6AghokMl4zSQMpCs6d/rwVQTF0AsI6HdtuOzbxe8N+m9iNP4zQDBth+1RsSLibRHm5PWtm1xJEvqGR5pgNFI0czr9bwZP0CwBBrM1VyrQVAAQbmrLuu9rq8voD3N4Dp7BDOAsnrmU2JVSPmPHcu6PR3zJDEDBDt6G3gmboDglVca0Z4hmaicIKsJ1M6LbNB5UwVKqsYlxSOmfJYIb1Be8ZhT4aM3YwudSCOxTeImDL0c6uYNZ75ZubidNFACKw3CkR374G9HXYn2aS2fEVGNfdXuNbjto/uxpWo7smpdE70uph3t1U1WHY6Pn3on9smydf1OdOn26Hq7Qrvx/rpP9DgQp3Y/ARrZXtpaZB6l1WV48+f38PiKF/Soksozxet6Wt+maoZp1YbX/WHcb257rqlEUT77YHndrKFPq/DBv/p3wUsTWgezIy8z85lKm2aUB0ZaqHSGxDTHF6RLzd4CeSVjLmMW9xO4kYtKgzVjvA/S00lHwbgcgk8Ak6VrpVFuuYE2Br0pAhhdfGbhJieXRAUQAEyRgDOQqUngqKzX9dswgxsAp3jAp5Umy7joNUCYIYgyVG4zL3uB4B0guAC2uicGBRDUuFS47C2d5HkkxE1gViFzPX0qH7UgrATT+cVDCpeqSgogtKncdAdH5PUxN0fzeRRrvHaccbk52rXlOmAdAOI7Ji4STMow9ya7Oo21LpAk6BUN4kbzk4prv2qth86a2FMTwYUMtFexGcy3IiNBrDajF0TkpYyXwXotE2OyHaHdeoKhO467Hp0z6tydvTaTUDmltbjj4wfx465fkOZPQywSgt2B4PXvKkrjlX0uwSWHj0xoXL+1Suq9/6edq/XAUyr5VbuUHD3o1YBOfZPqzaHGoTJr3vXxQ/hy+0q0Tc3Rk1k5bVDjQWXm/XhAgGchYFEwkT1nHFtdfVZuUzxx1tCphXsCD904+8aslbTzVQaf7fTcxipznaQ5rWTGpc/lNdQgDJ+bfzpHMQ3kHEeBwLsk8INQ2gLGoXZB7dxobV5zZkRIwz8z/a3udYp66OWJwXRgJQRe3cZvXnenm7W1PHMHCILpPFdZaHpiiI3rgrkTWgdlZCiD7wVInWP65wReVBlJCAmi/2pS3lM0ZOrP8aZ7boqbo+fLQ40G7z2VjdSX+8f5FcULuqX4tZdR42Lq9dsFQa9uqsy4brFD3g+rxih3zpj9/UJMh+T++nOj1y4N5ewm69ZWvIwZ79CUP7sS6P884Sbsl71PvNUTKq/C9f7ns6fwyebl8Au/Hpjdjlm90C1WRoVAbpeag3tPvAWdMjv8rm0RlGp/0bqP8fJ3c7By92o9r0V1NIKDc/bD34+6Cl2zlD1A8r6wjGDh2g9xz6dPIDMlE74kazG8zDSevWQJBOxBhrLgHzNz6BT9GfLX/kYvLEgtLd8wDYwhDHsbADVOAuaFy+nSkgsKoDlBcQAAIABJREFUG9ggDJ83sRtHgu+D0D0W6McL/azAntlIMkYfp7+rUMtCYCNLebkvVPqWXfIcpyeGRICnWTvgJp8tDwyLw9eNdl40CHYAITYGvQ8bgKDKDJt5bQ5plf8B+E+AdbZJ63HSNpCc1iozclPgh0B0axfcAcl/JYL+lutCo7ifGOLbP7RdAyaTkMVF50xdqlQ3SmOytROGgRQYss750Wida279ZQTthuIhT02OZww0dNZl+2ia9jgzDSI0tAr22pCXg86O2RJhUq/jCkWqEdB8uPO463F4u0OScqiqw+3J5c9jwZpFujNU7DBxRce1k3ISQqWhUozrfSGGHzQImkiuqt0rzZtaLhQNYeEvH2HGj/OxavdapPtS9ecVZaxZLavxp4MGY3Sv85KqRVBzWl26FrcvfgBryjagTUorN8HRVDJ4qp+owPdyw6o9YNX5WU5hvrB4xJQ5ngbVwoWmT5+uTUt983kiMQrMPqfDiRkLMiMZl7044qEGaZ7Hfj42fdt6LgHhOAZS6+ca3+C9HtKxcqbyEQLP14K7zysaVWSZzTFeDYKbLE2UX8xUcQMEjcu7axCISY/F4/g5AARVb/jcsadA8vUMDIrnvGHmHwV4dO+l3RavGLDxTgbfJGrB568GEJSbItPjJLSXd2R0+MXoqjiyZHzXqIxewoR/upHM8Lt6plhUTb4rXh/c0O3XqQ3KKx7fgQLyRkT5avXu4sZkjo05vK2aEXVT+nFa/JjwU2WUq6G6ed80cBxO2ue4pCUfKl45Dy9/PxtVKiOjIStgHItZV9S4GYPRIDK0NNx2zLXo1e7QpGR4TGTMidRRIY5/2PEjSla9jbfXfqCHqU7zpUIYHmmroyGox+CbB07Aid2OSQrgi80lGA1hxg/zMPWrV9AqJcsTQIlfkDa+sdgd5l4P+dj4nco7HrLALiIxaGbu5MWJrGtL1Bk+e8wTEnQ5UU2qZ+OebyhXeBG0lPyZ5zz+g3EcyhtBpuRcyoQCBvY10siLRsDtGKv93Tgs/U+N6cxRAe3iGUMmv2zVpl0cBLv+jUBElbGy17K7gDQXeDCuR33/zQMQyGSkaKaDeiJoW7H5NBmN3g2CMqBs9NnMX0rBMzTBDyOsnQrBf2euAY4unycNAjHOVNap1jxQ30ONlgRR0ugtjtLDvvY7/ld0nAV4VLf5oss6pqb4ZjCRempoxGs24w4R8OKM3MJ8cgnSVbcnRr41tlU0jPM4LB8looDRBsHIZE5MGfvNKwhwYkYvv3lh8tjYVfKdcb0vwIiDznGMS+DGCfH8/smGJSj86mXdUFE9M5g/LweHVRl1iJZVl+Pozn11VXumPzmum/HMPZGyO4I78cG6TzFvzXv4pXS9nuouVY9e2DDLiLIHUNEqD2vTA5cffh76tO+ZSHcJ1VF9f7Xtezy27DmsLluPTH9NXAQvB7WX9Y53UF769SIgPfS7VZA4fkbuZMdENx7aabYieuwWiWuhst3ZfIo+ErTMJ/mq14ZN+chcTI8GmEWvSo6eYvaGsFovLwCLmVkI8TXA62Ph693WnsCLtGDgHKsQyU4aBC/rbzePRC5nVv2ZZbXdOYA4jBSd1tPpiSFWb8jsy7P8JK6UTDeBUBfnwo1eDOwUwLsSqCbGYJAe58Lxi8cGwS7dcwNwS9hIJOaxD4+2Sun0/XOnTLIMCa0GpWcjzWg9BhITmLmv21jrDnzQSgjcVzy40JNNEZ387OjUTu3T+4dk+G0Azo77tb24Mb3jInuciRtDGptxGo8yGsw94HRc2e/SpCU82lKxFU+ueAGfbV6hAwT11KC+ROhmpoNKQrUzuAs3DByPoT0STqHhcRVarpg6XKNS4sP1n+pagy+2faPTSiW5Us8nKg2c9cfYHSpDv/aH4R9HX4PWqY6xbpp1AsqmZcHqhSj88hWk+FLgq03G5SZw7da9gXAwjTReXnETgF4J0ahfxrqgP/Xw+YMeLfXaRkuXGz7ninHMdDeInF2TmNeSEH8rzi2cZjWmvDnjhjLLZ4nqcx3ES/fadhW3bhfgNzlCk5iQDh/+Q8od0uV2xwyVxe+2XVldnjRHvDMCBKeLUzz0bq52YvJM/a+VpqKhfG4eDQJcnhhifY6cPrZVOBWTCZwLQI+Q52l/EEJKLKHm2anuxm+co4nWnjQIVrkYjHu/9nCoBuM6LSBfKTrr6R1e1vTi5y/OqMhJu4iZ/4VaHo6trz0fUwTgn31IObNoyGN6fA+nj5Rr7mlzru2QLSq/AteHHnWr+Gv9bsXgTpt6R3A3BrTvhVuPvQY5KQ1yu7TYFNTh9/w3r+lGdio8ssrLYGRSB4ZrNCbz3NTBWRkJoWebA1BwzHW/yeiKag4KuC1e/zmmfv0KysKVejKqGJ3cNnRVJATJUdwwYCxO3fcET+r+5lrsFdu+xW0fPoDKSBUyA+mOoM99szYelZcDyk7IOwERK9V5TFtop/kjQpBBy2bmFh7XXPRrjnbyXh93FqLyaQBdXNoLAnTXzNzCf1q5E+aW5KYHuPNLEuwpp4BVXwSo8L2/CKKb2nCX1wtzb69UMnVoybgrBHAPwDqIseUFVm5oWJKzJXraM1c8U2bsww4gNDx87V1m3Q5ur2vhla/M7dXPOTGA0Bis1kdSjLk52s1h+NwJB7DU03mfFPPO8zpfL+VqxxYXQHAEKUxViOLSmcMLi7z0HytzfsnYdkHwP8E8RmnCnNa8jp6K54hvzc6KPGCXuCrWvj7m42dfntVBaIvA6OcmnOMZvF3ZRARnIv2qfsojVeia3h73nPh3tE9vm7R36wWr38N9Swr1d3SVdtrLpnabY4xu6qkhIsPI63Gm7vaoMkf+Fj4FnJRHwLrS9Zjy1cv4Yus3+u0jTUttZE/hJpTKw5U4ot1huOiwEejd/tCkTX9N6Vrc+uH9+KV8A9qmtq57ZnBzqUpUy2BzKDUykvQCLNyIZNHGLgieP3Pw1KQkAXIbX+z3kbPG9QyTnEOEHo7zVi9UUj6bKrSbXs5t6Mmgt8Wgc2fnHys1LmGmNsaD3JXuNb7plYB8n8l/bxTyU2N0xJGzxvaOanyPZN0ds8GFsZH8I/wEf3TEzLOeWWE043J7YrACeF5o2By8YjxA3Hk7+QBB2SO0Lt2YB8gnQfraNrq0e6GVyxnmCSB4s0GgKjDn98nu8uqkU+xTgJvHU8AF4su5G//EzMpgsbuXOenrT6S8Ih6Zec7k552ShulEGzn9urRIStl/QeTJyd7rAW+FmMx/88KsXsrYEUZF4SNI3H70X3F4+0OSFo3vhx0/4aYP/qUbSvrjiH7oiDJrJ6levqvCVbqK+7ZjrsbATv2Seov2woTmMuppZH3ZJixY/T+8s/ZDbKnagaxABgK14MZNyDRsjxBlicpwOc7qfjLG9D5fD2KUjE9pDh5d+gzeXftRjRFlnN4kXtbX7qCy2092twZjebd+LfcYYR1JKiweWnhnMmjrtY+J8yamrIsEFzH4SLdoigB9BvANM4dM+Z9V+6MXjk4tK0udIBH9e81t3zk6IwD1LlwJos8JNCWVxDsHndNh9yRqGMpWCe7lczdMFKAbmLkuupmNLNsqGPeI0K6HjS6P8XgxqLkJFW3PAxGbIk/15kkdMLpOxvHQrT8n4gcIVmN0M1I0T109n7dr7789KnEZAR280Ma891wuKgkDhMb7kao05vw2m2h64bjCsIdlrCsyeua1Obu0ykcIrM7vVPOYbeYQJcJC//+x9x1wUhXZ+t+p292TGIYsYEAEA0FkZhDEjCJJiTqsPrMLGDaaw647umtacw6AuruuuoKAgIKgK5hRmRmSgCgqkuMEJvR0963zfnU7zO2ee7tv9wTQnfv/v/dwum7dqlNV53x1IvSb3hgdDUzN3w4BhAKPTG/7Fwn+U5hAQYCd+Im32WIZlF1/ZsAR/m4ihpYMgt1XU4o/5F6Fod1OQ3Yz1WTwquiJT+7HN6U/Gg53ImSvtqJo7ClzohpUavr9/irkd+qD3/e/El1adT4oQYICaKoy4uo9a/Hcyn9j9d4N6JDRFjkelXsmOuVQgsMYRTrFn3ZV78Xh2V1wfd4knNjZsZ9O4k2doMWC7/+LV795C7ur96FVTPrleMLdyXlqyODM9LMCB3ZnK/b8RdoR1gsp/vTm2BdmN2RcTfHuhLcnT5c6X0ZEES9gm/1TA0m3leZseHbpEOvUxgU8QwvMe28yEW4H0J7BbsNTVsk/YqX4UqU8dYBrQPSupumv+vz4ZN7YaJNA7DzHzL32WEGB3xPh2gTCVGUF/MzrSh9pVp0nCRAqibDTzpSUzBqY+ZG1+YmImQ8h5WthARLqCyhnACF2/9b7tkMfBPNcjbwBXfifAMbHCk87GWMJTqzloWOAgFAUQyxvrxtDUIPQMQWAoOY7bs41A8kVuBlM58dqS+xltHKrxaPV6bWFi4e/EqlJUQ8gYEaBNt7VdgJcPCOZjZSMkLZjnMkAkngbyG7c6h1l7z6v+xBc2fcidMrskMoUU3rnla9n4qW1s5DlzqhX+tkpeIo3L3WLrgpUY3DnPFxw9Cgj9DEeEElpEim+VOmvRIWvCh9vXoalW5Zha9VOVPu9htYg7LQZb25WwtQsyNTvSjuj8iaM7HYmfn38RUbfzfFsrthqhLGqcMwsd1ZUKGbsmWjobS0eEwsLcquzZbe/4t0u6o2VeVmadF30n/HP/9gcdE3mG+PnTilg8FQyeapb8aNQatgPBPDYm2OmvW33jZELfpeW49M71ZLvOCJxIkDdFFAQzKWStC1CYq1Lip9qNO+WrTtc3qIpU5VqMi7mU57m/vT25xPpz4FhmDCsHoPujO3CL86YdUFdtIgTgBBaM52I57Typ12jKkSgid1JazK5bcDvfwQMlTvHlcjU4SRRksqDkPCspAAQlLAsmHF9Wz2j6g0p5dkiJr4v0TcT/O4IIFg5KdbfBw0DCGcWnulqk3/UWQTxb4CUkIu9d9ptv116ALf7q6vfXHjJq/V2TqST8W9f05el/qmqPZ7MQY0n+JPtp6naV/gqcUSrrvjToN+iR5sjm+oz9frdULoRf/70IVQFauDR0uqtmBOkGm+Dqt98MoD9vv04tk13oyhVjzbdDMfIA/WU11ZgW9VOvL/pYxTtXI0fKrZACGHUpQiGfAaLJscTVE7Grt5XQKPSX2X4MPx50O9xQsfe9fw9nPSVfBvGfzd9gmdXvYJa3V+vgFYiphNPUJiFfqpnKxZU2I0n7t5i+FlgxpzR0y5Jnj5N/4ZyzqqR/CERjrWqIxM1NyXIGf/J0bOui0273NQjHT1vch8N/AqBjGJCVvte/V0yKgg0ac7YOic1JwDB2C/MuhD02uzRzVfumV3pzxBY3VYNB6j4fMqZBiHcT+wZiKxRagDBeH38vCmnMvO/BKGbSmTpZN0T8V5uYDXH6Pk2DCCovoz8HultH5Xgi4BgGnEnvIgZqwXhodljpv07VlESAQgT3vl1N5ZiLhhRutp4N5imVplaLWKygkW1r5V+QEojwdCAZszlr8wMf/vicZTsXguP8Bi3+0QL5gQ0mBdeKFfzQK1hbhh55BkY12MEjm3Xo9mcMYPMTRqZDhUQW75jBd7/6WN8uWOVAQyUI184bNE8t/C/7fZXPCEau+9KveW45LhxmHD0yGYLe1yzez0eK3kRWyt3INNtHx2caL0TMapk3k/2bMR+O+p9RiUJ+fjs0S/emWiMB+L3ghkFHj2r3bOsSyWkbGNdI3MS2CiILn5z1AtfOk0S0xjzGjN30iEa+HUiMSSuiZVRLQTdPmv01CfD33VazTEIEPCf2aOnNwuYGz3/og4aMp8nFmPDGoR4tEqsQcBjxByVSdGKVzgNc7Qai9IQZQRq72XgajC3Up4mycovC16VlAbBitfV/a3hAEHhgYsX3HJoVaDsRYDPEiHtjsN9/MJP2+l3RTH+DxGAULDgdx0Dfu/DIFzmsMOkm8W7yZhRYzJM0ckglKFlR/VuXNPvYlx07Nhmc1TUWccb6+fhlfWzkaalqwpozuJxnUzK1EbdpJWtv9JXhd7teuLSXuejT4djkOnKTKjOT/JTUc0VANrrLcXGsh+xft93BhDaWL4ZEjpauVqFKh/WHUMzKEjmcMbfD2SEHOa4M3F93mQM6pLXpHMOE6C8thzTVr2OD7Z8hjSXJ2xiTEjOZAGRucPIYXWYsTSZd+sPnHawzr99a/y0WQkndSAaFBaKMQM352lSe0UVUrK7LUUJGubHPex59D/jnt3cXENWiXsIrhka8Qi7cNLQWLxEeGz26Gl32AGE8N/rnQdmnQ4QQAhrEGzHZtxiG65BMObcAA2CGt/IBb9rnSG9j7KOK2MTF5nPZRLyJ2mAYM/3GgUgGJE5Y+dOOpUEVM2FXmGJk3hOvMMDGpOR7V9tDn2sAwgzCloF0nKuBdGDiRiReTOEBbsl4mvEU+iEsdoSgWGovUd0Ox23DLwOmS5H+aAaPHoFTFbu/hoPfvUc9geqLbMqpvqRerdFIvh1P6r8NTiy9aEY3u0MHN/hOHTPOSIkwMyrmupXld0/YKj1VYVDBQpW712PVbvXY6+3zIgsUNkd3SrRkQN8Hg8wxvNBiB29aquSU1147GhM7nexURq6qR81v3nfLcKLa94wPNg8SUSqxI4t0eFN9HtYOJpBdoPnz/gROo+aM2H6ugb31YQdTJg/+R2WGOEEoRFRGTMe9u3Xnn3n4udKm3BYka7Hz760E1zpKpXyWXZCNCj84BeCnps1euof4gEEKz7489cgyMcaoxZDovUsLCwUa/N2HxUQvlfBNDBRewe/JwUQrPprZA1C5BMT5k26QzIKVXZkB/MwmhDhVWLcP2v0tLVh/xozQNCkp81QKfhVQjBDWTzEa74NJmJMiYR77O9OGKKTSYf7VQxcxc0fktEWfz/1dnTN7tJsKnjlRDd11auYtfFdtPXkOMqq6HT+ViCBWWK/rxpu0nBYdmfkH9IP3Vofiu453XBY1iHINJL7OAMLSgjWBmqh0lVvq9qFPTX7oNT5m/dvw8byTdhRtduodeHSXMGEUCSi/Aus1jXRXklWeIY2tjHndmmtce/Jt6BbzuFwJRl+6GQ/xbZZvXstHvzqeeypLTNCHu0EgB1jSEaLYjc+p3vF6fxUfyrPBkEs8brTorzqnfbRnO2UGl4HTSNwazueFL0PeR9Ye0VjOaNWoxXm3AWNPe6gk2L22QJiKoPixqgrgEDAs3PGTvujFUCIveGaz9GBBAhmDYI9V3GuQYh7/huoQVB9qzVBWutzdNJuZ+ZTHQFL+4i+BgOEOp5BNdyAKIZYul02+zftqzXfNEkYxkCWIz4RXMCXvFrgtoWjXt5t8FZzx+fPm9xHAg8pbUyiw5JI6CfL0BxNINGgLH4P96uEXbm3ArcOuAZndzu9WQRIeDjflf6AGz/6G/ysp3S7TZY2CgCovAMBPQAIgptc6JTZHj1yjjBKJXfO7GDY6nM82YZgV6YPFUCtc8DIr1Duq0BZ7X7sqSnFnpq92Lx/uwEQavRgBsMAS7CR38FjOAXaMQarcSc7FyeAIdynAjBX9Dof5x9zbrPkRVAOmY8sn4qi3auRJjy2IfTmOVudm3g0SYZeybS1omtY6DDBLyD+Pnv0Cwel/4F57ENnTMnJTpfTjPCuBAVxTADCy4yvQXifwG9p3vKv7Eoup8ByjFcKZhRkBNJyRoLpahCGxhNEoXF5mfmBt8ZOv9sKIJjHEbuf5AH0QYgFCGEHZDOAScbEEJfejQAQVP8q98Xe/e5BbqLHmNlwHrWjbzw5BuADuPjy2aOmb7FrN37e5AUqisGqFkP0eW0kE0N4ICqb59yremnC9RIDA51mk2SgRhDdtb6m9PG1E2f6oni7UfrZ5b6GJUfsYMkK+kQHyo6JNYS5JfqmgYSIsKtqDyYePQpXn3Bps/khqG+rW/b9Xz6NJVuWoWOGbbST7TRSoU1QS8BGlIPSAqh/KzCQ7kozalJkezINgJDuCmYxVOaQYPXLGqPWQXXAi+pAteGlr/5HlwHD2dAl3IYJQaPEZoTmAAh1G5hQWltu+GDcduJ1OCw7URZeJ7smfhtd6pi+5jXM//6/RjZLVYHS6oll6LGag4MNIIAVk8AVs8ZMSynsueGUTaIHLhQXzN8xWkJ/kZlUqlRbR+B64IyxHRqWyQB9LNxyjUsX36BD6W7LCnoOh6ScJ/3Z7bsKf+BsBi4h0ACGfVEpgzcFTQyVQuCGWaOnTfu5AoTwuGP388EGENQ4h/3r0qxWbdKvAvhhhnM1vHmOyQAEK4AYzReoRqSYKMl2azLo/HlTrmHwE0lVaiZaCdIvcVVXbIgCCAWfXZ/hKqsc6A1gaQLklFSqVzttgx3jtBMsZlTq8LxGNavwVeD4Dr1x3ym3RKmEU+krmXeU8F2vMit+fB8CrCPDlZawwIn9YQuafhLdSq3Gp6INlKCXyoNXqZGNjkLuvJGdwIpZRRwqhXCF/m0WxXVjiF2TVMBMIqHqdC8q7YbSfNySNxlDjzyjWUDge5s+xHOr/m0UnlIAKt5Tn3EGW8fzbk+055Olt4P2TMR7tRpX/5kTn9+azD4/UG0LllzXisv1Al3IZ0OFdoyhWNHbitYMriKC8knYoxF26yzWCWAjgzczu3e7dFQKpmoi3efzaKypFKa6P6OW3ZnwVme707WOrOMQZj6cCccQqDtAhwLcLnxzSzwWVtkUh84aO12lWzYeZT4BME0mCD0/WEwMdue4Mao5Bg+K81oMTvbi+EXXdEJt4GmVKsGK35qFo80ZbTQTA5B6JsV4cy2YcV2rQJr/mXDwgUmLFo/3SCKxnP2uS6MAAjPT+Leu7QYtUEKgpMvkOWA+cWq3100zalAOMzo62RBevRbtPK3x4Gl/QpfsQxzb4p30naiNKlM8bdW/MfPbd9G5VUcjNNAOBJj7SqRxSeb2Wb9t0JVQAQJzglkrH4VktAFO9kEielmByniAMixIt1XuwPiew3HtCZejdTNkzVR+CKrmRmltRSQHg1Pg64ABJQU47BrbjceGoXvB9KVfYGRT2ucTrX8yvyvns89P3tkhq1Z/HICKAU+dbgxV7a6ciCqkutWDvSDyKSHMpLC1SiKoDHcqlp7dDLiIKJOBDEGcyUw5ZpBiPuPhPar+b8wZ8RG4OMBymDk7o1UeBKtzcTADhOBcU/dBiOKRjQwQVL2GduU7zmchlSmtTyzfNa+XzYZyDBDCJga7y7ICCA3JpGi74Rk04Z0pZzJjOjN3V+lBnfg+MSEggL/EymIMn/7rdpkdaTGI8hMdtNjfnQgGewI1PUBQQlklFbo1/1qc3e20hDe+ZOcfr7369ub9W/HHpXehKlBrZP0LlzRORsjHgopk3nW6PslEENgIGQcxDImpG+/WFSv0wod5X205erY+AveecgsOyTJyhTTpo6InHix6HutLvw+aGUKwMzalqoVQiKrw54AZpTSP2PPmYA/sYaKnO3XBfVMHJJcTPqUBNtJL6nJz/vzrBoECj0DiRCZEUjAnw6cc0Md2xInetQeOtIMI94ia0ufNvhDj5/76QkBMA9WZKKwBAnRB/MbsMdMvbiRyxu1m9PwpHVzgqWCocsoJK8WRpMna2KEvz6SJqpRy1DNh1pQu0i0fI1BUHgTLNTMAAgq9rozHElVzdEoHNRdNygIQPWBOEuhEToGxhNx8WTI+CPEAAjNN6bSD30i2FkOiuY5ccHHrdGSPRkB/DkB2ovZ1v/OX9QCCKnDRpoPreWK63CnzT3S7TObgxBt8PIERKzit+lECuay2HHmd+uDeU24z7PHN/by98T3c88XTOCSzveH9Hzd5is3grJh+WMDY0doJ7ZzQwm6tnQi4ZMCMlUC1+5t53FKFYQZq8LfBN2BQl/wmTz2tdDDPrPgn5m5chAxXhgESEqWJDo83QVx8ZFpO184pGDC3q9c34dssT9rwV4Y9/WOiVMJO9kuztlE217ev6Am4b9YlX0VEUTafRHyqIWN1IlBs2viI6F0/tl80f/T8avMYxr89+ULSMY1NAMGKzzEjlCipebJejn//N+252vcCAWOd5EEAictd5539qj1A4KcIUAmv4j5GsSbGX72ejIcbCyCoD06ZPyVzr+S/S6IrAG7lVAYRsETz0hUzJ079ye6dcfMmLybG2XZOqqY9UQviKR23idcbGyCosfVcMDLt+MDh1wH8iNM0zCRoez2AgIICbfylbR4AcKPTjhIurKmBU6boFJw4+bb5m8q736f78Ojpd6JPh+YrExwepwoNfKzoBXy6rQidmuGGG4+OTsFEIho7/d2JoEsEJq0YpPn7KsxTRV/cPOBqnHvU2YYzZVM/b3wzF8+tetVw/kyUD8GJIIkdbyKahH9vKH2V94kgMf/4Vl3OT6bkbFPTN5n+jTK/pduOYg3PEGGIVRrmZPpLtN/U73b0T7SOhh+QEGsEPAWzznvqm9iyu+PmTRlG4JcAxK8GyfBB0BNzRk+9JZW5JfuOSv6kkXYTM98WL85e0YWUfwfEhDdHT33PCnAGM02KvxPx5eYICDWmWFkhgVoBcYPm3Td95sSZvmTHbdueQb96Z9JxAabrWeIqJjhiGsRYlK65LnrtPPucGuPnTp7LwHnKxJDgHFeC6ap+xV1m3X13dGXQRponjZsz5Sho/CQxRplt/XF40rb6AEHlrZ47+RoQqfKnhzfS4JLuJh4jTcQw43+Msb1yN67qcwEm9bu4Wf0Q1LiUqWH9vm9x+ycPolbWIsuVFTepkBOm3xhgyu478UBE7CGOR/dUmai5TyfrLiGNaJXf9r8cE48Z3Sy1Gd7b9BH+9sWTRqXQNE1lVUw+jWtY0FjRNNX+kt0XKpBFkLhh9pgXnkr6wB5MLzCoYMEVfXXdfTMHq/hlqmrIiQS2k/1rBgRW/dmdiXranWCti22k8YWzR077IhYcqH5UkiVyZUyV95LfAAAgAElEQVQH8wizySRmP6gI5S3CT+Nnnz+1uFmWQZlz3r76WIDn6RJHK/8lmz3qI0HPetyuR/8z3Dp75bBFN2W1qq28hKErB1NDiMbhK2VS0ukeX+naxg5LRWGhGNd/ay4E3SuAczgUMmvLfxg1IDw/Z/TUG63WLvzehPlTClnKOxBKWGR3lhm8TrB2zeyxL3zUZGtYCDF+4NVng6XK7tY2/J04NF9pCRAumD/pTJ1JaRDOc3pokplUYzI88yQTOV8Ev8uoDtSie/ahePzMQqSZEtwkM4eGtC2rrcBr62bhn+vmGOWKg4lpop94c2ks+jntxzy2RDR2Qhfzd636rsdM4zONqE+q9d1etROT+/wfLutzgaHyb+rnqx0luOPTB42CXAogOHmc0t5JX4naWIE/GybsTffxoNcvqPOkT9T3wfz7+NmXtWct7Vqj3DLQxawRbU761wMSDMmCv3Dp4uqZ46auiYcnx79z9Qjo+q0gOsOmZPRuDXwfecufanShGWdxC2YUegJZO86CLudYOWWGtAUr4cev5kyYtiHePhn95uQ+Ljc+AKFTPVqZiUP4YM7oaWc35Z4bP/+ai1nK+4nqX45j+NKPBL5o9pjpy+KNZ/w7k4/hAC8nInvbf7Aq6AsB0J3zR0/d05TzK5h/zaE69CuZ8bcE32ESVGgJEC6dfVOnKq3iahZcCI5WtyR703Q62Vih0RiCyO7bqry7Skl824BrcebhJze5nTp2HEq1uKd6D/702UOGc1uHDAXmopciVQZmR8dk+rNqa/d+U61bovFafTcMAFVSp0uPG48p/S5u1PTWdvvpm33f4eaP7oMEx63sGAuG4t2WEs0/0bkKvx/vG+Y+VDsi/OTftbPvvF/P25+o/5/F7wwa/faUjLSAHCgFnS/B48gQQtZx73b73gZMGSRwQl9TvzUM3q2xeIMDeEzTS3clEuqGIHbtyBdueafO6EOGNoQFiFRyk+8I4hmtRntn5sRnK5t7TQpmXJ8hs6rHSV1OAnAsCBlBuwDvJ9KKNRZPwLvnk0RzvGJJYXpF5bbrmfm3YOpcz17P7AeJDR43X/nGyGlfNeU8VRKlsv2eO4hwJbM8lKLiu4wvB4iwFVK+sK/1YQ8tHXJ3IN54VJGoTN17GRg3SPCxsdnUKBi9sAwQd80e88LHTe33U8iFYvXs77rCnfkmA/0AWNUdqADjXfIHbrcECGrCE+ZOHsMCz4BxmNODkOrC2YEOq++mKpDMB1mF9VUGKjGg4/G49cTr0CZdRSY176NMDV9sL8YTJS9ib22FUQ5ZecCbaxhY3a7Do7RiTPGESmMJnGSoFLtWiRitdRa24BedalQU/XZU7cKFx5yH6/pf0SwAYVPFFtz80b1G0Si35m6Q2aqh69SQs0qEBTXalgkLRy1UwucX9ZxZWOjqkL/1XAkxEeC+YLQDoZ0KT0zV18oMwuySXxHgZdAOAOWC8LFf0D/TqvZ9PXPizJpkCKxyPdRWBE7UBPcEOENjbZNHiI/i2b+T6b8hbVXSoaz2mSdDci/SOUAkvkx3eza8OuqpCqf9FsyYkhNw8Wlw4XoAXRWII7BkkCpitUrT8UDvki5fN5F9PmqYymlxt2QVEXI5CG1BSAOYwMIL4h8g8bqrtuw/iYBPuFNDKM/bdh4Lvp6YOrNhbmDlLlVLAp+C8eqcMdM+dEqrxmg3ft7kMwThMskYBEBVt9SM8RCqACyscaUXKkdQW4Aw9q2rewtNPkxcl3Y50a0+EXNzcguNnbwVeHAiaOIRUfWpMgyqEtA35V+N0444CcFCzM37VPmrseSnT/HUqn9CgzCKSKlbaCwIiJ1vPODgZAaJ1smqDzMgSXRrSrV/J+GVifoOmhh24bLjxhuFm9zCNtrNCakctdlWuR03fXSvkYHSo3wQzEklHPXgrG67Hd3jnZFE9DL/LphvEbXljzplfA6ndlA1U4KIPOIkv9BPBvgMZjpOI7SSgCqm4cw5LQ5gNfawcoQhVBNQBabvNUGzpdCK9u2u/nzplf/wHlQEOcgGM/7ta/pSQPSB0NuDOaA86f27/EvnXfVSZVPfrqNIoSJi5k/uDaKjASXUpdBU5s0aKooXtWBHThWGe/E713evlZWDwELVOtIZ2tYA/F/MGzt954FYBsPHxZN+EktxDASyhY7trMnvtHZln4azidpKRSNlaFrOrUT0J0AhqIY9yTAq85cSvRcrTBOBmHB7ZfdXVQmPbXMk7jv1tmbJ3W9FQQUS3vhmHmZ9txB+qaOVR2kQndPaidbAKQ2df9W+pZ2GpzHGEAtSYnMNqN8VwFIahGv6XYL/O258s/ggqMiUWz6+16ho6RHuqIJcZnDXGDRwskZOv2Nqp0i5HUIbPue855VN/Jf9MFPBzInCm9E2LU139WdRO0iS1hfMPQBuC4i2ACu1YlZC0ECkEisp9X45MyoIvBtEWyDxucuFZf7MrB9PWJpTcfdddytHoyRO9i97CWxnx0y46y4qDDUwClM0jVe/EwJTYWGdGb4RxkIoLIzM7a677mIiR3mLnIw1tTaFEIV3FWLtzLUGe5359UzG3UaBWuOJe20eP3fSBIAeBKFHal9P7S2nDC6Z3q1uXz7dj5pANe45+WYM7jogme4ata0SaK+sm4Ulmz83vO7tYulTAU6xA21K2sYThvG0R+b3Gjpe5V+yq3ovrs+bhPE9RjRLMqyd1Xtwy0f3GOGVqWoQzAeyuaUIAwEheFqajrtfP0C3mUY9UCl0NvLb36Wlr/YfLd3cXSg1foC7wXBUo1ZgTmOhio+wJoyyJSoNKgWYqVaoEtKgzcy8iYg2u9xifbrI2vLK8IeVqrblaaHAz5oC8QHC7MnHkIueYPAIKwFrpdp0aisOo5N4iYLClG0ow7S71eosoSryjesxFNf2uxxpByBxUniOG/ZtxMwN87Fk6xfIdKUbRZHsaJSKkA+/k8q7Vjs8lqZW4CBem1iE6iQ/hpOxq1oXak0LB/0BZxx+slGCuqmfIEC41wAIaZrb8ENKFRAlOhfx5hLvmwnOULUG93jypn08c+JjSdnGm5q2B6p/lb55ex9vdk1OVbuA1LOlH5kS5AIC0P1cSy6urQlwueuQ9vvmnfrgL8Op80ARu+W7By0F4gIEdUhW5239E4OuBRlhQg16rBiYFfBIJJAaNIiYl1UFQ8XUb8ibdEC1CGpYO6t346nil7BsxwrD2U35JAQDM4NPLK2SFQhOBKxZcDeW0G7M9bIbn0EfAnZW7cUxbbrhb6fcjENbNXjLOhq6GSCoRElWPgjJ0N7RRy0aNeAbS6vSvOctHv5Ky603VeK3vNdCgV8gBeICBDXf8fMmnQXQTUCds2Kqt5yDESCokMNavRZjewzDFX0KjJLIB/JZsetrLPjhA3y49UsDEGS4MyLAoAUg1K2M1V5S5Zf31OzFFb0L8H+9xiPLrfLjNP2jTEQ3f3wv9tWUJWVicAqOnc4gVYBAgm7atBVPFl3986m94JQmLe1aKNBCgdQpkBAgjHzyd2kZR9Zcy6CHrApzpMqUnA45VjVuZqp2poNEfceO2RvwGs6BN+ROxkldk65RlehzSf+uvOHf3/QR/rNhHnbW7EWH9HZGlEVshEMyphen6+QUhCQ9qdALseNIVkjazUOQwM6q3Rh2xGn49fEXokur5qvWuWX/Ntz00T3Y76uOmBhSpU/se4nWLdHv8cB8iPbriWj8rNFT1zfWmFv6aaFACwV+GRRICBDUNC+YM+lMXcMcpFACujHJZAUWYj3Z7b5nBybU35XduibgxblHnoWr+v7KSJl7oJ993lIU71iNt75fjJW716KVp1U9k0MiYRJP+FoJajuTgpnu6puJ2iUaV/h3JyYSJwJQEGGftww5nmzcNfgG9Gp3dMKaCI25vj+U/2QAhFrdF/pu4mPlZF7xhHsiGtq9W/+7/KTLy3fPnPjivsakSUtfLRRoocDPnwKJORmAgvem5AS88nMwHZMw7MdEk2Rvh4nI2VQAQQk8b6AW7dJz8JsTLsOgLnnNnl3Rau6qqNS3ZT/g9XVvYdWeb4ywzCxPlm3oXjK3818SQFBZMTUCLjluAi449jwj1LA5nzV71uO2j+83nCBUFIOTpykBQuw5MY8n+ru8F6ArSrO/fXfpkKVxM8I5mVNLmxYKtFDgl0UBRwBBTXnCnEl3siYmE/jwZFTbiciViFEm+t3JLcuJVkG1KfeWY2DnE3BZ7wvQq73CQgfHU+2vhlJjv75+Lj7e/hXKaivRLqMNsm0KPSUS/ubbp/q3XRY4J7fU5qCQeZPGjlVFLKQJD2498VoD2B2IEt5LNn+Guz5/DK08WXFrMcTby072eSJa22nJwmckdq0F4VH2ySdnn//ipkR9t/zeQoEWCvzvUcAxQPi/tyfleyWeZ1AkYUCiG32YnInMAMkwRzutRLxbk9NlVc6KKlZg9FFn4dd9L2qWLHxOx6bKVO+tKcU3+zbi821F+GrXKuyq2QuNXEZYpBFep9wZVV1RB0I/0Xet1sTpOsUTVIm+6+R3FddRq/tR6i3FIRntcXnvCzD8yCHIcKc3KM2xk29btZn97Tt4YsU/kO1uFde04ZR+iUCvHQB00n+4jSrt7JJ0ahdPetFTo576xaVWTnUtW95roUALBeoo4BggFBQUaPKytlOZ+WKOyaxoJ0xiAYId4Z0wtlQWLZl+g4QgVPj2o5U7E3856Q/o17E3NHKUfTWV4aX0js46lOlh6/4dWLV7Hdbu24Cv935rgAWV10GBBSNZjxH2p1K3BWPyzY8dyIoVTMnQL9x/Q2/JVmMLAkwFCxi+gA+Vviq0z2iHYd1Ow8ld89G7/bHNkjHRasF0GcBTJS9hwaaPkOFKa/B+iQfM4oHjIIXqH2z7PCP8qdQD5701/h9lKW3ElpdaKNBCgV88BRwDBEWJCXOvGsLQ/gUKFnBqzCcVYeT0+05utHUaiKDD2yld83Bln1+hR5sjnX6mWdsZ4pJV3ViJrZXbsWr3Wny89UtsKP0BW6p2QhMuA+hkuTLhFkGQk0wSq1iw0JiTiwdQYr+j4E1ABlDmq0ClrxqdMtrinCNOw9lHnIq+HY8zfEXqQ6DGHG38vrZX7sT9Xz2DHyo2G1kww2NJdj87AVaJ6GbXh83fH+tX1PWm5ih+03yr0fKlFgq0UKAxKZAUQJjywhT3nq78LkucWa8kZyiRTzL+Ccky0XgTd9JXIgYbFIoEvwxgv28/Lu01Hv/XawLSD3BuhEQLrkCCGrPSLGyv2onlO1ZiY/lmAzgoTcN+fzD/jceVZiRgcikjRCjbX3jOQfNEgtzbFgOxAl/x1iJqf3A4CVTdX1WlTZUuWc3Fq/sMAKQqXR6Vczj6tj8Wg7vmoWeb7oaWRAnkA/0s21aEx4qno0b3GUAskT+H0/Em2s+xB1d9N9E74W8TaCsJ3DvrvKnPOR3Pwdau55ML0tr37tzDBwwmnTuTS0veyTLAQgq148QusNgo3GlfI3t/ddH3+bWYSHqiOecvX+6u3Ss7u5mGQGgdBMsAhEiGBQY/ISWxQrqMGnbJ7RzQ1/ncrbZnbPDWFl09wJ9oHIl+L5gxQ9ty2GCPLNvq1imji3SxuvV0VfUmSLKUjDIhxA6Na7+t9GTt7laT5l846uiDxuyUv3xbJpdu76bW2afJTbqratfaIUNSK2/NTINnfp7uQ5VHZrVvo7ldfVjoHaXOrRVXhFqFmIfBGkvSCfy111PxpdNv57+w3O0/0u1hP3k8Ll93SnMfxV5/J4MJG+m66z8M0kii1C/FslXp+zZiyJDgvmYWA+f8ty23aXuGrmvdCKraYOM+BNaMQbG2ye/bv3T1uaeWJwUQ1Lvj500+D8CrBLRO/iTUTcgpMzOTIJ76taGkihZ0QS1C+/Qc/PXkm3Bcu54HRVRDsnNU+R227N+Ozfu34fuKn4x/767Zhz01+1DprzZAhQJEyhShQgWD8CiW4sH/DmcHDP5eVyU9sgdM/4iYBGJ+jPVFURoQ9f9U4Sz1qLTI6ZoHbdJy0CWrIw7P7oIeOd1wZOvDcGTOEca5OpgeZe75x5oZmL1xEVzkgibqp3Wu00wFNThm+iZ7fuIB3NjvhOlkcWZ0Yjzi8WjP/Wfk8z8eTPR0OpaeC75Na61VXSdZv5sEZRtUDe0hI51mmMfboSbVJtI+2JwABQi2MfClzni9FWkffzb8hF12Y1LggPfRxQTtbxLy0ChbnvFd0zcii2Hxt+BxCj514y0H6DMimkvuwKxs7C9bGhYUTokEoOeCBWlZetcOrjQ+WUKeTRIDWYjeqrZEPTgZJFspCMXM2jKS+jvQsKm2zLNn7cS+viQ+26hNcxcXdyWmu5j4VwC1Vr7kJDGH9eq7Ss49xbFzrRLWsqfoSsy9WKeRIAwEoxcAVZSr/hN72JS5ltknSLysuV13fXVmn52wKbQ0aMGy1gG3q5uUOJVIO4dZDgTQGaRUuaZTH48hEO0i0DXF55wwt2Am6IecFWdJlg9IUH8Sxg0vWifshJlYMRALBsVMksCrANyRNEAYPX9KppvkF2A6Fgy3k3HFYVaWt55E4CHR7421Q5VT4AXHjMRlvc5H67TWB1SVneqcInd0BvzSh93Ve7Ctahd2VO7GlsptRmEj5Xexz1uOykAVagK1Rk6IsNAOL5ACCKokdVDzEFY1xIg7w+QRFPrGvgiDZGPBGKrejUdLg0e4kOXOQJYrHe3T26J1WjZy0rLRKbMD2qe1xaGtu+DQrEOQ6c40AZOkt2qqJHP8Xqm3DA8ufw4r96xDmqYcJO2fZPasXdtYORKWKWEZY+Y3sf4Ipv/excB1b42ZNjuB1ckxHZq7Yd/3Vvdy6b55RNQz6GcTmp0dw7VjjGZgUSeoFVzYCl1/RrjwXNE5Ayqs6HTiotWHBzTfp2A6zCjuHHpf1eYLjsakjlNgxA4phsGEeisa0Kj/2k2CHwhI11urPpu9KZmqhr1nrPGktanqR+z6FTOmQAhVdKruFhC1QUIEMkCTUV2QQbxOMOZByNeLSr9fi4kTE2pUGn0fMFPeu8U3SSH+QsStTPSpERo9XnR2/ztBiTU9vdes8bi3BI7WiP/AhPPBaAOEaGE36HqHLbSAzDsA7ZkcT+kDsaBNlSZ4+9TR2VKKcwD6MwQfA2mUEQ/1FurD4S2BGMVlFXvPatv2KDDK32SJs6NucbGH3MQQIjzEzEyiGJR5zUNEiG6rdsPHSXPdghkFmtfV7jyXix8C+GgzfWPHEmf89eoK1J3P6JtWLACJXbdkAErsWM0MNnafKCHok35U+apwWa8JGN59CLpkdWr0M3AgOgz7L4SFeIADqKithMonUOmrRJm/Ekr74NVr4fV74ZV+BPQAVCSFZB26lJAyEKWLUxpSTWgQQsBNLqPYlPrvdM2NDFc63MITAQVp7gxkuzKNNNIqHbJqF9FehEwfB9KvwMmaKBp+suVLPFHyEqoD3iYJr0wGVFidw3q8geGH4H8GpCycN/albU7meTC26f9u0R8BQ2i0DQpeE1ewIlqEy4WZfMysoggVvOWT4P3MNJv1wDNSpK1dNfyEqDoVeYuLLpEsnhXgbOMcWTE/47vBH4z/rcYZ/EdwAGbQEB5SLMgBAiR5Eel8e3Zm/rqlQ1R5afun94wlrVq1zunhJ3E6Q95AwOEK2wfPelgQmNh+LHiJdE3KyUkS80pdw9/TpOurkcP6bbqbyFI13hT75JT3lh9RxeI1YjrFwC0RZm+s0SqdtItXDev3td1NXoGkzLaBPlLqQ0HiGmbuZuTxsaO7I2Gm5s8bq72Z+d+MPS5SpGvg+1+0D+iuk5n4MkA7C2pvGsuuxhokvqFUCq+DWZDFLEtwtxgNq3SfflKG8JT5XHI9wKr8eIwzWQzoiAcajO9bAIPwvGOFK1CdNEAI93X+/KunSpZXJZM4yWociTaWHZOM/XsiZmrVPurMWFwTlCZnv7/SAAqX9zofvzp2jCHsWh51PqMvFGRUTUx5O/3sSLrfV4mX1ryBhZuWGrkPnEa7WPCFKFlhx6Oc/N2OiJG9z9jIhFvfGjNt1s+O4KYBn/Bu8a2C6HZlQw9uORNV7W4UZirHqlpMzEEBU0MjYZgqpB+ghQLimaJPT3gfd9cJx7zFJb9h5r8DyDJ/PiIELJhL2Exn9B8R1mFZYJqg1TESNN3jq737iy8WbrPTJARNLxXDmOgaIpzMxk3Z1H9EMFoAhBjBE9HMBMe5ncBz9EDgibaZ1d+nYu5IZb8NeHfFQJ3kcyDKizYbkVJObhAa/b546AnvwQK0KPNKK3eXwcR8G4BTjXWK1tDUB3XmQZrBlBnQKcBGWOve6Tvti0tOUtolnLjoy8OlcJ3HjN8zcFw0zWMEsi2QjD3havtxtUb6IE3Xy3yutDVgDppDIts9+A9l6QgPsZ4N07yXItoqC5BqtUCEipQ5+ti3rjtZaLULwULZhRw/iQS59Tjt0/vGtreif0OYq7LN7/GWIkuk487Bf8CJnfs7FgaOidLS8GdGATbSXz9eNB3bqncbCZLUCXWizbIDCHYEMF92zDIl9qIQ79vBPthHoDc0V+DGmaNe3v0zI3jUcHMXF9/AjDuJ0MbSscN8UbfwNwhx1fq+ClbC1NBP8NwAvFevGn5KxCdhwOKiq3WmhwEE87KHgUr4Rh4jcCMTsFrQ8PtRi1hvp/hI0tXk0ucUnTOgPHb9lEDMdnU+HoxHQHRacEQxu8IGlETdbO0YKiEAgWepyvtUcfGi75Mxd6S61/I+WJXP/sALIORH+ZkE7+PfkFv8pmRIvyWxAKGgYIb2/VXHDGYh72XCKcYlNiIcQyghSqKa6BRL9oiEjPiP7BCEf+IHeadyIFUam7ScnFuJ+HJmOjxqnWP3gN1hNu+7oMQPnljJa/wVtWe4O2ZI+PhtAk6xVb3HMISwBlb5eUU9hoY2BlDYMQ+iz1IGCPkvTHF366I/zhDXWl0dYwW13XmJt3msbv1Wc0kFdIS/G+/dOsAtDFODS2iYcvxFGNV9qPHvlud/kwIqq+V/vpmHRZs+QpY7C5phB0/uacieTe5LwdZEWMRCPDLn3BfeS+X9g+kdBRAA3AmEbsh1N0MJQfvAXGZbMKSeMJYakTiEGcHSn5YckWuIxR+lBzNWDMk18kbkLSqZwuBHIgAhRCAGSSLeT0CpM5VaaOcwKVauNCJKNR1atCjHRaUd3iakvLRoxIClUQpPZsp/f+UpUsrH1dAi37VDo0Ews4/A+wFWjkU5DNhf9Oroq9SGn0i3+M3Ks/p/3dR7Iv/d5XlSiKmAAghhWoQENWE99MBvS5aduMSs2VHNTlhYNJwEngDE0aTmZ6ZDlGAy+lImmyoirjCAhtVBZlYGDgmiTcT8WpW35vVvxp66f9CyZa195Z4CEB4B2zg7Rjuf+Ehgn8rzloB2NQCtkgIPr/j4rSJjv500pi+5aBIznQpwO/v3WWemtiDKUZEPQbAR0hgYmhYuI3U+lEtZ7GYnhYUNGuwj4BOd6OWUAYLaYePnXTME0F9hQheqM5xEzlk8LZp5gnbM8mABCOGxlnrL0SWrA+448bfo21E5wLY8/2sUUJELb298DzM2LAhqlkLluA9mgMCggBAolP7MZ98a//jPPjGSoUEA7qT6AKEaQswH5IfQTaw+HFwStp6r/w79mwRpkuWRgsRJDFa3TUueSKA5YHlv8fD8IMO2AQgAVYL4UzDeMVKaGt8xfTByYEx/EwKk68yCOgGsvOtPB1FGRCiG3zESpdL1Ff7tz303alREyPRbtDLLBak8/W+qB4zCgjXYxz4Q1oDwI3TxHTSUke7XWNPag6Hs8/0AqBzzwW+HH7NqXlGHxD0lQ0/4i53tv7F4QhRAqK/yXw9ZHyD0nbvsEE9m2l+YeTIAd5SGKcrEwDVMYjVYriSiLQwqJyVAZX0XC2YSQpM6JDZlZGUt/fRU5XvAlP9O0UB2i/sYOMvuhqAAowD/wITvwOIbAd4sBQXXTkrTzlAGbQkpAMFaDRiraw7tV7K2LxkRJGcuYVe5XHeo1GtOEwoA2DxqDsw8BEQjway8vOsAAlAN4ncJ4gMmVp+L2ptMap6kk+R9ab60Tz2ZO7c2BCCgYMav2+lp9Bsm+rMKs092YzTXLcop0Igdf733GCj17UeP1ofhxgFTcGzbnhEv+2Tn3tL+50kBFSp697JH8V3ZJrRNrzPxWs3GSlsZaxoI8+9YjZudpszcPpr3WzvKq34Y2KmR/7RZo//x7c+T6tGjjgIIUbdtKmWWf13xed6TsbfKuPNevtydvxc9pBQXw0U3QnJGnfNj8ANEqCHGjdnDcqctJQpEAAKFTAxh4QPsEaBpRef0/1OyAvTMJUtcO7xtDkvXcBOBp6gosci4QxuEBL+9zyUu/TGkyRj82WcZ3vL0cyDwMgihm6Vp5xnuFFQNwhwivAmfa3Wlv3zXN2NOqQyPr5BZ/OfTT7Oyq7K7BSBPFwIXMOPMUNRDXchmWNaAtgopLyqu2PhZU0Y3GACBTBqE6EW0BAj5i0ouZ5L3M1OXeup4g4akbvFvUcD3JtIzVvt9vDnWAdXJGcl/d3kXCfE0CBPqtTdAlOEYsImI/kFSf1fUVG2r8rXf2eQho8zU/4MVf0CA/0JADJCgUhDfUzIs71EnczT2vdOGVu2mLJ/i3vk9jqN0wz5yRKK+GgII7LRl8b5p9U6qYCFMLOXBXx2owYBDjse4HsNwYufcFpCQaOF/Ib/X+GuwdPPneGrlP4wLg0prndj2bz/5RAAivOdiv2F1juzPB+0lwrwO23D11KunNjjpzsGwlBEfBKVBiFIfUxmTuHfF0H6PWjmuxR17IYv+A1b0EB55HYN+B6JQ1qtQiKIRtcvPaBr/SfkAWAKEIJDYw4TpJUNz70gWIBjjUwz+vdUjCYEHACifguBTl9/hq5pK/8j1EwbtVX8d8N6X3SU8z0rJ55C6FYKKncYAACAASURBVIafOsCymZlfFMDbaeW1az+feHJNPDrkz1/egV2UD5fy+sfJAJRWIxRaFtl56ob7uvDJ3xWNHlDdVHuinonBoE8k+qMeQDjx/ZITA5JvIOYClXAoGGoaISATyzKW9IrLTf/O0spWLx0yxJvK2I0cGHvdIyTJfxDQrs5DMOKLolT575DkOT7S318zfOCWZgspZqbc91ZeD+Y/hyIpgttHeR4QlzHTvSuG5yrfGUdPgwCC+kLvNQWeY35odwux/GsiwNEUACFen1YMOLzHwtQJv+/kBhcmtAr3U7kCumR2wrUnXIJBXfJDiYYc0byl0c+QAiqjY9HOlXh+1b+NPBKZrvoa4GSn5QSs2oEBK9AQu7dD4/nSJWnSzHFTVyc7voO1fe7iFTcw5J3E1CYiAIwQQoMB3rdiWH/lqJd0OJ66wVcEWh/NOs2HQA+LSIOFguWvi0YM2G4ABAr7INQlQDIAAovpJcNOSA0gKIP7olXHMfz3M9G4YAhnHUiB5FU1rsBZ64cO2qtMC27yT5Ik7odEUOth3gQkSpn16Rlc+8DnwweXOgYsS5a4jg9k93KDrpJMlxGHNBPh/g1Zw5tBmFL8ybz3msphMRmAoNauzN/6bgFMYVCH2LVTfiGAVsg+Obvk3LyfGiKwj5m/vEOrdO1lZlZJA+ueMHgh+oql/49tPB2Llw7pnhIISfnsKYC5uOhGgrjD7M9iAgj3rRie+5DT/hsMENSHRs+Y1N2VQf8CG+EkKT/mwSRr0w0Kb+t6A7HC34aRGuOOByrM/ahMmQokqDTMlxw3Ducfe97PMpFSyov1P/bi1v3bcPsnD+DH/dvQIaO+j1AqGq6mJiEBZZL5nrfGTlfOdL+YJ2hioDsJHIxiqDv8ZYzUAYLqJv+95TkM1wvM8lf11EOMpX4KXLZm+MDN9XwQwsyBsQfUMIDQf/FXpxC0v4OV13rEKS84Tckl1a7Mc9YP7bV30JKVh/l9/k8ZQnnP1+PlpPF9mq4//9XwgZtTWfz+S0raiAAeZIlfQ2knDAEYmigrOzovqS3/buzaiRObJNNiBCBwyEkxmsGvBwV+W/Jp0Emx74LlPdyaeBmAiuCol7KUmJ4gv35HQzUeg2d8llGbnXm6FHIOxfpqBCMEdkumKSuG9Z/rGJClsjh274QBAok7oEwM0YI0eD6aGyAUrCn06D9sv4CZX0JMpUfzPJzehpzQK556NhGztrq5hb9pG/FhAT5U22p/tZER8JoTLsHZR5zWEgLpZPF+Rm1U8KJyTn265CV8sOVzIw20SgqVaF83xRTj7evYPa3CmwSJ5RwQ586Z8LxtyuCmGGdT95m/uPgGyaYohroPNhwgzFiew21dT7GUl0bdOAwC04d+uC5dM/z4+gChjoHsgSamlwxNRYPA1HvJ11lpfp+K0rjZiJCI9fQG/hvwVRWsPu+00vzFK4ZJlu8AUFXC6p7gOz9CYlJOevmHDclboGz6EngUxO1ihI2ysW8RGp9adM4AdSNv9MfSSTH8lZgohtzFxWcAeM2oMVFnXgm3VhElw0qG5SkH01TunpG55b+7tosU3psA/N6gu6k3JpKC8SR7+aGSsXkHJhGZARBW3EjgOwDlzGjSPjEODEBQ1Bsz96quLuGawsx/MghnAWmjnEiT2E6JBH68rpyaNRK1swc3hJpADdKEG7/u8ysMOeJkZHlU7pRGUc4kQaWWpo1NAQUOfqrYihdXv4YPtnyBDpntjHTTzjIeJB5NMiaw2N7ingmVNl7SfoK8cs7Y6Sql8i/qMcIcjTwI1CZqLcIMMEUTgyKSyojn112zATrdIFo0oT+QLnHZyrP7b42YGDjkpGgBEApmQmzB5x5vm/S2QpMZ4eA2FkSUleYLlAV0oUolAdADPuFulXGohD4OhOsQDjuMiSAg8IM7avnubaMHVPdfXHIvsRIEpscYryrBpL+h+TGpoTfmfh+u7C5q9PkkSNVwqGNqBkPkChK4svic/CbZY1FOivXVwJEwx8HDP0/z7k+/CETTo8YY9NHXJfCW3+W+1V3pt/C/UNGtMW4UbeGv3VFes7bgzKpYLUDugmW9SXO/zqDjY0UcEX6C5KuLR+QtMjk/NO/ZM5sYwk6KdXv4wAEElYd6Zf+dR5BLfg7mzomokkggJ3rf6vem6NPpOPb7qowaA8O7nYYr+l6I1p5g/pSW5+dLgSp/Ne7/4iks+ukjdGnV2UghHQsOnO65cDs7wV7/Ahikm/m9JK4+1QL0ich2nT9zyLOpVb07iJfNMlFSUJA2yAdBCZcB76/uLqW/hIlaW9w1FwiWk+r5IESEuOEHsZdALxaf0/+2AQtX9teFvATgCSBSaXJDweAkSHKAKJSvXC0yCUgVEcGcDqZQYQ9Tbt7QRiBoY4o/m/2OsvvnLS6exTB50RsbxFBzb5ag51YMz72/ocsYrOngfxWSR4HqckUYiQFYpeIVfy0Z0V9llGz0p56JIRoIRQDCCaev7CIC8hoAKpouJkOiEU2wi4h9JE0AR7WLFFdTPoWhztW8SHgJtMwb8N+89st3dpl9LPp/UHKK8Mv3GRRMqRsFXGgeAzetGJZ74KKFzCYGRjAVeXiQB1KDoIZRsKbAE/i+7UOAWiyKG/ZodyNX/STBCBt9Uzrp0M5EoQCq8k04/dCBGNbtdPTr2AtprvhFfJx8r6VN81JAOSTuqynFMytexn+3LENOeg48IXBgBwgSAQUnv8fb+07eN85NMEvwV5zpuWTO2U9/e0DsoE28XFEAwcylG6BBUJ7p+j7ZR5D2N9ZJCcNggp06Fb/SyjxUU1t1j0qSE9Qg4BEgWETIlGJ5j2BMD7D4twAXQmAUwJmRao91GoG6zDFhdKiKPtlvMD/r9DLScf+KIblGFc7+75Z8SYJPjFWpM2gpJB5eMSJXmR8a9syYoeW1PvZ3EHwDswxmCgwJHVXdkAReKDknT6nbG/2JBggRhBQcAHPEB+HEwSt76RrU+FTq/9AQw8nLwqfCxknNqupm8BagchWslFLevHLZ/mW4e0jgzMIlrvJTcgrAeC0KuYe+KYR41OXLuvuLUUcbKZgPyGOlQYisWQhAN7cPgpkQ58+b3IeBq5lwTVQcbwrUiqtGjenPDnDEAxuJmK7TIUdueUTQpW6UilYJdM7tfhbO7X42Dm3VGR4t6TQRTj/f0q4RKaAcT9fsXo/nVv0L35ZvQof0dobPQVhz0FjA1k5jYDcV53uV9mokLnhz9PMq294v8okGCCYnPkYZge4rViaGu4B+J6/KSPNo2aKm0jB5hh+fyyPDqn0pBDF8WUK6hzGJ6yG4G6TJph9iIILoB13i+hUjcueqfoJOiiGAEL6lqXTbRDsF43kp8aMQ/DAD7S3VQOYNoDoMRmHUDTKKcansdvyBX8pr1ozM/94AfQUztNxJPb8B0CMsEoOCW+EOniH9+v0rzh24osEboLBQ9D913EhifhhsqjNgbEjWQfRaybC8y8zfOXPJD+lAlWtLzU9+c0KnZMcSbWKIKZVNYj10n5FJsf9JK/KFS97BLMbVFcYKfS0Roo93sFR6acJM+PGHklF5u3vPmOFJb91jCgt6yug9ymZOtSC+o+Sc3McOKCg3+yAQtTVCMOv254EzMUQWn0EXzJ9yjgQ/w0DP2E1hdftuKiGeCmhwwqCjLxYx+8Rw9CVU+2tQ5i3D4K75uPS4CTiu/dFGxb8W34Rk2UTztVdmoq+2l+D51a8aoYyHZLaP4gNhnpDMiJwL9rpe4/E0qzGE26todQJmen9Mv2zh759KlM41mWkcVG2j8iBEjyzipNhv8Wcd3JR5BjQMYZ3bhqtCK9dNCN1LAfiZBDP0dBKiF7ORRVCh+ODV03w7YZXMXzzthv7E5yPyv6sDCKZUy2EmTLwDLJ8lnXZBiIeYONucyyAoV4Mcr65UdVj4xVR7NBrBD6JdLuGaeOTedV/MDJVdzn9huVseqW0A+Mg6ARAkBjO/Ti7cUzI0b22DF66wUOQPGjlUCs9jEOhtGDAi+f1VxTZ6o2R43sXqOwXM2vpPVrfO8PlzdSk6A/STL118vXr7+opUEipFAIKqxRAdraLoEjExDDh95QCpyz8zY3SQsCbhHdQ21CdDLEKvB9iCpCSNPmbJF5UMy9umAEJGm6OvlWCV0jq64BajShWGKh6R/3SDad6QDix9EEIEOdAmhvC8xs25og1p7ttIVbeiurSdDRHYyWgTkqFvfAAZ39wRH+wQJAdQVluBNp4cnHXYIAw54lR0zzkcrVr8E5JZoiZv6w3U4qeKLXjtmzlYtn0FJDOyVQGmBOauKD4Ue6FopFE7BQtkmE6xKhAQF88d90LDBUMjjb8puqmXSTEknFVYJ4P/VlpFL7VrxY8w0yVg1oKFdoNPsGldZS1V2ZmCxoRgm5AdP9g4IpU2cQAXrxjZ/7Pw7dDWSZFol2CeylIUM8mHQOhh9leOVIuMEjARBm4iVxAsqHLLzHi0JK38NQwZYir1zNT/3RXriPjYuokFx8/gOS6WDywfceKXDaZ/IYvcwavGs9DvI1ZpmIOajhBQCBDRK8XDcq9SsjR30erTJMlrBVR+AJkOUDWYFzKJB1ac039lsjfruigGyo9K1hQU+JFESfmDV/WXQr8dwAVRiaUi1oUY6WEFBqwEDEEnokdlJe5bMT63zEiQtI+uYqbnoxN0GZvFD+K/5LjKH25I1EiD18sEEIjQNooEBwtAUJOcMPeqIQxNHZBI8ZCmAAip3NDMi+AUIDgZe+weM7gOCajSwMrhrUebIzCh5wgM7JyHjhnt4BJRms8G742WDpKnQKW/Eit2rTWKL5XsWmOEMaa7041bUqK91ZgAIR4QsNKwWbSvJOC6AOtvzRv7UqROffIUOfjfsEu1TMBeMN8hPWIx+XiN4RgYdXsMUS0Syx9GDSZqmolt+AjSPsH4l7e87M61E4dEHD6jAULUzX8vEb0ogekEvhXAOKhsexFsElTz1EOf5s0U0WAYt99VkHiydv93r8TmG8hdXPIFmAfGAgQQPlQmgeLh+W83dDULZszQfsjp8XsdpEIvDwt/SwEEKeETAs8VD8v9o5HyuSL9HhBUu6g8BCT51grZ+onvRh2dlFZrwIIVubompwWrOdZD4EGAMOLEJbkLS46DhhtBuCoaINjopi0BQh1IC/3LK1iuI/A1yyt+KFIaEOWDUHlyuwt06K+b1PYmH0DxWIUI3P29RbXNhq6D4/ejAAK1jZQWD+75oBPvgfRBCE+kYEaBpntybmVBvzFiU8Nn0eJWFv8mXkeaeELa6sxZETWVbyV6x0pQRIMQgiryo3wTMlzpOLVLPs49aii6tT4MWZ5MI9lSy9N8FFCHpspfhXJfJb7atgIzvn0HW6t3oF1aW8MzLZ6/QTKjtAKMduY0qz0W5olhfhvXeZf5o8z9GaNfveSpA+cglQxxGtA2AhA4lGo5ctGnXSz164WWVsLSvwIET5THsw0Ki/JTiwgPQ0qXgfkNpREoGjGg2DzkqERJ0QVx9jLRiys+fev2E08bl6+znMgSZ7FhvjB2l5KtyqlFbbQMgLMAyiZCWjhpYqxzJBjLhEdeVbR0/gazR33uu0UqGc+YOqEdNnfS9yz52ZIReQ1OkHXmkiXp5b7sF1loo4k5O1pQUzUD96hoidy5xV2RgX8BODtqaYNrM1+InEuLzulRr0x1vG3Qf3FJf2KeHqnmGHUQxHqQ/G3JOblL+i1d1VXUymuJLEI+iZiZSwXzTqMoo7lwl9W/g3EgKgvnt+T3/j0707sykpLZSGO8+nSS/neZwlEM5iyaNIcC1TcXjTplYwO2d8NeNQMEhDQIdQLq4AEIapbBYk7aBVLwo8QwdLbmM+rk38lSK9Gtzwxuk42WcKJFiB2vGTwozlAr/YY2IduTiR453XBMm6NwUpdc9GhzJLJbTA/JLndS7ZXg31W1B2v3fYvPthVhY/kmbKvcaezKDHe6wTvMpk6zgI73Iafg1AySnfbtZIIEWqJJ/GHmuKlrfgZBQE6mFLdNtAbBfPvnPRK4hYT4hMAqtXRaVKriOiAR1sXXS79q+AWw9EJgBQEvkc5vq7DG2AHlLVo1hRF4BOFiTeEGMiaT4gzW8jOK2gYyXWmiUjJccAc8AU1jt0a6rwOkuyu7uK8AjWZVqjk4gGBvppsuMb/q0zw3rhl6vNqwxpO/aPnvJYknosdmAFzlLfleAP5JKutjQwiev2j5IJ3E6wTqHmvLV9oVAo8vGZ73Ua93irulufgNIhoUMdMoE436/8wl1X4etmH0gD3JjCV3YfFg1ugZAufWC20jWocAX1vyRe7Hvft87UrPqR3PwMsAZURlnwyi/SImmkz+6tLY5Iex41E5KgK1Ffrhnq67FlpoPPLeLeoJjZ6TEmdRsEyneQ/tBeP6nLS2M5s9xXJ4InZRDMFxHlwAQY1pwoJJh8FPbzJRP4AznIACJ0LebqM5edesYUoGJDQEIMQCE+XE6NVrjYI/x7XrgZM656FPh2PRs82RSGuJeEiGjyRsq8wF1YFq/FC+BZ9s/QJfbF+Bnyq3GZqCVu5WcItgfoPYvRk5cwm+kAxASHXvWQ/BiK/7VkLc6dM8by0c9ct1TDTP3w4ghATWXX7NPcOt+1WIX37YZh4KjQsJ3jp1cowdSdnUd4P5M2bt9fSKqgV2xY3qFWuKDJD2gCmpWgyDFixrrbs8Y6Wk61kgt55TnbFpqJIJF2Zkdfjg85MPNxL+5L5fPBiSP0A4Jj8srULRFCQDv8lJ6/BOysKqsFDkDR6jQMhfyexsGfyOSh6wMQM1p342/JRdRnVDEv8CYWh9h0Le6mfP4DXD+m5x7Idg3NZLLgTT3SA+2iL2fTVp7kuKz+67WvV5/MLiwZqgfxP4qBiAYAhGknxR8fC8RY6/b3PmcxcUdyQXT2bQXVHlpEOChIlnsD9w58pzB21IyJiaokE8gGD46BwkJgbz3H81a/KJfhc/zKTyZNc5DIXb2AleKwZtBwCcAIOmWA+nfdqZKQKsw6erInuMNp7WOKlzLo7vcIxRJTI7rVVL1INTAlu0U/kMNu/fgqKda7Bq9zqsLf0O5bWVKieNYdZRFdgb8tiB3VT6jHcG4mg1yojpEq2168NfYkIkOzpGijWpao7RxDFuSFp7/XHapw2UQIEk5JPkbJWaKNyfZPgJ7AdDMJEK1SsjxhaS+tcBN9a6/bzOSmtgHk+9Wgx1N4A9SKVYk8o3kNPjDJC4icEjwimVTN+URFgK4t8Wn5O/Tv09f8nyDuyjaQzlva+qF4YHEYmS+ISZ7ysZnrcwlT2pUjnr4L8RcGKd50RQpc5QxY/Ek208ZXcppzwFcvya+zEGRXIRmL4ZICGud/u9//pi1EmOTGAqYiCtzTH/BHgMGJnmEFCllBDAEqqVo8OZIo9/e1Vblyug/BXOj5qrUR9BJXWSy3V/q1+t/uq1HxtSXEr5Iew7sdVxmtu1EMRBn4xov5VaSPG0TlSYShnpVNYp6h2rYk11zOXgBAgKbo6fP+lSMB4GqGMqRGjo7T2VbybzTkMAinq3VvfBJwPwaG50SGuLQZ1PwLHteuKYtt3RNbtLKGtLMiP6322rklVtLPsRK3evx6o9a7Gh9AeU+/fDL3VkaOkRjcGBolCyGgdbvwXCOwGpX/RLd0qMXSc7J0WoG1KommPPhd+5s3hfN01LP0qSTAcHGJoL0KFiFgMqGbEhTpV6yYUqt4/21mbQthVDcsuc7ItoHwSTkGhAsaYzl6xpVVbrH0OCHwejHp8kcAWDLiz5bO4iJeSOfHlJepsubSaQwEsAp1mo4ZWPwAy/dN/49Yi++5zMK9wmd1Hx6cT8GyacB1Cm2dwRmu2PxK6C4mHHF6tbef4LL7j5yAF3gMSfmTnofV2nqGESKGKmySs+7b9KFVdKNJb895afqrN4kYiOhjkDYlCb4iPwy8XD8lT2RONRzpTf5xx9iwT/1uzzZrQ2YlxRS4wXpcRDK0b039QQTYJRxMqPRxl8ZXQuhOCciXkjJH4TEK5Pmh0kRAEEUx6EIBM5aAECCpZc18pf6X+WJF8IIneiDRL7e2MChIYIc7txN1afvoAPfg7ARRqy3Jno2aYbBnbONf7v0W26BxMuGU7TZmV1stT8ZbU37jMM7KnZiw2lG/Fj+WYs37ka31dshk/6jN+U2cYt3I1WRyFVCiZrYrDcV0Ez84eCxBOzRk99K9Wx/FzfMzQILI1aDHXhbyEG2IByz8nQIyqKIVqVFKzmmFKxJqD3O192TnO7HgPjQqvxEPjPFXrrh8MRAfnvrTlCJ/8z0HlUxCZuisELRnbQiy7wa1pr74bPBw/22gpHZhq86PO2PpE5gJlvZsiBCKecjka11WD8a3eF94YtE0+O1DfIe69kMjPuAXOn2NwMIKkDYg6R/Evx0Lz1tmMoLBQDTp7QW4d+OwPnK+fNutDTCFSuEESTioblzjTTKP+95cfrUruFCBebazLUuXVIVXRhnmTtsZXDT1gezCplzk7lcAcULnH1H9hmCLl5hlL81pE7lOwq6PfwuYD4DzyB14uWzt+Hu+9S9sBkLNoOBxPTzKqao7E/jf918AIEA+XNvfZYHYGXIJDHDCOXdfhsxROwdqrcZJmt9YGrn+go3C72u+rvsfk64q2ilVnB3Ed4/lZ/C0jdiHxQUFvXA8hJy0L/Tn3Rp90x6JzVCUflHI6OmR1S20S/kLdqA7XYXb0X31f8hHX7vsPavd9gY/lmKNoJ0qAJMkJJg5EJ9fzR6lHBzgzU1KAwnkbBBiCs04R2SzspP5g6empMpZlfyOLGmUYEICgTgzkEoaG1GJIgXT0NgvGusZJJ+yBEfbaQRd6pxZeDxQMAOtUlJQp2z6A5FaRfGQ6lO3PJEldloNXxOrtmAYhyJDT5O1YCvAlSLmJN+6/y0F/xg/4jrh6gbJvIn788U0/TDhW6HMREI0E4GYBKq6xFkjmZRBsJ3ig017nLP+z3rVkboPIWsBB/ZOBSY06hQ2fK/RBg5iKS9Lgn4Cv64rxB39UJaKbcBSUdyEMq6mMswCdDObaHDkBICwCw1JnEcm/l3nPXTxi6N4p2zFre4lWjJAL3EUTfSCVD8+Fn6CCsFkQfksQSF2Nlv4761qkDgrRw+vSfU9IGWbidwLeEhUJkK0aiXuVeQHxJguaw5G+gY53KyOj0Gym1i8qkaCr3HBzcQQ4QZhRoMr3TcaDAc5L1U4PKn4bVXnAKLFIidpyXGjJuMyiK/UQ9QcZsmB4UKFUJfDQSRkbGbtld0atdTxzf4TjDsTEnrbWRElhR9JeoXVAaYUUD5a+hNAQ/VPyE1bvXYdP+bdhRvQde3Qsy0tWSQSNNaI7oECucU1lXJ0DQDDrD/04lYgIqnTDxQwGWT/2vmRbCdFMAASzvhAII0U9dqmVKrMZuCE8wohgooMIIo6uyxUYxpPCR/ou/OoXY9XcinGIAhOgN9qWPPSPNJoOeCxaktRZdrmXwwyCEfBFC9SFMDIWJlJlBRRJUaSQ3SUn7VJJIAVI3/s7MrIr7dCQgK+TFYMWd/QJ0Xba77B+xCYFUiuUK775RUohnCXxIZOrRNy2dGT+RMsVotJyArWDJktANkpSDYS9iVilMg0VsYm9khD1CyiuKPp+/0MqXQPlCBNyem3VJ16t5REmX8GGXkNBQAaY9hoaF5E6w2McqdbRQFoJoPzkBlelaDZG+Cej+11eNOmmrUkueuGRlbz2g38QQl6srujXvIB/AKvKkEirqg3mz8pk2wF5Q/EWesEcUM1dKwZ/4XWkL1g7pm1yxtVgnxWgGd3ADhDAlCt65rn9A9y0EyKj62JhCPlkGn2z72PNuJeyjfVbqAyA7jUgiXqKYhQIJ6j6swiWrA16ka24cmtUZ3VofityOvXFM2x7olnN48OZMFAQNP0NzhAIEaq6SddT4vdhQ+h2+3rcBa/d8iw1lP6LMV2HMMU1LM8wxBjCKSonnDHgmqzVItEZWv1tposIXLDNwsNs3dXuMagD5Srpw3/baec+pGvf/k0/+4uIbJHCnod6NAQiGl3YDyj07JWhdsSajAmPwNbVQjQAQct8v7g3G/WAoB72otM9EVFIt0s9ZP7RX1O05979ru5Fecz0zXRtKGV03pvBmMwkLdbRApIdKGimfgShhVedLHgxVDJkMKgnyb7KqYuqK8UMsfTW6zt+W2Slt59ME/j8wgglejJ6jUx6HAIiPWKpxKEXp/7d3NVBSFVf6u/W6e2YYGP4FEUX8AcUIKOJPPEmGRDQiGn8y6G7WxD1JTDQxOZoYk83JDnh22WTNvzluVDy6STTJjFn/IZq4sDH+IiKKBpVEFIOiAsPATM9096u7p153D28e772q190DA9Scg8i8elW3vluv7le3qu5V286pvskq3OXXDRL/+l5H903+rY2gzmYtf2WMzHfdBsZcqHuNgQ+wX7hoIhUdQdl/yWq7obR9G/TclLJo5QA80dAlr3jigll/a2lrF+tHTTqZZfoOAh3lnZ0MczGXXQtelGqWRKSmtv766Re403MVZQXRdatGFW5DEu9G8AxCWaAinoPvmmPYB9fS1pIpNIz8Iph/6B0ZSvijM+phq0J/E7XaCDKRI2qV6JdRV08oPN4XXjSiOZlHbyHnkYGDGkbhuNFH44jhkzB5+ETvb7UVoZ7tKz9q6+CtHZvwWscGrNu6Hhs6lcfgLXTkdsBRZzNSDbu8JREek4owjYnTEWXIowijaXlduX5jmfALKej79827ZW1p12RfUWlN5ewfKKmkaf8hrD1FEMrJmvy9I7XFIBJdcwyC4xEEF4tB+ETI9b41WSf/sXVnnNKPIKhDeq81HHYEZdI/AYmzi3WWZp/AJNQ/n0LAUO02Ofb5ywsQYlEql1uyct7szXF797MfWT3TBb7FzAt8xyH6UxA/AehnwH369K++vKsL9GAulf6H41F3dQAAGlhJREFUl5uP64o9O8BMM5auOVo48scgnKUSO/ffy/Y1aLpC2LWVtY1Ad/dsf+3LKrKlSofdMCJ3lWS+AqBi4qyA3H36DZv0+9OywFDgTRjSOHv16VPfKZEo/Xfk32IARgba3jcIghK65aErx7tSflGy+/WiKyj8J2yiN12BJzESUe34PjO9cgIldO3rnoc1GPaOYruedwESLkv0ur1eVsmGdINHGA5pHIfDmw7FYU2HYELjQRg/dByGphs9I6u8DGrl7fkZBnh7orxNUPaEqE2DXKEH23q2Y9POd/Dmjk3Y1PWOt22gAhht7dnu9Ufd7KgTGZAoniYoegpiv6xQ72T5243Tady3bUosK9Fr7OBSqgU2sZAXdTw78bkVixb5YvInHpb7/AszH1n1DTB9i7wzCKXuFJWznUHfe/7Mmd8znlArRGPmw89eSXD+sxgJ0Xdin7zgQbevnnvCtRUdgAMw/cGVH0hlnMXe9cW+QVfOgYAXUyI/55kAQSjyARYnPvT0CZxKXwch5jEwxDPvwW0K/6fTz20VktiIvD37DhB+2pWVN736rDpwtyj2FoI6F9GZa5oBIRay5I8Xr2B6ESR38yT0+4w9WYLLO69nOSZa4bD71VVnnbTOSGXMYtaytZPdVOEGSG4m8s6r7ApCVa4kbuL3XcPwTShKyr9yN81W+RlUNdOWrx1any/MhXS/zYQZIC83vC8HuG+bKIyQlCek3bueTaX4YtnNj5avc2r7ruJHPLL6OoC/CdDwwDS5nZm+pyJfauspFYifZU1rqbDcebedNyx10PjFzPx5FfUsdGgY1K2bkHXPfd/3bq0ZE8wEZyni5DGRNWpsl9/1CEMxa4t3I0KlMM67+eLqO92A0fUjMbJ+OCYOHY9xQ8Z4+QdU5sKmumEYUdeEOi/rpPD28ouu++K5hqJ+SisKP1J9C5Xi/5TJivJuqCuHysirbYIt2a3Yluv0/t7c/R629HR4REARhG2929Ht5jyiUp+u8whBqs/rUZRB92NKHP31ROGt01H5m46bZ3RzkBHhKJKDF4TATb+bf+uSA9lzUMZz1sPPXSGJ/s3LcdA/18JWdvCd5x+b+XOTq3S68RT3/MRlq/5JRfkDo6n8WRS/DnqXwT9fPfeEhZUShOMffOaIVCqt8hpcXLzyv4uAkBCrU1Q395nAFkOfrMw0e+mKcZwePrfA9A2CPAwk1DZIfxeib4D7D9ft6jOp6z89ANbALXynt6Fr1ctzduWi0GKn0kSffvaRAvXXM8uPkDpwWT702JfNsuTjCH4IuwyBcunvYEH3o4Drnz975htJbwJM/8XDjc6EsZdA8tcBmkhAgzrK1Se/flrxddUjUIowvSJIfnCVP+dCW5szY+Tk6QKprytCAqLRYBVeWxGjYKpqM2PBzDtSJC4amhnxmHGwK+VB+MPzVwJ0PUGqHCC7togktgnCwlVnnfhTrf5KBRLBY1ppknIXPvSlSZD5JQA3qxvJpgbSZMVfyeQflN3EUMQZizjCaIqTKSa+eaRf1eUogZIBKV3kOI+cF3dBnZ8hb4Wu3Pbqj8piOKJ+hBfhcXi6EQ3pIahL1SPjpLy9fiGUt0ERh9J8U/JcKFKgvBY5L/BTDtl8N3bmu72cBztz3ejMd6GztxM7Cj2e1yCvzgOpA5dOHTIiDcdJFQmJ5suN0nuYsTUhnDr9xhnxat4NkpTgGPL+zV4s17dA+M7WYRN+tWLOge05KGN28kNPT8mnM3cxyxNIDcRiBkN1je5FN+9c9OL86a+bTcGmX+Du5aY/vGayQ/JBYncqk3CKMpAk5sfrXHntU+ec9HSltR+19LW6YaLryyC+hggTSrRbDYhukPOD+o7u/4iK8Fg0CEzNK1Y4nb1Np0FgPrNoAcvRLEQdM+pEKQRy34q+bytCfcykwkz3EtFaAj0u8rnfrOza8GIl6ZqVHLP+uKoJUnxGMr7AoIPJ4aFg77xB6OGsUsryAiRnmcRqwVgqs7jl+fNnbq+UcHkejd4hp8HJXCJBHyYpDyWgzsuPoVZCflnKH/VuE3dpNmF+nST/V1N95492y9rY2iqaZzY3dTY2zZdMn1bOBQKrjIp1RMqL4p0tKHY8aHkDB5A8TRD+3NXbeNGr86dsSdJ39X3kUpk2ZhwvqEgMpapP0BqH3X809sLsdjCl0hFdzXsMOu/3V0xJFdx/h+TzmEqDp5o6D5B3Tb0bfjiK43PXaCz5GtQ5XY88qMiOytvg/VvFkillxvUyzHiDenfnfnkCK8cjKHvXPK8DCY9YqAOF3t+KWAS2MqK8A5V4BKpRvQmhKJOwsPmtmrZD3pXMtI0EL05lO37SvqBdhfixP0UE6ORHnptVYJXBT6U7VmMKLwtkf/DsGac9n2QyrRhQZjr54WemF5z015h5FljlkMabjpSLVz31wBM6N7yu3VL45XNc0NXMsglEnQ7LNvCQO1d9fNpuuSFC61MGq7lZ7MiOmQRROAVwZzHEDDg8ktlLNlQMaMSUh6BelnKjELxSsFzdm+t5cnRjYceKOXPUuDNydkX2qa3Nmd14+NhCJnU6QB8D82wAjcQ8lJU7vvgxqWuGiphsIvBfiPFomnv+98knezuxyJ/mWodcxHNmmtb+UnrEcHdEj1CL0cKJgsUxLjCJVFIvyJQaR1ELDS/lE2grBJasTm3/Rf/U24E2W1kcdcqy9Ji6Q47LFfgjIPcEZnVDg5uIRYaZPVqyu+PE8zQoF60KBLXOLYh/WXPOzEpCNtOpDz17ci7lXM/MEyHYFST+KmT+hpVnnfxkEn3udQ+CgraVW8VzD/x9ksNQIUGnkIk/OaCTJKvs8iQfIG2BiJnJvook7ZuU1a1Oy92P60NYPyv8vErfsLeh2ff/wbp05wLC2jbpp/88k05+E2yj6ogiCEGiUpzPSpYqydemEd7fDsNzBz4wBnTFgRjrQKdn9fy0JzY29HS/NzOdB9yx8tlVSU57mzRgUKb59uX1HYeO+BAVmF1yXnjhrBnvGrxmVESF9X3/5DEzMyl3PGXEerya++uqUuwCowpCCjUvXz1iZ64wMd9LE5yGlFrNqyiHHWDxfv2br294/LOfGNhU4a2t4rTm847oydHRAvJosBjO5ApQ6n3mwuZMxn2qAdl3dludV9rhmPdUimq3p36KdAtjpXCGqXsdHgsvp3MtveuodY5kKR3x6uozTlRhrhMSJqbZy1eOQy59hOvK0UgXF8FusB2Pq5FwiDoLDlaaRvWM6CJ94L6nDnLS9TNESvZmmoatfvrUo5VuE8k+KAiC18GWFueCT4/8IiRfDcFH7kqaHnFsJQSVJMYhypM0AOMwtMokspYr2FMyV7tyr/Z9nQ4qwU5X5+5kJxhiPeGXFXF9109CIj0WxD3E9BvpNl597wU/Ngr9m7R/+015b8XlHQhLNPHVtP+tyo27ENV6DUJlUv1bCPWnsqh/YZV6dS5Ufzyxvf8sXFi7+rXgMqEV1HJcOwEtANrhhUR8qYWxyNPjntOlHwut3FXpoHhAsox7XFtKL5qDoHpRSyVaW4tbKBXWN3gIghdP+8qhhfrcxwj4LoOOMQYhikKFb3N5paNGoKmb2d/kQBusauuv9n1v/q3yq01CGqLaSvr7asZPpf2tZPwExlIOjHanV36lfcFtieLnV9Nf+65FwCJgEQhbKA0qVC59+NLGnT31l4LoWoAP9+6w+n6STMBhk3xwBRe156T7fRI5yga23A2Tg2+19BYEcQirO6pMWeY4g1mJ4U6KX5CkJCEcJn3wlzHRUy0+mhAMOgjOo5RzW3/3yVtfqkUbtg6LgEXAIlApAoPKg1DuREtbS0OhfviZYPoSyIuG5f1EGYVKV3t+w13e505qHAbSkMcpVdfnOIOvezeMRcZ5XKLOQehIRxD/JIZcN+BrTWjixmDQ0FdCfgB0Cna+KV2nbfqaMdsWVegS1OFin1sELAIWAVMEBiVBUMKfvfSqpgY3eyaz+CHAKnHIgBOEYBsmINaSIJi0V6kRrWTFrWtLZwhNCULYNehqNyGTkqBqda/e9x9c9P9bp1cizrGk/06lC99un3f7wCZz0Qljn1sELAIWgRICg5YgKPnOfeDyIWnmy5joKwQ5RR3xTGI4orYY/KfiTQyJqQtdZzB1Btc/KoMGvfzMZHuimtEdhVmYwYvrr39gJdFZEtlN8U5SZ5KyUeRQ570I6DIrmX4mXF4y/YIJ6xdRfJS6JPLZshYBi4BFoBoEBjVBUB27/ObLh7w3lj9KKf6RBB1ZzNe3J4+5hsNrIoNJmbCVq8l7JmXCJK812alm8MW9G0fuBqrNMF3Uoq1IXRHvAOg3yPd+a/qayXZboRZg2zosAhaBmiEw6AmC6ulVS6+q2+TmzpQsVQzpo/tlKzOEIqlB3durU523IWz1aiJzNVsNUVCbtDsQ7/rrTKpf3bDx4+v3ntSoHZU17n0iujGd49/+9sJbKwmGouuCfW4RsAhYBKpCYJ8gCKqHLW0tTj49/nDH6f2+ZDkPRBndClk3mevc6WGGT1dnUKYoN3ScwUy6jVCpOz/qPZ2XIfjcpP2kuEXhaDLaa0GCkuo+Qf9UeMrXILG4sFnc/cDlt2RtfgUTrdoyFgGLwJ5GYJ8hCAoYFXFxzb2bDxMp9+dczPXtXYFMMDn34VvJOzpCYqq8uLbjjLN/JWvSVlJyEldnGCmohMgMxIFEv7eljFEU+TO5vjoQURJ9A28VJG5ONaV/3T7npp0merRlLAIWAYvA3kBgnyIIJYCoZdkVKjzmta7EJcFU0SaG32R1GDSuldarIxWm9UYZ1krf1w02E0IQHDxJQiKHGXWdTLp3gnqtlSch6SHL0PGlUlsIXk9SXLNze3bFI5/+ZZdpf205i4BFwCKwNxDYFwmClzbtlDs/NezQ4Y3XuMzXAVCJR2r6ozO8lTzXvePvgJ+gJPUc6EiJKVBJVuGqzjDDWE1bUe/GEQHT9vxkI8pjENUf/0cTJEUR77hE9Jxgbr27p+MR2MRLSdVky1sELAJ7AYF9kyCUgDrvvs+NE0J8hsDXMOMgdcMhzqjU0nUctxXgD7oUbLNWq9qkpCGpsa8FyTAhDGFeCBMd1vJbMZEzSN78+MeQOZUooBeM5wD5jWx6yLPL5t3YW0vZbV0WAYuARWCgENinCYICpaXt6ganMTc95+ZuZtAUgBt0YFVqpHUeANOVra4enfxJn1fSXqUYmcgWJ4/f2CZ17Zt4HIJtV4KNSR/Zy8xCGwHcx7Jww33n3/7WILidayK6LWMRsAhYBDwE9nmC4JEEbnFw/6i5BZLXEfFsZmrcEyvgKCOqW60nXbGW+xJm3HSehFobelODWq0hjvPQhOk2zlMTXP1HhYY2mROM+q/ytkl+Wwjc8j/nLllkUq8tYxGwCFgEBhsC+wVBUKB6NxyWvT0ZLr5GzC1gjATBCRoHv0GNM57VrmR1htnE2OuMZNIVtolxq6RMGOExqSeKxJV/H3bo0ZRc6bwU/jZMyaQZ6aEsIDcIkV7cLTa0L5u3zG4pDLZZz8pjEbAIGCGw3xCEcm/Pv+eyEcKpu4hZXkyED/EAHGCMW5EGUU9qKJOWL7uBTMmCSf0mZeKIl1+mpHXF9UdXl+55lCfGlCAYfFGbSOJeyfTDjhGvvrFizoqCwTu2iEXAImARGJQI7HcEQaHc0tbmSPHHk2RGLiaiU5gRuuWQxGDU0IjUZCDoPBy651FCRG2P+D0vQSMe9JbEla2GQPn75G/DlBjogI/zEMS1oc4bENEawXS3aMDP2ufesl3Xln1uEbAIWAQGOwL7JUEog37R/Z8/jpkuZMLnGXIiFdM4VPVj5maObkLnIq+luz6KAJka1CiyYJre2QRo3VaAqWck2FfTPiaRMaLOHWAsq0s7363f3POXO/75jh6TOm0Zi4BFwCIw2BGo2mAO9g5euPRzE90CX+Kw+CSDpoP0txzi+lQLgqCLQJhkBV7JitzUeJoQhIHUv6mcfhnCPCeV1BNWZ7++EhiMTYLoXmbnV07P+yvbbXyDgRwOtm6LgEVgDyOw3xMEhWdra2vmpZmbP8hp98NS4mIAUwE4OmMfZViCLvWkq9xa6DjKEAbJRS3a0hrLkEaqMcq6LYuwPsXpxD/ITUM9x3t6eBMYT5Ok+3vy+d8vXXDHO7XG2dZnEbAIWAT2NgIHBEEog3zpw5c2ZrsbZ8uU/CozzweQKj9LatB05ELnhRhoQ17rgaXbGtHhOBAre12blRAbPW60ASSv54L4Uzq/bYP1GugRsyUsAhaBfROBA4ogKBU1L29Ojeqc+kHpyIshMZ+ACWCk1OmEajwBSQiGqbEdTEOqWpn3ZYLAzCCibs9rQLjH6ZF3ti+4betg0o+VxSJgEbAI1BqBA44glAFsvv2y+pFjU5PJpUuZ6AqAh+sCRwWNpM5o6p5HKTNu7z8JEVH1h8mclAjFtWkiT5y3xS9fJXXV+oMIqa8XoA0k6Aanju/GGWfsbKcF7h5o1zZhEbAIWAT2KgIHLEEoehNaU02dGw9KUeZMoPAVBp0Q1EaYka/EYJoYv706EmIar4XsSeuII0kmOMWRswSy9AB8i2Dnl25Tw/p75/y4w6RtW8YiYBGwCOwPCBzQBKGsQJXPQdR3HZsHf5aBcwCMB5DReRT8A8BvdKKMmyofFR2wmvC/Jp6Iag1uuQ3/VkG5P1E4JMHH5GOKMuw67E3q9vXPBbiHiZ5m0I3prPuntpYl24goqeMlSbO2rEXAImARGHQIWIKwSyV01U+vyrxzVO5I16X5zO5XAYxTtx1MtVbploKJgQ2WSWqco8hJWN9MyUQl2xc6jExW9yZlovoVhpv6HQGSgbwAnkSab8hvevexumF13fYQounot+UsAhaB/Q0BSxACGlXbDiM63hhKou5UCF4A8LkseRQRiaDydcYu6WCJ26tPSiJ0bSfdJqnUKMfJUWmdNcZdEYOsIKyBcG51Cvk/o7fp7+0LfpTVYWifWwQsAhaB/RkBSxAitMvM9IVVX0ht2SQuIJKfkpKPZ8IEAHW6AVGp4auEgOgMfcyKud+tjVrJHIXNQNev08nuz6kA8E4CrydH3CWkaJv27Li3Fy1aJJPXZd+wCFgELAL7HwKWIBjotKWtpSFfP+p8QXwVSz6WGU0k0M+jYLI/HuYF0BlO3XPdCj1IEJKsvk3b9g8iXZTIsDMYBiroK5IU5xDSJZmRA9FGApYz0U33zL/5BajIiPbHImARsAhYBPrNtxYOAwRa2locYOJwOaTrXOnyZ0D8AUEYxkz1ZcsSZ3x1+/o6w53EWJtGCwzrtl+Ocpu6tk0JggHM3rXMWlrqcn1eQiXQTgKtJ5KPFRzn5szOreunvTStYL0GJpqxZSwCFoEDDQHrQahA4y1tlw8v1OF8QJ5K6mokYaI60Mi+yIzlamtt8EzE1ZGNgawjjGCErOL7SEASWU2w7FeGwMTczaA3IbGRBT1NBfnrey5c8hcTDGwZi4BFwCJwICNgCUIV2ldeBdcZeyKnC+cDOBfAJABDAO4L4Ry1Sve72uPc5ur9sCuQwXdMjGdUV6t5N874x7VX7lcSghDWlr+efp4cpqwE3hcsX5KEOxvQ+Idff+Inm6tQt33VImARsAgcUAhYglAjdc9ru2x8OlM3WwieTuCPAjRNQo4TGJgL9LU06goCXX1J9v512ykmRCXoiQgSpQji1SOZ14HoRWJ6NDXMeWra/x30mt1CqNEgt9VYBCwCBxQCliDUWN3n33PZiLTInJ6HPIkgTiVHHsuSDi4FXqpZazqDnrQhXX17miD4SYvOy0ACWyXTOsFYy0SPZ4ie29w4bt2KOYsKSXGw5S0CFgGLgEWgiIAlCAM0ElqXt6bW7txyFCM/gwXPgsuzAZ7CwMFlr4Lf6EYZQZ3hTiJ+NXWV3610a6Oatst9DNSRZaJ1BH4FoCeJ5TP1ovuVu+bftS0JJrasRcAiYBGwCIQjYAnCHhgZ6lAjGnlyTspDHabZDDGbiacSe5Eah9TCJe9fcUe432NvB9TCgPsZp+l1xuAADJ63UHV6vyMUWPJ2ErSRmJ8BaK0r+HmH+E2nq/Pt9gXtuT2gStuERcAiYBE4YBCwBGEPq/rC331uIhw6RgqeRIIOYZePFoRjGGIyETexhANiIoOzC0lW8zoCoHtuClPw7IDuymIYQfDCHjMYxHkwvUnA6xJYR0x/k5CbhUy9lCrIje0LbtluKpctZxGwCFgELALJELAEIRleNS3dyq3i5fbOukJqy5CCrB+bTvGxEPxxkDheMp9IhAwpM5mwVRNjr9vXj2syuDViKl+cXERgLroK3iLwM0R4IsepJ2hn/vXulOg5fezBXYvsmYKEI8EWtwhYBCwClSNgCULl2NX0TXVlMpMb35hryo6WjGESYirDnUokpjFjFhEfDpDKMJnox/RwoUm5IKnwDx5TktBPeFYJkujvAlhPhBcl8xrp8GsiR5vrHd4+Jt3QceO8G3sTddgWtghYBCwCFoGaIGAJQk1grH0l6pDj6s6NDU59pqHQW2hMkTMeko5loUgDDidJU5lwGJgbAIiSp0GAWADk6dXEk1CJ5Pp61QaBkggS3laBt2UgHcI7DNrAAq+TxIsC8nW3gFdT6VQn0vnse2+73Ssuu73XYHelErHtOxYBi4BFwCKQAAFLEBKAtbeLNi9vTo19b6xoHNso0IH6HW7dWAzBMSzdIwExSUgcI1VUR5aTmKmRCCLpyl5v/HehELZN4QjKSuZ3QfwGw3mTSG5wSKxlR25M5+jVLZlsdkLGcSdhUgErIG2Mgr09qmz7FgGLgEUgHAFLEPbVkcGg5oXNTubIQ+vSo4ZmHDefIXYzxOmMI2ikdOV4pMUoAGNYFlTAptEAjWLCcICHAtQAxjAILztlikF1Auxw6eorQZ0JUMcfuMCEXgJ6mKlHELolOCskd4LoPQl0OJI3g8RWV/KWVBpvMdNWzrnZQorzjSKV65KF3ny6Mbfs7BtzNinSvjrgrNwWAYvAgYbA/wP34pqFIA4BbgAAAABJRU5ErkJggg==;" vertex="1" parent="1">
          <mxGeometry x="830" y="213" width="140" height="72" as="geometry"/>
        </mxCell>
        <mxCell id="YulKvY3epux6njUKUD7t-12" value="" style="shape=image;verticalLabelPosition=bottom;labelBackgroundColor=#ffffff;verticalAlign=top;aspect=fixed;imageAspect=0;image=data:image/png,iVBORw0KGgoAAAANSUhEUgAAAO0AAADVCAMAAACMuod9AAAAeFBMVEVovUX///9fujdmvELG5LvL58FbuTFjuz5cuTNhuztlvEBZuC76/fn+//34/PZsv0rq9ea94LF9xWFywVLy+e+q2JrP6MaHyW7h8dy43quk1ZPZ7dKQzXrm8+GWz4F6xF2b0YiJynGv2qCTzn6l1ZR2wlit2Z3b7tXmTee9AAAOD0lEQVR4nM1d6XrqOgw0DiR2wg5lK6el7aV9/ze8LIWSWHY0igPMz/OdhkwSS7ZGi+o0xmqyW85Uu5gtN91x81tVDf/+Z5enNktaJqtUntl0tPn3ULbdmclaJ3pFYovp4mFseyPd/kstIzfvrw9hO16m9+Z64lt8De/PdlLkD+B6RKbFn7OU7Zd5ENcjipe7su2/2weSVUpv78h2OLujJSZhl3djO3g42QNd0duVsF0+9jM+Q2/uw3b9SAP1h0LgeHG24+cgqxI1uAPbj0f52Sos7odgtq/Fo1leUcxbZzt7xHaRRg7bZZTtRD+a4w2Kn3bZ9p/B+VyR7Ntlu3sqtkpP2mQ7fh4TdYbFvBDGdvks3ucCi+2oILaL9NHsHBgoNgexHT2P97kggw5DCNv1M3mfCwwSyADYDp+RrEpm7bB9e/yploJet8F29Xwm6gzNj0Hy2U6fzftcYHfx2fae5FhLoGALJmy2T+h9LsjZXojL9vO5NshlpFwvxGQ7f1YTdULCfWfM//f1nN7nAq4X4rFdRT77JLGNgOEFbXhs3yN6n8SafDbLTFRDkL3FY9uN6H3saH06tow/85h801UstoOIt5V+/112F/Eh5u+x2L7EY1uUfMUkoqU3vThsx/HuyXTLl/6Md6xKEkbQhsE2njiQfVSvHdH82W/i3mG2r/FerbuhfY24dNN6L1TPNp44kE/dq0fcfmf10kEt24jigP10L7+LuEmrlw7q2A4jeh9NmM11xOvXSwd1bDcts+3GDHbprvsDCNuo4kDrbJWu8UI1bKOKA+2ztf81YbsQOIhcG6MtZWrZbLPDJYyW2K8a6SDMFvcPmfnq/qx6/40IFky2uXlbjOfjxUbA192/8Nni4oB5u7j4iZvfymOrl5dLDAXphWkw0ybEdoj+WJLeGMVxXqXLYqtv46WTAv24wtJBiC3q+TNVWjVjhwiDbeVTXCn0aw4K2AG2/8ANsp32yxeoLgQO22rIZbhHHb4NSAcBtqA4QOSVVsJPDLaZG/f/AI1HSDrwswXFAUP8yKb8GTLYGsLIvIF0A9KBny3mfQzl13vl++SwpT5DMKITkA68bLGwAkm28wqzzcmt3wZ7u34B28d2Dv2AptcKztajTmIfczJC2ULigP2iLzIp21MG29Sz5raQZfZKBx62kDiQETGJEyoRLQZb67tPLICVeryQhy3ifZJRn77IvGJdGGy9+tVQIUaTcGQBtpA4kPrOHdvKI+PsLjQRzTnhH2SYC1o6INkOnC1uiKwvbO1k5LP2yV4ttots7aiAn48tIg54ty7fztLnnYFS30b3DbFUtHRAsUWkad+ZY7B0nQbzfJv69Dok1ksbAOoft4D38WzTxiPiGtzYhd3TJhVyFFQ4l2KLiAMeo/JjmkVqctrwQfIbJWATbIEPxvMdL+haVX4ULrH0J4Ps3SnpwGWLiAO0oV94vjgg5pjQbg0qWCGkA4dtH1i0tP7vvSUkwppYki5iUggB22GLiANkbod/GwDFk5OEMlVz5OVW1WKXLSIOkIrp0N8gAYueZ6SqAyk1WfX8WGW7BD4VTe2P9/4LgFoBebKCTqJO7VuFLWIGSI8WevaoMkLuqiAvVFQWf4Utsl0xxKv1meMTYB2oerNHVA9WQeQfIbaI96EUpsCiVQK2ObV0oSh3RToose0jxwxKYApHPHCNj9qqQWHuStCmxBapW6O2KjWrXqBoUo8UinOXpYNbtv8gZ0acQ2tWvYBtdeEd0YNCciXp4JYt9NBy+M5FajWx/cMSEUu1bzdsIWmaslF1oSMJWyoIgalxtzvuG7ZQnMu454Fagy7KRCAEWSyl7FY6+GMLiQNUgLr2OCZiS+kcYungyhYTB4gPuX4hyLJMiIA6VnV282aU7AqEFleffiNjS5TYYlb5Rjq4sAUrB9xdI2NHJ8wgcuunod2julEOL2wx5YFYTIwUPiFbonnWHkvHuEoHv2xBaZo4/jBuQMg2d09+GzAb4xIZPbMdQN7ncN/OsuUEFaS5cM6hHF24V699ZvsNpnK4ic+cu5aydU0inPz/Kx0o7ospIXPu+oux7qVsiYgQmmiTJH9skUjeEcRenRPplbIldo9wMfDZ0hzZ/qDfhdvriPV1iHNYC+fP8JR1Pf9lC9pzKut5wblpMVt3U46nrGdfZ7Z43ZprklnluWK27tNFjbI66xpKUhTiyhasL0vM1nXvKzy79diNSknqfdwcrnfOExOzdfcXkuZ0xfzAVlCjkju7ZJaJlLN1jPJQUJJlJwe24DZKUYdbXvBEzJYQTgVsD89MoXm55I/zDscNqiicvaOklkX3laBow60y4i0jOVvrLB1JmZJZqRd82bpseQdOOVtXX5OU/+muqqZwMXB/tu67lbC134rlO8qIyZa3KYrzbrOdGuF/JWVLpWzyzuXuu5XU7eYfgj8iPBCv0RYVLGVt5IgGsxKbnEwFf6QIh8AzkW4QgLcDdD+mgaTgW8jWLULhbVHcRFpeVaT7UYj65hzYCtYtkezMPF1XE1SZxy83UwnL3/3FYd0KbDJx3uRutst/ye0P6Zo3UXeBg03mBJSqcCO83NN1cpvDxG4p7v6eqGw3+5bspY6nieqzZv+6mS5ONq7f2/P/xpGCRM29bFcJogAqc6QZ4ASWa/2+3e41MJHFVH8OjhueL7OSnIGoICAUAEkyaKIQ4afhUNoReig531IPG9UqELhGqi8yyVNZ7IIITLGCjkK4LkAQljo9NFFcitjf99vrI02UCEwkRuoUl5I0onHNVIuNpIlSJonbzLbCeDLVIyVu44pbEHkmElvzG0+WGDh3MEK/LbZEQotk33jK3RPpQGRHmJjdhG5BKOOSVj7mogMJfDWR5QjlDQIg5msIbMSfxofrt1Q0oSU7RVRqDPHbTc6JijJtnkz9iNhS7QZEqYzAIN5q83DeBZ2w20Y/aaoIB/+dct6FoBd04RawCKxd/c+4r1ageF2qtGT5Uoo69QlPJuFfIWZN4Ke96wcizIWjS/iid1lOXDWRqSeW4OTC4f35qbYjsec3UHXb+IHczXMEc1iVp2VIXENFdmiEA2lUDiveE5Vq4gs/s+BtZsR3jPs5Kj8Z32pnVOVZL+KOiuxGCX89t4EWaV3B6W6o6luwp0wAhur0gb/a22xucc2I8jX7iTV30pLFvfB5rdSzQVwPdATZcm4wi2Kp6Cmo+C7IWw8Ezyijy+aHowh0synVewnf4fprvbA6vtO1yCY6c9WYbrYnG039B+euBur48PbB9JyAIdXtAoEl36zgCB2q0cQjcp6xWsNpI1OlP8ir4pv5auvOCttgtTAF4+kq02SKd+EZO/cNO7ea2mqobv4EX7+ltXQafe5raoQPn3JqtJr0RDjfnK8h9SoRfc165nl8A3w4iRNOatTv4nxJT1O4zmAHd1FVeeHtw/8BW776fhdQL5MzvA2hOj8zbKUlZurtPIkvWiLE36xPzRmBLr4Ty/9UEq380zMEpw1OnxqJLhToSD34zHiy9IFroDvuD06W14NIcMxIksAYiMFkZGpXR5bOQv3ox2Rn8TCY/aUEwbR8FJwA+PpmtV+NTzKTbYLjfeaQlH8G2USnaV+4X2Sz8MDDwWKnjM6cvVCeaTPavIYb788Fg7HokTKNe/5d6dbONBl3N1NdGK3tCVqbwi43vdoBtvNccMhwvY+XLdTP8Re5Ys3dna8W3fX683O97i5WrNFj/4Dkm7+7oUdBRejVefkByxqtheJVQtY35svT91QypSgpOMOmQExEUT3fCLcYPXavKJxqxqbYydQH32CkKP2Tr9BL/ixaBubvsmOyt3VtnN7YV2Q2OAsCQ0/LIj54b2zpOLUk5c/eDaP/JtXQvF1/o/W0/4NVUV5vz0pjW55uwmG24mHGSbrlzfAMYLyUR3pE8woa6HWZ+WSMAvRjuEnlQUvZLAp4zkjpJ+1EzLf/2Wh+qnDOSLN8L52sPc3fwxi+ZM2is6HBv1HnA5WQWLNhDwu/YLUrmolmfu9Tx7ZxYoE10y7wgueTff25vwby2U8R5j7m2mx7rP3VvPthRAeAEjzaBY+tZGabcwM6nX7+BF/x8PVllgo3TmV4Zydw2EbKXcytse+b7op4yfOfyW6vjSDuRIFKrwLYxpu1mGTaFHq/3X2vJ91erztZv+w+9qYwVhB08qHhrMWoczTVqTbmGKM5wtpMECIJIjjBjMM25ozUttF8RmrM+bdto/n825izjVtGjNnGLSVZt4Aoc6sjziRvFW6LLxHbiPPmW0RCj3uD2Uqkg/uDHggkYIu1Z34MvAkRMFuRdHBneMQBCVuRdHBXkNnDUrYy6eCOYHgfPluhdHA3eMUBGVu0Y/F94Z1ZKGQra7lwL3hn+EnZNg/atIeAOCBlK5YO2kdAHJCybaUmMQpC4oCYLZ5Ceid4JgQ3Y4vXvt0HQXFAzpbXDu3eCIsDcrbRaxKjgO19ULbP6IUC49absuX2+rojAumzTdm22J5FiDpxoBHbeNJBJBCNKOKxhWvfWkatONCMbf+p2PrGSMdi+1zSQViajsD2maSDvF4caMoWGi/cLoh+PbHZPo90QA3Ji85WMiqgDdCVA7HZ8huKtosC2SDL2UbrA9AIGttFydlG6gPQCPZDcOMitp3h7NEHe7pjQjtsO/39Yz9mDXvaJmw7ne0jTZW4WkPKtjMpHrV4M6InXdtsO+OpecQmMi/e5HUpcradTk81T8NEuZr3JlULTdh2Ot1Z4xRbAIktps0qNJqx7XR+dnnUTEUf8kyno//g7O7IbA9YTXbTWctkZ8tNtynVA/4H25m858LMPWUAAAAASUVORK5CYII=;" vertex="1" parent="1">
          <mxGeometry x="497" y="210" width="87" height="78" as="geometry"/>
        </mxCell>
        <mxCell id="YulKvY3epux6njUKUD7t-13" value="" style="shape=image;html=1;verticalAlign=top;verticalLabelPosition=bottom;labelBackgroundColor=#ffffff;imageAspect=0;aspect=fixed;image=https://cdn4.iconfinder.com/data/icons/logos-and-brands/512/306_Slack_logo-128.png" vertex="1" parent="1">
          <mxGeometry x="47.5" y="460" width="93" height="93" as="geometry"/>
        </mxCell>
        <mxCell id="YulKvY3epux6njUKUD7t-14" value="" style="shape=image;html=1;verticalAlign=top;verticalLabelPosition=bottom;labelBackgroundColor=#ffffff;imageAspect=0;aspect=fixed;image=https://cdn0.iconfinder.com/data/icons/social-media-2092/100/social-56-128.png" vertex="1" parent="1">
          <mxGeometry x="30" y="100" width="128" height="128" as="geometry"/>
        </mxCell>
        <mxCell id="YulKvY3epux6njUKUD7t-15" value="" style="endArrow=classic;html=1;" edge="1" parent="1">
          <mxGeometry width="50" height="50" relative="1" as="geometry">
            <mxPoint x="30" y="620" as="sourcePoint"/>
            <mxPoint x="80" y="570" as="targetPoint"/>
          </mxGeometry>
        </mxCell>
      </root>
    </mxGraphModel>
  </diagram>
</mxfile>
